<?xml version="1.0" encoding="utf-8"?>
<!-- Generator: $$$/GeneralStr/196=Adobe Illustrator 27.6.0, SVG Export Plug-In . SVG Version: 6.00 Build 0)  -->
<svg version="1.1" id="b" xmlns="http://www.w3.org/2000/svg" xmlns:xlink="http://www.w3.org/1999/xlink" x="0px" y="0px"
	 viewBox="0 0 1000 837.4" style="enable-background:new 0 0 1000 837.4;" xml:space="preserve">
<style type="text/css">
	.st0{fill:#009770;}
	.st1{fill:#009770;stroke:#000000;stroke-width:3;stroke-linecap:round;stroke-linejoin:round;}
</style>
<rect y="0" class="st0" width="1000" height="837.4"/>
<path class="st1" d="M133.5,166.7c0,0-4.3,205.5-1.4,230c12.1,98.8-5.3,249.8,1.3,315.7c9.8,96.6,84.9,71.6,128.7,93.1
	c83,40.9,213.3,33.2,282.5,17.4c68.2-15.5,103.5-0.4,212.4-5.8s109.4-80.4,109.4-80.4c1.9-30-0.1-554.2-0.1-554.2"/>
<path class="st1" d="M390.3,94.9c-19.3-0.1-38.6,1-57.6,3.4c-70.9,9-234.3,34.7-192.6,75.7c52.9,52,116,68.2,250.1,64.1
	s277.4,0,338.6-14.2c61.2-14.1,140.1-31.2,137.5-49.9s-61.4-81.3-160.9-79.3C626,96.3,455.7,95.4,390.3,94.9L390.3,94.9z"/>
<path class="st1" d="M866.3,174c15.6-85.8,122.3-27.7,132.7-79.3S920.3-16.6,880.8,7.3C827.8,39.3,866.4,174,866.3,174
	c0,0-2.2-108.5,18.2-134.2c16.1-20.3,76.3,2.8,73.7,35.9s-64.5,17.4-84.3,59C864,155.6,866.3,174,866.3,174L866.3,174z"/>
<path class="st1" d="M133.6,174C118.1,88.2,11.4,146.3,0.9,94.7S79.6-16.6,119.1,7.3C172.2,39.3,133.6,174,133.6,174
	s2.2-108.5-18.2-134.2c-16.1-20.3-76.3,2.8-73.7,35.9c2.6,33.1,64.5,17.4,84.3,59C136,155.6,133.6,174,133.6,174L133.6,174z"/>
<polyline class="st1" points="202.1,173.3 185.6,80.4 269.8,57.4 332.3,138.4 "/>
<polyline class="st1" points="286,125.6 322.3,35.3 363.6,59.9 405.7,24.8 430.3,45.4 504.8,35.3 514.5,90.8 "/>
<polyline class="st1" points="633.6,194 674.7,143.9 646.6,125.9 636.1,84.9 615,84.9 608.9,45.9 509,45.9 480.9,136.2 "/>
<polyline class="st1" points="540.3,152.5 597.4,98.1 649.2,152.5 713.2,152.5 683.7,187.9 706.3,209.1 687.5,230.1 "/>
<polyline class="st1" points="400.3,136.2 469.6,26 530.8,12 540.2,156.5 591.9,156.5 591.9,194 "/>
<polyline class="st1" points="268.5,166.7 332.7,98.4 369,132.5 483.2,149.7 483.2,174 "/>
<polyline class="st1" points="418,194 499.9,156.5 534.8,194 579.7,213.6 579.7,227.2 "/>
<polyline class="st1" points="173.1,200.7 181.5,156.5 237.8,148.5 243.9,173.3 263.6,152.3 298.6,194 350.3,210.1 361.7,238.7 "/>
<polyline class="st1" points="666.7,136.2 690.7,75.2 721.5,71.6 751.2,115.1 780.7,87.9 802.5,138.6 "/>
<polyline class="st1" points="765.7,151.6 785.2,125.6 802.5,138.6 820.9,134.6 856.2,186.8 "/>
<polyline class="st1" points="694.1,175.4 749.1,149.7 762,156.5 785.9,144.5 801.2,164.1 832.8,166.7 830,198 "/>
<polyline class="st1" points="737.8,219.2 750.5,176.7 770.6,189.2 804.1,176.7 814.7,200.1 "/>
<circle cx="612.3" cy="65.8" r="1.6"/>
<circle cx="602.5" cy="46.3" r="1.6"/>
<circle cx="602.5" cy="56.1" r="1.6"/>
<circle cx="602.5" cy="65.8" r="1.6"/>
<circle cx="592.8" cy="46.3" r="1.6"/>
<circle cx="592.8" cy="56.1" r="1.6"/>
<circle cx="592.8" cy="65.8" r="1.6"/>
<circle cx="583.1" cy="46.3" r="1.6"/>
<circle cx="583.1" cy="56.1" r="1.6"/>
<circle cx="583.1" cy="65.8" r="1.6"/>
<circle cx="573.4" cy="46.3" r="1.6"/>
<circle cx="573.4" cy="56.1" r="1.6"/>
<circle cx="573.4" cy="65.8" r="1.6"/>
<circle cx="563.6" cy="46.3" r="1.6"/>
<circle cx="563.6" cy="56.1" r="1.6"/>
<circle cx="563.6" cy="65.8" r="1.6"/>
<circle cx="553.9" cy="46.3" r="1.6"/>
<circle cx="553.9" cy="56.1" r="1.6"/>
<circle cx="553.9" cy="65.8" r="1.6"/>
<circle cx="544.2" cy="46.3" r="1.6"/>
<circle cx="544.2" cy="56.1" r="1.6"/>
<circle cx="544.2" cy="65.8" r="1.6"/>
<circle cx="534.5" cy="46.3" r="1.6"/>
<circle cx="534.5" cy="56.1" r="1.6"/>
<circle cx="534.5" cy="65.8" r="1.6"/>
<circle cx="524.7" cy="17.1" r="1.6"/>
<circle cx="524.7" cy="26.9" r="1.6"/>
<circle cx="524.7" cy="36.6" r="1.6"/>
<circle cx="524.7" cy="46.3" r="1.6"/>
<circle cx="524.7" cy="56.1" r="1.6"/>
<circle cx="524.7" cy="65.8" r="1.6"/>
<circle cx="515" cy="17.1" r="1.6"/>
<circle cx="515" cy="26.9" r="1.6"/>
<circle cx="515" cy="36.6" r="1.6"/>
<circle cx="515" cy="46.3" r="1.6"/>
<circle cx="515" cy="56.1" r="1.6"/>
<circle cx="515" cy="65.8" r="1.6"/>
<circle cx="505.3" cy="26.9" r="1.6"/>
<circle cx="505.3" cy="36.6" r="1.6"/>
<circle cx="505.3" cy="46.3" r="1.6"/>
<circle cx="505.3" cy="56.1" r="1.6"/>
<circle cx="505.3" cy="65.8" r="1.6"/>
<circle cx="495.5" cy="26.9" r="1.6"/>
<circle cx="495.5" cy="36.6" r="1.6"/>
<circle cx="495.5" cy="46.3" r="1.6"/>
<circle cx="495.5" cy="56.1" r="1.6"/>
<circle cx="495.5" cy="65.8" r="1.6"/>
<circle cx="485.8" cy="26.9" r="1.6"/>
<circle cx="485.8" cy="36.6" r="1.6"/>
<circle cx="485.8" cy="46.3" r="1.6"/>
<circle cx="485.8" cy="56.1" r="1.6"/>
<circle cx="485.8" cy="65.8" r="1.6"/>
<circle cx="476.1" cy="26.9" r="1.6"/>
<circle cx="476.1" cy="36.6" r="1.6"/>
<circle cx="476.1" cy="46.3" r="1.6"/>
<circle cx="476.1" cy="56.1" r="1.6"/>
<circle cx="476.1" cy="65.8" r="1.6"/>
<circle cx="466.4" cy="36.6" r="1.6"/>
<circle cx="466.4" cy="46.3" r="1.6"/>
<circle cx="466.4" cy="56.1" r="1.6"/>
<circle cx="466.4" cy="65.8" r="1.6"/>
<circle cx="456.6" cy="46.3" r="1.6"/>
<circle cx="456.6" cy="56.1" r="1.6"/>
<circle cx="456.6" cy="65.8" r="1.6"/>
<circle cx="446.9" cy="46.3" r="1.6"/>
<circle cx="446.9" cy="56.1" r="1.6"/>
<circle cx="446.9" cy="65.8" r="1.6"/>
<circle cx="437.2" cy="46.3" r="1.6"/>
<circle cx="437.2" cy="56.1" r="1.6"/>
<circle cx="437.2" cy="65.8" r="1.6"/>
<circle cx="427.5" cy="46.3" r="1.6"/>
<circle cx="427.5" cy="56.1" r="1.6"/>
<circle cx="427.5" cy="65.8" r="1.6"/>
<circle cx="417.7" cy="36.6" r="1.6"/>
<circle cx="417.7" cy="46.3" r="1.6"/>
<circle cx="417.7" cy="56.1" r="1.6"/>
<circle cx="417.7" cy="65.8" r="1.6"/>
<circle cx="408" cy="36.6" r="1.6"/>
<circle cx="408" cy="46.3" r="1.6"/>
<circle cx="408" cy="56.1" r="1.6"/>
<circle cx="408" cy="65.8" r="1.6"/>
<circle cx="398.3" cy="36.6" r="1.6"/>
<circle cx="398.3" cy="46.3" r="1.6"/>
<circle cx="398.3" cy="56.1" r="1.6"/>
<circle cx="398.3" cy="65.8" r="1.6"/>
<circle cx="388.5" cy="46.3" r="1.6"/>
<circle cx="388.5" cy="56.1" r="1.6"/>
<circle cx="388.5" cy="65.8" r="1.6"/>
<circle cx="378.8" cy="56.1" r="1.6"/>
<circle cx="378.8" cy="65.8" r="1.6"/>
<circle cx="369.1" cy="56.1" r="1.6"/>
<circle cx="369.1" cy="65.8" r="1.6"/>
<circle cx="359.4" cy="65.8" r="1.6"/>
<circle cx="349.6" cy="56.1" r="1.6"/>
<circle cx="349.6" cy="65.8" r="1.6"/>
<circle cx="339.9" cy="46.3" r="1.6"/>
<circle cx="339.9" cy="56.1" r="1.6"/>
<circle cx="339.9" cy="65.8" r="1.6"/>
<circle cx="330.2" cy="46.3" r="1.6"/>
<circle cx="330.2" cy="56.1" r="1.6"/>
<circle cx="330.2" cy="65.8" r="1.6"/>
<circle cx="320.5" cy="46.3" r="1.6"/>
<circle cx="320.5" cy="56.1" r="1.6"/>
<circle cx="320.5" cy="65.8" r="1.6"/>
<circle cx="310.7" cy="65.8" r="1.6"/>
<circle cx="291.3" cy="85.2" r="1.6"/>
<circle cx="271.8" cy="65.8" r="1.6"/>
<circle cx="262.1" cy="65.8" r="1.6"/>
<circle cx="252.4" cy="65.8" r="1.6"/>
<circle cx="242.6" cy="65.8" r="1.6"/>
<circle cx="845.7" cy="172.8" r="1.6"/>
<circle cx="845.7" cy="182.5" r="1.6"/>
<circle cx="836" cy="163.1" r="1.6"/>
<circle cx="836" cy="172.8" r="1.6"/>
<circle cx="836" cy="182.5" r="1.6"/>
<circle cx="836" cy="192.2" r="1.6"/>
<circle cx="826.3" cy="143.6" r="1.6"/>
<circle cx="826.3" cy="153.3" r="1.6"/>
<circle cx="826.3" cy="163.1" r="1.6"/>
<circle cx="826.3" cy="172.8" r="1.6"/>
<circle cx="826.3" cy="182.5" r="1.6"/>
<circle cx="826.3" cy="192.2" r="1.6"/>
<circle cx="816.5" cy="143.6" r="1.6"/>
<circle cx="816.5" cy="153.3" r="1.6"/>
<circle cx="816.5" cy="163.1" r="1.6"/>
<circle cx="816.5" cy="172.8" r="1.6"/>
<circle cx="816.5" cy="182.5" r="1.6"/>
<circle cx="816.5" cy="192.2" r="1.6"/>
<circle cx="806.8" cy="143.6" r="1.6"/>
<circle cx="806.8" cy="153.3" r="1.6"/>
<circle cx="806.8" cy="163.1" r="1.6"/>
<circle cx="806.8" cy="172.8" r="1.6"/>
<circle cx="806.8" cy="182.5" r="1.6"/>
<circle cx="806.8" cy="192.2" r="1.6"/>
<circle cx="806.8" cy="202" r="1.6"/>
<circle cx="797.1" cy="133.9" r="1.6"/>
<circle cx="797.1" cy="143.6" r="1.6"/>
<circle cx="797.1" cy="153.3" r="1.6"/>
<circle cx="797.1" cy="163.1" r="1.6"/>
<circle cx="797.1" cy="172.8" r="1.6"/>
<circle cx="797.1" cy="182.5" r="1.6"/>
<circle cx="797.1" cy="192.2" r="1.6"/>
<circle cx="797.1" cy="202" r="1.6"/>
<circle cx="787.4" cy="104.7" r="1.6"/>
<circle cx="787.4" cy="114.4" r="1.6"/>
<circle cx="787.4" cy="124.1" r="1.6"/>
<circle cx="787.4" cy="133.9" r="1.6"/>
<circle cx="787.4" cy="143.6" r="1.6"/>
<circle cx="787.4" cy="153.3" r="1.6"/>
<circle cx="787.4" cy="163.1" r="1.6"/>
<circle cx="787.4" cy="172.8" r="1.6"/>
<circle cx="787.4" cy="182.5" r="1.6"/>
<circle cx="787.4" cy="192.2" r="1.6"/>
<circle cx="787.4" cy="202" r="1.6"/>
<circle cx="777.6" cy="95" r="1.6"/>
<circle cx="777.6" cy="104.7" r="1.6"/>
<circle cx="777.6" cy="114.4" r="1.6"/>
<circle cx="777.6" cy="124.1" r="1.6"/>
<circle cx="777.6" cy="133.9" r="1.6"/>
<circle cx="777.6" cy="143.6" r="1.6"/>
<circle cx="777.6" cy="153.3" r="1.6"/>
<circle cx="777.6" cy="163.1" r="1.6"/>
<circle cx="777.6" cy="172.8" r="1.6"/>
<circle cx="777.6" cy="182.5" r="1.6"/>
<circle cx="777.6" cy="192.2" r="1.6"/>
<circle cx="777.6" cy="202" r="1.6"/>
<circle cx="777.6" cy="211.7" r="1.6"/>
<circle cx="767.9" cy="104.7" r="1.6"/>
<circle cx="767.9" cy="114.4" r="1.6"/>
<circle cx="767.9" cy="124.1" r="1.6"/>
<circle cx="767.9" cy="133.9" r="1.6"/>
<circle cx="767.9" cy="143.6" r="1.6"/>
<circle cx="767.9" cy="153.3" r="1.6"/>
<circle cx="767.9" cy="163.1" r="1.6"/>
<circle cx="767.9" cy="172.8" r="1.6"/>
<circle cx="767.9" cy="182.5" r="1.6"/>
<circle cx="767.9" cy="192.2" r="1.6"/>
<circle cx="767.9" cy="202" r="1.6"/>
<circle cx="767.9" cy="211.7" r="1.6"/>
<circle cx="758.2" cy="114.4" r="1.6"/>
<circle cx="758.2" cy="124.1" r="1.6"/>
<circle cx="758.2" cy="133.9" r="1.6"/>
<circle cx="758.2" cy="143.6" r="1.6"/>
<circle cx="758.2" cy="153.3" r="1.6"/>
<circle cx="758.2" cy="163.1" r="1.6"/>
<circle cx="758.2" cy="172.8" r="1.6"/>
<circle cx="758.2" cy="182.5" r="1.6"/>
<circle cx="758.2" cy="192.2" r="1.6"/>
<circle cx="758.2" cy="202" r="1.6"/>
<circle cx="758.2" cy="211.7" r="1.6"/>
<circle cx="748.5" cy="114.4" r="1.6"/>
<circle cx="748.5" cy="124.1" r="1.6"/>
<circle cx="748.5" cy="133.9" r="1.6"/>
<circle cx="748.5" cy="143.6" r="1.6"/>
<circle cx="748.5" cy="153.3" r="1.6"/>
<circle cx="748.5" cy="163.1" r="1.6"/>
<circle cx="748.5" cy="172.8" r="1.6"/>
<circle cx="748.5" cy="182.5" r="1.6"/>
<circle cx="748.5" cy="192.2" r="1.6"/>
<circle cx="748.5" cy="202" r="1.6"/>
<circle cx="748.5" cy="211.7" r="1.6"/>
<circle cx="738.7" cy="104.7" r="1.6"/>
<circle cx="738.7" cy="114.4" r="1.6"/>
<circle cx="738.7" cy="124.1" r="1.6"/>
<circle cx="738.7" cy="133.9" r="1.6"/>
<circle cx="738.7" cy="143.6" r="1.6"/>
<circle cx="738.7" cy="153.3" r="1.6"/>
<circle cx="738.7" cy="163.1" r="1.6"/>
<circle cx="738.7" cy="172.8" r="1.6"/>
<circle cx="738.7" cy="182.5" r="1.6"/>
<circle cx="738.7" cy="192.2" r="1.6"/>
<circle cx="738.7" cy="202" r="1.6"/>
<circle cx="738.7" cy="211.7" r="1.6"/>
<circle cx="738.7" cy="221.4" r="1.6"/>
<circle cx="729" cy="85.2" r="1.6"/>
<circle cx="729" cy="95" r="1.6"/>
<circle cx="729" cy="104.7" r="1.6"/>
<circle cx="729" cy="114.4" r="1.6"/>
<circle cx="729" cy="124.1" r="1.6"/>
<circle cx="729" cy="133.9" r="1.6"/>
<circle cx="729" cy="143.6" r="1.6"/>
<circle cx="729" cy="153.3" r="1.6"/>
<circle cx="729" cy="163.1" r="1.6"/>
<circle cx="729" cy="172.8" r="1.6"/>
<circle cx="729" cy="182.5" r="1.6"/>
<circle cx="729" cy="192.2" r="1.6"/>
<circle cx="729" cy="202" r="1.6"/>
<circle cx="729" cy="211.7" r="1.6"/>
<circle cx="729" cy="221.4" r="1.6"/>
<circle cx="719.3" cy="75.5" r="1.6"/>
<circle cx="719.3" cy="85.2" r="1.6"/>
<circle cx="719.3" cy="95" r="1.6"/>
<circle cx="719.3" cy="104.7" r="1.6"/>
<circle cx="719.3" cy="114.4" r="1.6"/>
<circle cx="719.3" cy="124.1" r="1.6"/>
<circle cx="719.3" cy="133.9" r="1.6"/>
<circle cx="719.3" cy="143.6" r="1.6"/>
<circle cx="719.3" cy="153.3" r="1.6"/>
<circle cx="719.3" cy="163.1" r="1.6"/>
<circle cx="719.3" cy="172.8" r="1.6"/>
<circle cx="719.3" cy="182.5" r="1.6"/>
<circle cx="719.3" cy="192.2" r="1.6"/>
<circle cx="719.3" cy="202" r="1.6"/>
<circle cx="719.3" cy="211.7" r="1.6"/>
<circle cx="719.3" cy="221.4" r="1.6"/>
<circle cx="709.5" cy="75.5" r="1.6"/>
<circle cx="709.5" cy="85.2" r="1.6"/>
<circle cx="709.5" cy="95" r="1.6"/>
<circle cx="709.5" cy="104.7" r="1.6"/>
<circle cx="709.5" cy="114.4" r="1.6"/>
<circle cx="709.5" cy="124.1" r="1.6"/>
<circle cx="709.5" cy="133.9" r="1.6"/>
<circle cx="709.5" cy="143.6" r="1.6"/>
<circle cx="709.5" cy="153.3" r="1.6"/>
<circle cx="709.5" cy="163.1" r="1.6"/>
<circle cx="709.5" cy="172.8" r="1.6"/>
<circle cx="709.5" cy="182.5" r="1.6"/>
<circle cx="709.5" cy="192.2" r="1.6"/>
<circle cx="709.5" cy="202" r="1.6"/>
<circle cx="709.5" cy="211.7" r="1.6"/>
<circle cx="709.5" cy="221.4" r="1.6"/>
<circle cx="699.8" cy="75.5" r="1.6"/>
<circle cx="699.8" cy="85.2" r="1.6"/>
<circle cx="699.8" cy="95" r="1.6"/>
<circle cx="699.8" cy="104.7" r="1.6"/>
<circle cx="699.8" cy="114.4" r="1.6"/>
<circle cx="699.8" cy="124.1" r="1.6"/>
<circle cx="699.8" cy="133.9" r="1.6"/>
<circle cx="699.8" cy="143.6" r="1.6"/>
<circle cx="699.8" cy="153.3" r="1.6"/>
<circle cx="699.8" cy="163.1" r="1.6"/>
<circle cx="699.8" cy="172.8" r="1.6"/>
<circle cx="699.8" cy="182.5" r="1.6"/>
<circle cx="699.8" cy="192.2" r="1.6"/>
<circle cx="699.8" cy="202" r="1.6"/>
<circle cx="699.8" cy="211.7" r="1.6"/>
<circle cx="699.8" cy="221.4" r="1.6"/>
<circle cx="690.1" cy="85.2" r="1.6"/>
<circle cx="690.1" cy="95" r="1.6"/>
<circle cx="690.1" cy="104.7" r="1.6"/>
<circle cx="690.1" cy="114.4" r="1.6"/>
<circle cx="690.1" cy="124.1" r="1.6"/>
<circle cx="690.1" cy="133.9" r="1.6"/>
<circle cx="690.1" cy="143.6" r="1.6"/>
<circle cx="690.1" cy="153.3" r="1.6"/>
<circle cx="690.1" cy="163.1" r="1.6"/>
<circle cx="690.1" cy="172.8" r="1.6"/>
<circle cx="690.1" cy="182.5" r="1.6"/>
<circle cx="690.1" cy="192.2" r="1.6"/>
<circle cx="690.1" cy="202" r="1.6"/>
<circle cx="690.1" cy="211.7" r="1.6"/>
<circle cx="690.1" cy="221.4" r="1.6"/>
<circle cx="680.4" cy="104.7" r="1.6"/>
<circle cx="680.4" cy="114.4" r="1.6"/>
<circle cx="680.4" cy="124.1" r="1.6"/>
<circle cx="680.4" cy="133.9" r="1.6"/>
<circle cx="680.4" cy="143.6" r="1.6"/>
<circle cx="680.4" cy="153.3" r="1.6"/>
<circle cx="680.4" cy="163.1" r="1.6"/>
<circle cx="680.4" cy="172.8" r="1.6"/>
<circle cx="680.4" cy="182.5" r="1.6"/>
<circle cx="680.4" cy="192.2" r="1.6"/>
<circle cx="680.4" cy="202" r="1.6"/>
<circle cx="680.4" cy="211.7" r="1.6"/>
<circle cx="680.4" cy="221.4" r="1.6"/>
<circle cx="670.6" cy="133.9" r="1.6"/>
<circle cx="670.6" cy="143.6" r="1.6"/>
<circle cx="670.6" cy="153.3" r="1.6"/>
<circle cx="670.6" cy="163.1" r="1.6"/>
<circle cx="670.6" cy="172.8" r="1.6"/>
<circle cx="670.6" cy="182.5" r="1.6"/>
<circle cx="670.6" cy="192.2" r="1.6"/>
<circle cx="670.6" cy="202" r="1.6"/>
<circle cx="670.6" cy="211.7" r="1.6"/>
<circle cx="670.6" cy="221.4" r="1.6"/>
<circle cx="660.9" cy="143.6" r="1.6"/>
<circle cx="660.9" cy="153.3" r="1.6"/>
<circle cx="660.9" cy="163.1" r="1.6"/>
<circle cx="660.9" cy="172.8" r="1.6"/>
<circle cx="660.9" cy="182.5" r="1.6"/>
<circle cx="660.9" cy="192.2" r="1.6"/>
<circle cx="660.9" cy="202" r="1.6"/>
<circle cx="660.9" cy="211.7" r="1.6"/>
<circle cx="660.9" cy="221.4" r="1.6"/>
<circle cx="660.9" cy="231.2" r="1.6"/>
<circle cx="651.2" cy="133.9" r="1.6"/>
<circle cx="651.2" cy="143.6" r="1.6"/>
<circle cx="651.2" cy="153.3" r="1.6"/>
<circle cx="651.2" cy="163.1" r="1.6"/>
<circle cx="651.2" cy="172.8" r="1.6"/>
<circle cx="651.2" cy="182.5" r="1.6"/>
<circle cx="651.2" cy="192.2" r="1.6"/>
<circle cx="651.2" cy="202" r="1.6"/>
<circle cx="651.2" cy="211.7" r="1.6"/>
<circle cx="651.2" cy="221.4" r="1.6"/>
<circle cx="651.2" cy="231.2" r="1.6"/>
<circle cx="641.5" cy="104.7" r="1.6"/>
<circle cx="641.5" cy="114.4" r="1.6"/>
<circle cx="641.5" cy="124.1" r="1.6"/>
<circle cx="641.5" cy="133.9" r="1.6"/>
<circle cx="641.5" cy="143.6" r="1.6"/>
<circle cx="641.5" cy="153.3" r="1.6"/>
<circle cx="641.5" cy="163.1" r="1.6"/>
<circle cx="641.5" cy="172.8" r="1.6"/>
<circle cx="641.5" cy="182.5" r="1.6"/>
<circle cx="641.5" cy="192.2" r="1.6"/>
<circle cx="641.5" cy="202" r="1.6"/>
<circle cx="641.5" cy="211.7" r="1.6"/>
<circle cx="641.5" cy="221.4" r="1.6"/>
<circle cx="641.5" cy="231.2" r="1.6"/>
<circle cx="631.7" cy="85.2" r="1.6"/>
<circle cx="631.7" cy="95" r="1.6"/>
<circle cx="631.7" cy="104.7" r="1.6"/>
<circle cx="631.7" cy="114.4" r="1.6"/>
<circle cx="631.7" cy="124.1" r="1.6"/>
<circle cx="631.7" cy="133.9" r="1.6"/>
<circle cx="631.7" cy="143.6" r="1.6"/>
<circle cx="631.7" cy="153.3" r="1.6"/>
<circle cx="631.7" cy="163.1" r="1.6"/>
<circle cx="631.7" cy="172.8" r="1.6"/>
<circle cx="631.7" cy="182.5" r="1.6"/>
<circle cx="631.7" cy="192.2" r="1.6"/>
<circle cx="631.7" cy="202" r="1.6"/>
<circle cx="631.7" cy="211.7" r="1.6"/>
<circle cx="631.7" cy="221.4" r="1.6"/>
<circle cx="631.7" cy="231.2" r="1.6"/>
<circle cx="622" cy="85.2" r="1.6"/>
<circle cx="622" cy="95" r="1.6"/>
<circle cx="622" cy="104.7" r="1.6"/>
<circle cx="622" cy="114.4" r="1.6"/>
<circle cx="622" cy="124.1" r="1.6"/>
<circle cx="622" cy="133.9" r="1.6"/>
<circle cx="622" cy="143.6" r="1.6"/>
<circle cx="622" cy="153.3" r="1.6"/>
<circle cx="622" cy="163.1" r="1.6"/>
<circle cx="622" cy="172.8" r="1.6"/>
<circle cx="622" cy="182.5" r="1.6"/>
<circle cx="622" cy="192.2" r="1.6"/>
<circle cx="622" cy="202" r="1.6"/>
<circle cx="622" cy="211.7" r="1.6"/>
<circle cx="622" cy="221.4" r="1.6"/>
<circle cx="622" cy="231.2" r="1.6"/>
<circle cx="612.3" cy="75.5" r="1.6"/>
<circle cx="612.3" cy="85.2" r="1.6"/>
<circle cx="612.3" cy="95" r="1.6"/>
<circle cx="612.3" cy="104.7" r="1.6"/>
<circle cx="612.3" cy="114.4" r="1.6"/>
<circle cx="612.3" cy="124.1" r="1.6"/>
<circle cx="612.3" cy="133.9" r="1.6"/>
<circle cx="612.3" cy="143.6" r="1.6"/>
<circle cx="612.3" cy="153.3" r="1.6"/>
<circle cx="612.3" cy="163.1" r="1.6"/>
<circle cx="612.3" cy="172.8" r="1.6"/>
<circle cx="612.3" cy="182.5" r="1.6"/>
<circle cx="612.3" cy="192.2" r="1.6"/>
<circle cx="612.3" cy="202" r="1.6"/>
<circle cx="612.3" cy="211.7" r="1.6"/>
<circle cx="612.3" cy="221.4" r="1.6"/>
<circle cx="612.3" cy="231.2" r="1.6"/>
<circle cx="602.5" cy="75.5" r="1.6"/>
<circle cx="602.5" cy="85.2" r="1.6"/>
<circle cx="602.5" cy="95" r="1.6"/>
<circle cx="602.5" cy="104.7" r="1.6"/>
<circle cx="602.5" cy="114.4" r="1.6"/>
<circle cx="602.5" cy="124.1" r="1.6"/>
<circle cx="602.5" cy="133.9" r="1.6"/>
<circle cx="602.5" cy="143.6" r="1.6"/>
<circle cx="602.5" cy="153.3" r="1.6"/>
<circle cx="602.5" cy="163.1" r="1.6"/>
<circle cx="602.5" cy="172.8" r="1.6"/>
<circle cx="602.5" cy="182.5" r="1.6"/>
<circle cx="602.5" cy="192.2" r="1.6"/>
<circle cx="602.5" cy="202" r="1.6"/>
<circle cx="602.5" cy="211.7" r="1.6"/>
<circle cx="602.5" cy="221.4" r="1.6"/>
<circle cx="602.5" cy="231.2" r="1.6"/>
<circle cx="592.8" cy="75.5" r="1.6"/>
<circle cx="592.8" cy="85.2" r="1.6"/>
<circle cx="592.8" cy="95" r="1.6"/>
<circle cx="592.8" cy="104.7" r="1.6"/>
<circle cx="592.8" cy="114.4" r="1.6"/>
<circle cx="592.8" cy="124.1" r="1.6"/>
<circle cx="592.8" cy="133.9" r="1.6"/>
<circle cx="592.8" cy="143.6" r="1.6"/>
<circle cx="592.8" cy="153.3" r="1.6"/>
<circle cx="592.8" cy="163.1" r="1.6"/>
<circle cx="592.8" cy="172.8" r="1.6"/>
<circle cx="592.8" cy="182.5" r="1.6"/>
<circle cx="592.8" cy="192.2" r="1.6"/>
<circle cx="592.8" cy="202" r="1.6"/>
<circle cx="592.8" cy="211.7" r="1.6"/>
<circle cx="592.8" cy="221.4" r="1.6"/>
<circle cx="592.8" cy="231.2" r="1.6"/>
<circle cx="583.1" cy="75.5" r="1.6"/>
<circle cx="583.1" cy="85.2" r="1.6"/>
<circle cx="583.1" cy="95" r="1.6"/>
<circle cx="583.1" cy="104.7" r="1.6"/>
<circle cx="583.1" cy="114.4" r="1.6"/>
<circle cx="583.1" cy="124.1" r="1.6"/>
<circle cx="583.1" cy="133.9" r="1.6"/>
<circle cx="583.1" cy="143.6" r="1.6"/>
<circle cx="583.1" cy="153.3" r="1.6"/>
<circle cx="583.1" cy="163.1" r="1.6"/>
<circle cx="583.1" cy="172.8" r="1.6"/>
<circle cx="583.1" cy="182.5" r="1.6"/>
<circle cx="583.1" cy="192.2" r="1.6"/>
<circle cx="583.1" cy="202" r="1.6"/>
<circle cx="583.1" cy="211.7" r="1.6"/>
<circle cx="583.1" cy="221.4" r="1.6"/>
<circle cx="583.1" cy="231.2" r="1.6"/>
<circle cx="573.4" cy="75.5" r="1.6"/>
<circle cx="573.4" cy="85.2" r="1.6"/>
<circle cx="573.4" cy="95" r="1.6"/>
<circle cx="573.4" cy="104.7" r="1.6"/>
<circle cx="573.4" cy="114.4" r="1.6"/>
<circle cx="573.4" cy="124.1" r="1.6"/>
<circle cx="573.4" cy="133.9" r="1.6"/>
<circle cx="573.4" cy="143.6" r="1.6"/>
<circle cx="573.4" cy="153.3" r="1.6"/>
<circle cx="573.4" cy="163.1" r="1.6"/>
<circle cx="573.4" cy="172.8" r="1.6"/>
<circle cx="573.4" cy="182.5" r="1.6"/>
<circle cx="573.4" cy="192.2" r="1.6"/>
<circle cx="573.4" cy="202" r="1.6"/>
<circle cx="573.4" cy="211.7" r="1.6"/>
<circle cx="573.4" cy="221.4" r="1.6"/>
<circle cx="573.4" cy="231.2" r="1.6"/>
<circle cx="563.6" cy="75.5" r="1.6"/>
<circle cx="563.6" cy="85.2" r="1.6"/>
<circle cx="563.6" cy="95" r="1.6"/>
<circle cx="563.6" cy="104.7" r="1.6"/>
<circle cx="563.6" cy="114.4" r="1.6"/>
<circle cx="563.6" cy="124.1" r="1.6"/>
<circle cx="563.6" cy="133.9" r="1.6"/>
<circle cx="563.6" cy="143.6" r="1.6"/>
<circle cx="563.6" cy="153.3" r="1.6"/>
<circle cx="563.6" cy="163.1" r="1.6"/>
<circle cx="563.6" cy="172.8" r="1.6"/>
<circle cx="563.6" cy="182.5" r="1.6"/>
<circle cx="563.6" cy="192.2" r="1.6"/>
<circle cx="563.6" cy="202" r="1.6"/>
<circle cx="563.6" cy="211.7" r="1.6"/>
<circle cx="563.6" cy="221.4" r="1.6"/>
<circle cx="563.6" cy="231.2" r="1.6"/>
<circle cx="553.9" cy="75.5" r="1.6"/>
<circle cx="553.9" cy="85.2" r="1.6"/>
<circle cx="553.9" cy="95" r="1.6"/>
<circle cx="553.9" cy="104.7" r="1.6"/>
<circle cx="553.9" cy="114.4" r="1.6"/>
<circle cx="553.9" cy="124.1" r="1.6"/>
<circle cx="553.9" cy="133.9" r="1.6"/>
<circle cx="553.9" cy="143.6" r="1.6"/>
<circle cx="553.9" cy="153.3" r="1.6"/>
<circle cx="553.9" cy="163.1" r="1.6"/>
<circle cx="553.9" cy="172.8" r="1.6"/>
<circle cx="553.9" cy="182.5" r="1.6"/>
<circle cx="553.9" cy="192.2" r="1.6"/>
<circle cx="553.9" cy="202" r="1.6"/>
<circle cx="553.9" cy="211.7" r="1.6"/>
<circle cx="553.9" cy="221.4" r="1.6"/>
<circle cx="553.9" cy="231.2" r="1.6"/>
<circle cx="544.2" cy="75.5" r="1.6"/>
<circle cx="544.2" cy="85.2" r="1.6"/>
<circle cx="544.2" cy="95" r="1.6"/>
<circle cx="544.2" cy="104.7" r="1.6"/>
<circle cx="544.2" cy="114.4" r="1.6"/>
<circle cx="544.2" cy="124.1" r="1.6"/>
<circle cx="544.2" cy="133.9" r="1.6"/>
<circle cx="544.2" cy="143.6" r="1.6"/>
<circle cx="544.2" cy="153.3" r="1.6"/>
<circle cx="544.2" cy="163.1" r="1.6"/>
<circle cx="544.2" cy="172.8" r="1.6"/>
<circle cx="544.2" cy="182.5" r="1.6"/>
<circle cx="544.2" cy="192.2" r="1.6"/>
<circle cx="544.2" cy="202" r="1.6"/>
<circle cx="544.2" cy="211.7" r="1.6"/>
<circle cx="544.2" cy="221.4" r="1.6"/>
<circle cx="544.2" cy="231.2" r="1.6"/>
<circle cx="534.5" cy="75.5" r="1.6"/>
<circle cx="534.5" cy="85.2" r="1.6"/>
<circle cx="534.5" cy="95" r="1.6"/>
<circle cx="534.5" cy="104.7" r="1.6"/>
<circle cx="534.5" cy="114.4" r="1.6"/>
<circle cx="534.5" cy="124.1" r="1.6"/>
<circle cx="534.5" cy="133.9" r="1.6"/>
<circle cx="534.5" cy="143.6" r="1.6"/>
<circle cx="534.5" cy="153.3" r="1.6"/>
<circle cx="534.5" cy="163.1" r="1.6"/>
<circle cx="534.5" cy="172.8" r="1.6"/>
<circle cx="534.5" cy="182.5" r="1.6"/>
<circle cx="534.5" cy="192.2" r="1.6"/>
<circle cx="534.5" cy="202" r="1.6"/>
<circle cx="534.5" cy="211.7" r="1.6"/>
<circle cx="534.5" cy="221.4" r="1.6"/>
<circle cx="534.5" cy="231.2" r="1.6"/>
<circle cx="524.7" cy="75.5" r="1.6"/>
<circle cx="524.7" cy="85.2" r="1.6"/>
<circle cx="524.7" cy="95" r="1.6"/>
<circle cx="524.7" cy="104.7" r="1.6"/>
<circle cx="524.7" cy="114.4" r="1.6"/>
<circle cx="524.7" cy="124.1" r="1.6"/>
<circle cx="524.7" cy="133.9" r="1.6"/>
<circle cx="524.7" cy="143.6" r="1.6"/>
<circle cx="524.7" cy="153.3" r="1.6"/>
<circle cx="524.7" cy="163.1" r="1.6"/>
<circle cx="524.7" cy="172.8" r="1.6"/>
<circle cx="524.7" cy="182.5" r="1.6"/>
<circle cx="524.7" cy="192.2" r="1.6"/>
<circle cx="524.7" cy="202" r="1.6"/>
<circle cx="524.7" cy="211.7" r="1.6"/>
<circle cx="524.7" cy="221.4" r="1.6"/>
<circle cx="524.7" cy="231.2" r="1.6"/>
<circle cx="515" cy="75.5" r="1.6"/>
<circle cx="515" cy="85.2" r="1.6"/>
<circle cx="515" cy="95" r="1.6"/>
<circle cx="515" cy="104.7" r="1.6"/>
<circle cx="515" cy="114.4" r="1.6"/>
<circle cx="515" cy="124.1" r="1.6"/>
<circle cx="515" cy="133.9" r="1.6"/>
<circle cx="515" cy="143.6" r="1.6"/>
<circle cx="515" cy="153.3" r="1.6"/>
<circle cx="515" cy="163.1" r="1.6"/>
<circle cx="515" cy="172.8" r="1.6"/>
<circle cx="515" cy="182.5" r="1.6"/>
<circle cx="515" cy="192.2" r="1.6"/>
<circle cx="515" cy="202" r="1.6"/>
<circle cx="515" cy="211.7" r="1.6"/>
<circle cx="515" cy="221.4" r="1.6"/>
<circle cx="515" cy="231.2" r="1.6"/>
<circle cx="505.3" cy="75.5" r="1.6"/>
<circle cx="505.3" cy="85.2" r="1.6"/>
<circle cx="505.3" cy="95" r="1.6"/>
<circle cx="505.3" cy="104.7" r="1.6"/>
<circle cx="505.3" cy="114.4" r="1.6"/>
<circle cx="505.3" cy="124.1" r="1.6"/>
<circle cx="505.3" cy="133.9" r="1.6"/>
<circle cx="505.3" cy="143.6" r="1.6"/>
<circle cx="505.3" cy="153.3" r="1.6"/>
<circle cx="505.3" cy="163.1" r="1.6"/>
<circle cx="505.3" cy="172.8" r="1.6"/>
<circle cx="505.3" cy="182.5" r="1.6"/>
<circle cx="505.3" cy="192.2" r="1.6"/>
<circle cx="505.3" cy="202" r="1.6"/>
<circle cx="505.3" cy="211.7" r="1.6"/>
<circle cx="505.3" cy="221.4" r="1.6"/>
<circle cx="505.3" cy="231.2" r="1.6"/>
<circle cx="495.5" cy="75.5" r="1.6"/>
<circle cx="495.5" cy="85.2" r="1.6"/>
<circle cx="495.5" cy="95" r="1.6"/>
<circle cx="495.5" cy="104.7" r="1.6"/>
<circle cx="495.5" cy="114.4" r="1.6"/>
<circle cx="495.5" cy="124.1" r="1.6"/>
<circle cx="495.5" cy="133.9" r="1.6"/>
<circle cx="495.5" cy="143.6" r="1.6"/>
<circle cx="495.5" cy="153.3" r="1.6"/>
<circle cx="495.5" cy="163.1" r="1.6"/>
<circle cx="495.5" cy="172.8" r="1.6"/>
<circle cx="495.5" cy="182.5" r="1.6"/>
<circle cx="495.5" cy="192.2" r="1.6"/>
<circle cx="495.5" cy="202" r="1.6"/>
<circle cx="495.5" cy="211.7" r="1.6"/>
<circle cx="495.5" cy="221.4" r="1.6"/>
<circle cx="495.5" cy="231.2" r="1.6"/>
<circle cx="485.8" cy="75.5" r="1.6"/>
<circle cx="485.8" cy="85.2" r="1.6"/>
<circle cx="485.8" cy="95" r="1.6"/>
<circle cx="485.8" cy="104.7" r="1.6"/>
<circle cx="485.8" cy="114.4" r="1.6"/>
<circle cx="485.8" cy="124.1" r="1.6"/>
<circle cx="485.8" cy="133.9" r="1.6"/>
<circle cx="485.8" cy="143.6" r="1.6"/>
<circle cx="485.8" cy="153.3" r="1.6"/>
<circle cx="485.8" cy="163.1" r="1.6"/>
<circle cx="485.8" cy="172.8" r="1.6"/>
<circle cx="485.8" cy="182.5" r="1.6"/>
<circle cx="485.8" cy="192.2" r="1.6"/>
<circle cx="485.8" cy="202" r="1.6"/>
<circle cx="485.8" cy="211.7" r="1.6"/>
<circle cx="485.8" cy="221.4" r="1.6"/>
<circle cx="485.8" cy="231.2" r="1.6"/>
<circle cx="476.1" cy="75.5" r="1.6"/>
<circle cx="476.1" cy="85.2" r="1.6"/>
<circle cx="476.1" cy="95" r="1.6"/>
<circle cx="476.1" cy="104.7" r="1.6"/>
<circle cx="476.1" cy="114.4" r="1.6"/>
<circle cx="476.1" cy="124.1" r="1.6"/>
<circle cx="476.1" cy="133.9" r="1.6"/>
<circle cx="476.1" cy="143.6" r="1.6"/>
<circle cx="476.1" cy="153.3" r="1.6"/>
<circle cx="476.1" cy="163.1" r="1.6"/>
<circle cx="476.1" cy="172.8" r="1.6"/>
<circle cx="476.1" cy="182.5" r="1.6"/>
<circle cx="476.1" cy="192.2" r="1.6"/>
<circle cx="476.1" cy="202" r="1.6"/>
<circle cx="476.1" cy="211.7" r="1.6"/>
<circle cx="476.1" cy="221.4" r="1.6"/>
<circle cx="476.1" cy="231.2" r="1.6"/>
<circle cx="466.4" cy="75.5" r="1.6"/>
<circle cx="466.4" cy="85.2" r="1.6"/>
<circle cx="466.4" cy="95" r="1.6"/>
<circle cx="466.4" cy="104.7" r="1.6"/>
<circle cx="466.4" cy="114.4" r="1.6"/>
<circle cx="466.4" cy="124.1" r="1.6"/>
<circle cx="466.4" cy="133.9" r="1.6"/>
<circle cx="466.4" cy="143.6" r="1.6"/>
<circle cx="466.4" cy="153.3" r="1.6"/>
<circle cx="466.4" cy="163.1" r="1.6"/>
<circle cx="466.4" cy="172.8" r="1.6"/>
<circle cx="466.4" cy="182.5" r="1.6"/>
<circle cx="466.4" cy="192.2" r="1.6"/>
<circle cx="466.4" cy="202" r="1.6"/>
<circle cx="466.4" cy="211.7" r="1.6"/>
<circle cx="466.4" cy="221.4" r="1.6"/>
<circle cx="466.4" cy="231.2" r="1.6"/>
<circle cx="456.6" cy="75.5" r="1.6"/>
<circle cx="456.6" cy="85.2" r="1.6"/>
<circle cx="456.6" cy="95" r="1.6"/>
<circle cx="456.6" cy="104.7" r="1.6"/>
<circle cx="456.6" cy="114.4" r="1.6"/>
<circle cx="456.6" cy="124.1" r="1.6"/>
<circle cx="456.6" cy="133.9" r="1.6"/>
<circle cx="456.6" cy="143.6" r="1.6"/>
<circle cx="456.6" cy="153.3" r="1.6"/>
<circle cx="456.6" cy="163.1" r="1.6"/>
<circle cx="456.6" cy="172.8" r="1.6"/>
<circle cx="456.6" cy="182.5" r="1.6"/>
<circle cx="456.6" cy="192.2" r="1.6"/>
<circle cx="456.6" cy="202" r="1.6"/>
<circle cx="456.6" cy="211.7" r="1.6"/>
<circle cx="456.6" cy="221.4" r="1.6"/>
<circle cx="456.6" cy="231.2" r="1.6"/>
<circle cx="446.9" cy="75.5" r="1.6"/>
<circle cx="446.9" cy="85.2" r="1.6"/>
<circle cx="446.9" cy="95" r="1.6"/>
<circle cx="446.9" cy="104.7" r="1.6"/>
<circle cx="446.9" cy="114.4" r="1.6"/>
<circle cx="446.9" cy="124.1" r="1.6"/>
<circle cx="446.9" cy="133.9" r="1.6"/>
<circle cx="446.9" cy="143.6" r="1.6"/>
<circle cx="446.9" cy="153.3" r="1.6"/>
<circle cx="446.9" cy="163.1" r="1.6"/>
<circle cx="446.9" cy="172.8" r="1.6"/>
<circle cx="446.9" cy="182.5" r="1.6"/>
<circle cx="446.9" cy="192.2" r="1.6"/>
<circle cx="446.9" cy="202" r="1.6"/>
<circle cx="446.9" cy="211.7" r="1.6"/>
<circle cx="446.9" cy="221.4" r="1.6"/>
<circle cx="446.9" cy="231.2" r="1.6"/>
<circle cx="437.2" cy="75.5" r="1.6"/>
<circle cx="437.2" cy="85.2" r="1.6"/>
<circle cx="437.2" cy="95" r="1.6"/>
<circle cx="437.2" cy="104.7" r="1.6"/>
<circle cx="437.2" cy="114.4" r="1.6"/>
<circle cx="437.2" cy="124.1" r="1.6"/>
<circle cx="437.2" cy="133.9" r="1.6"/>
<circle cx="437.2" cy="143.6" r="1.6"/>
<circle cx="437.2" cy="153.3" r="1.6"/>
<circle cx="437.2" cy="163.1" r="1.6"/>
<circle cx="437.2" cy="172.8" r="1.6"/>
<circle cx="437.2" cy="182.5" r="1.6"/>
<circle cx="437.2" cy="192.2" r="1.6"/>
<circle cx="437.2" cy="202" r="1.6"/>
<circle cx="437.2" cy="211.7" r="1.6"/>
<circle cx="437.2" cy="221.4" r="1.6"/>
<circle cx="437.2" cy="231.2" r="1.6"/>
<circle cx="427.5" cy="75.5" r="1.6"/>
<circle cx="427.5" cy="85.2" r="1.6"/>
<circle cx="427.5" cy="95" r="1.6"/>
<circle cx="427.5" cy="104.7" r="1.6"/>
<circle cx="427.5" cy="114.4" r="1.6"/>
<circle cx="427.5" cy="124.1" r="1.6"/>
<circle cx="427.5" cy="133.9" r="1.6"/>
<circle cx="427.5" cy="143.6" r="1.6"/>
<circle cx="427.5" cy="153.3" r="1.6"/>
<circle cx="427.5" cy="163.1" r="1.6"/>
<circle cx="427.5" cy="172.8" r="1.6"/>
<circle cx="427.5" cy="182.5" r="1.6"/>
<circle cx="427.5" cy="192.2" r="1.6"/>
<circle cx="427.5" cy="202" r="1.6"/>
<circle cx="427.5" cy="211.7" r="1.6"/>
<circle cx="427.5" cy="221.4" r="1.6"/>
<circle cx="427.5" cy="231.2" r="1.6"/>
<circle cx="417.7" cy="75.5" r="1.6"/>
<circle cx="417.7" cy="85.2" r="1.6"/>
<circle cx="417.7" cy="95" r="1.6"/>
<circle cx="417.7" cy="104.7" r="1.6"/>
<circle cx="417.7" cy="114.4" r="1.6"/>
<circle cx="417.7" cy="124.1" r="1.6"/>
<circle cx="417.7" cy="133.9" r="1.6"/>
<circle cx="417.7" cy="143.6" r="1.6"/>
<circle cx="417.7" cy="153.3" r="1.6"/>
<circle cx="417.7" cy="163.1" r="1.6"/>
<circle cx="417.7" cy="172.8" r="1.6"/>
<circle cx="417.7" cy="182.5" r="1.6"/>
<circle cx="417.7" cy="192.2" r="1.6"/>
<circle cx="417.7" cy="202" r="1.6"/>
<circle cx="417.7" cy="211.7" r="1.6"/>
<circle cx="417.7" cy="221.4" r="1.6"/>
<circle cx="417.7" cy="231.2" r="1.6"/>
<circle cx="408" cy="75.5" r="1.6"/>
<circle cx="408" cy="85.2" r="1.6"/>
<circle cx="408" cy="95" r="1.6"/>
<circle cx="408" cy="104.7" r="1.6"/>
<circle cx="408" cy="114.4" r="1.6"/>
<circle cx="408" cy="124.1" r="1.6"/>
<circle cx="408" cy="133.9" r="1.6"/>
<circle cx="408" cy="143.6" r="1.6"/>
<circle cx="408" cy="153.3" r="1.6"/>
<circle cx="408" cy="163.1" r="1.6"/>
<circle cx="408" cy="172.8" r="1.6"/>
<circle cx="408" cy="182.5" r="1.6"/>
<circle cx="408" cy="192.2" r="1.6"/>
<circle cx="408" cy="202" r="1.6"/>
<circle cx="408" cy="211.7" r="1.6"/>
<circle cx="408" cy="221.4" r="1.6"/>
<circle cx="408" cy="231.2" r="1.6"/>
<circle cx="398.3" cy="75.5" r="1.6"/>
<circle cx="398.3" cy="85.2" r="1.6"/>
<circle cx="398.3" cy="95" r="1.6"/>
<circle cx="398.3" cy="104.7" r="1.6"/>
<circle cx="398.3" cy="114.4" r="1.6"/>
<circle cx="398.3" cy="124.1" r="1.6"/>
<circle cx="398.3" cy="133.9" r="1.6"/>
<circle cx="398.3" cy="143.6" r="1.6"/>
<circle cx="398.3" cy="153.3" r="1.6"/>
<circle cx="398.3" cy="163.1" r="1.6"/>
<circle cx="398.3" cy="172.8" r="1.6"/>
<circle cx="398.3" cy="182.5" r="1.6"/>
<circle cx="398.3" cy="192.2" r="1.6"/>
<circle cx="398.3" cy="202" r="1.6"/>
<circle cx="398.3" cy="211.7" r="1.6"/>
<circle cx="398.3" cy="221.4" r="1.6"/>
<circle cx="398.3" cy="231.2" r="1.6"/>
<circle cx="388.5" cy="75.5" r="1.6"/>
<circle cx="388.5" cy="85.2" r="1.6"/>
<circle cx="388.5" cy="95" r="1.6"/>
<circle cx="388.5" cy="104.7" r="1.6"/>
<circle cx="388.5" cy="114.4" r="1.6"/>
<circle cx="388.5" cy="124.1" r="1.6"/>
<circle cx="388.5" cy="133.9" r="1.6"/>
<circle cx="388.5" cy="143.6" r="1.6"/>
<circle cx="388.5" cy="153.3" r="1.6"/>
<circle cx="388.5" cy="163.1" r="1.6"/>
<circle cx="388.5" cy="172.8" r="1.6"/>
<circle cx="388.5" cy="182.5" r="1.6"/>
<circle cx="388.5" cy="192.2" r="1.6"/>
<circle cx="388.5" cy="202" r="1.6"/>
<circle cx="388.5" cy="211.7" r="1.6"/>
<circle cx="388.5" cy="221.4" r="1.6"/>
<circle cx="388.5" cy="231.2" r="1.6"/>
<circle cx="378.8" cy="75.5" r="1.6"/>
<circle cx="378.8" cy="85.2" r="1.6"/>
<circle cx="378.8" cy="95" r="1.6"/>
<circle cx="378.8" cy="104.7" r="1.6"/>
<circle cx="378.8" cy="114.4" r="1.6"/>
<circle cx="378.8" cy="124.1" r="1.6"/>
<circle cx="378.8" cy="133.9" r="1.6"/>
<circle cx="378.8" cy="143.6" r="1.6"/>
<circle cx="378.8" cy="153.3" r="1.6"/>
<circle cx="378.8" cy="163.1" r="1.6"/>
<circle cx="378.8" cy="172.8" r="1.6"/>
<circle cx="378.8" cy="182.5" r="1.6"/>
<circle cx="378.8" cy="192.2" r="1.6"/>
<circle cx="378.8" cy="202" r="1.6"/>
<circle cx="378.8" cy="211.7" r="1.6"/>
<circle cx="378.8" cy="221.4" r="1.6"/>
<circle cx="378.8" cy="231.2" r="1.6"/>
<circle cx="369.1" cy="75.5" r="1.6"/>
<circle cx="369.1" cy="85.2" r="1.6"/>
<circle cx="369.1" cy="95" r="1.6"/>
<circle cx="369.1" cy="104.7" r="1.6"/>
<circle cx="369.1" cy="114.4" r="1.6"/>
<circle cx="369.1" cy="124.1" r="1.6"/>
<circle cx="369.1" cy="133.9" r="1.6"/>
<circle cx="369.1" cy="143.6" r="1.6"/>
<circle cx="369.1" cy="153.3" r="1.6"/>
<circle cx="369.1" cy="163.1" r="1.6"/>
<circle cx="369.1" cy="172.8" r="1.6"/>
<circle cx="369.1" cy="182.5" r="1.6"/>
<circle cx="369.1" cy="192.2" r="1.6"/>
<circle cx="369.1" cy="202" r="1.6"/>
<circle cx="369.1" cy="211.7" r="1.6"/>
<circle cx="369.1" cy="221.4" r="1.6"/>
<circle cx="369.1" cy="231.2" r="1.6"/>
<circle cx="359.4" cy="75.5" r="1.6"/>
<circle cx="359.4" cy="85.2" r="1.6"/>
<circle cx="359.4" cy="95" r="1.6"/>
<circle cx="359.4" cy="104.7" r="1.6"/>
<circle cx="359.4" cy="114.4" r="1.6"/>
<circle cx="359.4" cy="124.1" r="1.6"/>
<circle cx="359.4" cy="133.9" r="1.6"/>
<circle cx="359.4" cy="143.6" r="1.6"/>
<circle cx="359.4" cy="153.3" r="1.6"/>
<circle cx="359.4" cy="163.1" r="1.6"/>
<circle cx="359.4" cy="172.8" r="1.6"/>
<circle cx="359.4" cy="182.5" r="1.6"/>
<circle cx="359.4" cy="192.2" r="1.6"/>
<circle cx="359.4" cy="202" r="1.6"/>
<circle cx="359.4" cy="211.7" r="1.6"/>
<circle cx="359.4" cy="221.4" r="1.6"/>
<circle cx="359.4" cy="231.2" r="1.6"/>
<circle cx="349.6" cy="75.5" r="1.6"/>
<circle cx="349.6" cy="85.2" r="1.6"/>
<circle cx="349.6" cy="95" r="1.6"/>
<circle cx="349.6" cy="104.7" r="1.6"/>
<circle cx="349.6" cy="114.4" r="1.6"/>
<circle cx="349.6" cy="124.1" r="1.6"/>
<circle cx="349.6" cy="133.9" r="1.6"/>
<circle cx="349.6" cy="143.6" r="1.6"/>
<circle cx="349.6" cy="153.3" r="1.6"/>
<circle cx="349.6" cy="163.1" r="1.6"/>
<circle cx="349.6" cy="172.8" r="1.6"/>
<circle cx="349.6" cy="182.5" r="1.6"/>
<circle cx="349.6" cy="192.2" r="1.6"/>
<circle cx="349.6" cy="202" r="1.6"/>
<circle cx="349.6" cy="211.7" r="1.6"/>
<circle cx="349.6" cy="221.4" r="1.6"/>
<circle cx="349.6" cy="231.2" r="1.6"/>
<circle cx="339.9" cy="75.5" r="1.6"/>
<circle cx="339.9" cy="85.2" r="1.6"/>
<circle cx="339.9" cy="95" r="1.6"/>
<circle cx="339.9" cy="104.7" r="1.6"/>
<circle cx="339.9" cy="114.4" r="1.6"/>
<circle cx="339.9" cy="124.1" r="1.6"/>
<circle cx="339.9" cy="133.9" r="1.6"/>
<circle cx="339.9" cy="143.6" r="1.6"/>
<circle cx="339.9" cy="153.3" r="1.6"/>
<circle cx="339.9" cy="163.1" r="1.6"/>
<circle cx="339.9" cy="172.8" r="1.6"/>
<circle cx="339.9" cy="182.5" r="1.6"/>
<circle cx="339.9" cy="192.2" r="1.6"/>
<circle cx="339.9" cy="202" r="1.6"/>
<circle cx="339.9" cy="211.7" r="1.6"/>
<circle cx="339.9" cy="221.4" r="1.6"/>
<circle cx="339.9" cy="231.2" r="1.6"/>
<circle cx="330.2" cy="75.5" r="1.6"/>
<circle cx="330.2" cy="85.2" r="1.6"/>
<circle cx="330.2" cy="95" r="1.6"/>
<circle cx="330.2" cy="104.7" r="1.6"/>
<circle cx="330.2" cy="114.4" r="1.6"/>
<circle cx="330.2" cy="124.1" r="1.6"/>
<circle cx="330.2" cy="133.9" r="1.6"/>
<circle cx="330.2" cy="143.6" r="1.6"/>
<circle cx="330.2" cy="153.3" r="1.6"/>
<circle cx="330.2" cy="163.1" r="1.6"/>
<circle cx="330.2" cy="172.8" r="1.6"/>
<circle cx="330.2" cy="182.5" r="1.6"/>
<circle cx="330.2" cy="192.2" r="1.6"/>
<circle cx="330.2" cy="202" r="1.6"/>
<circle cx="330.2" cy="211.7" r="1.6"/>
<circle cx="330.2" cy="221.4" r="1.6"/>
<circle cx="330.2" cy="231.2" r="1.6"/>
<circle cx="320.5" cy="75.5" r="1.6"/>
<circle cx="320.5" cy="85.2" r="1.6"/>
<circle cx="320.5" cy="95" r="1.6"/>
<circle cx="320.5" cy="104.7" r="1.6"/>
<circle cx="320.5" cy="114.4" r="1.6"/>
<circle cx="320.5" cy="124.1" r="1.6"/>
<circle cx="320.5" cy="133.9" r="1.6"/>
<circle cx="320.5" cy="143.6" r="1.6"/>
<circle cx="320.5" cy="153.3" r="1.6"/>
<circle cx="320.5" cy="163.1" r="1.6"/>
<circle cx="320.5" cy="172.8" r="1.6"/>
<circle cx="320.5" cy="182.5" r="1.6"/>
<circle cx="320.5" cy="192.2" r="1.6"/>
<circle cx="320.5" cy="202" r="1.6"/>
<circle cx="320.5" cy="211.7" r="1.6"/>
<circle cx="320.5" cy="221.4" r="1.6"/>
<circle cx="320.5" cy="231.2" r="1.6"/>
<circle cx="310.7" cy="75.5" r="1.6"/>
<circle cx="310.7" cy="85.2" r="1.6"/>
<circle cx="310.7" cy="95" r="1.6"/>
<circle cx="310.7" cy="104.7" r="1.6"/>
<circle cx="310.7" cy="114.4" r="1.6"/>
<circle cx="310.7" cy="124.1" r="1.6"/>
<circle cx="310.7" cy="133.9" r="1.6"/>
<circle cx="310.7" cy="143.6" r="1.6"/>
<circle cx="310.7" cy="153.3" r="1.6"/>
<circle cx="310.7" cy="163.1" r="1.6"/>
<circle cx="310.7" cy="172.8" r="1.6"/>
<circle cx="310.7" cy="182.5" r="1.6"/>
<circle cx="310.7" cy="192.2" r="1.6"/>
<circle cx="310.7" cy="202" r="1.6"/>
<circle cx="310.7" cy="211.7" r="1.6"/>
<circle cx="310.7" cy="221.4" r="1.6"/>
<circle cx="310.7" cy="231.2" r="1.6"/>
<circle cx="301" cy="95" r="1.6"/>
<circle cx="301" cy="104.7" r="1.6"/>
<circle cx="301" cy="114.4" r="1.6"/>
<circle cx="301" cy="124.1" r="1.6"/>
<circle cx="301" cy="133.9" r="1.6"/>
<circle cx="301" cy="143.6" r="1.6"/>
<circle cx="301" cy="153.3" r="1.6"/>
<circle cx="301" cy="163.1" r="1.6"/>
<circle cx="301" cy="172.8" r="1.6"/>
<circle cx="301" cy="182.5" r="1.6"/>
<circle cx="301" cy="192.2" r="1.6"/>
<circle cx="301" cy="202" r="1.6"/>
<circle cx="301" cy="211.7" r="1.6"/>
<circle cx="301" cy="221.4" r="1.6"/>
<circle cx="301" cy="231.2" r="1.6"/>
<circle cx="291.3" cy="95" r="1.6"/>
<circle cx="291.3" cy="104.7" r="1.6"/>
<circle cx="291.3" cy="114.4" r="1.6"/>
<circle cx="291.3" cy="124.1" r="1.6"/>
<circle cx="291.3" cy="133.9" r="1.6"/>
<circle cx="291.3" cy="143.6" r="1.6"/>
<circle cx="291.3" cy="153.3" r="1.6"/>
<circle cx="291.3" cy="163.1" r="1.6"/>
<circle cx="291.3" cy="172.8" r="1.6"/>
<circle cx="291.3" cy="182.5" r="1.6"/>
<circle cx="291.3" cy="192.2" r="1.6"/>
<circle cx="291.3" cy="202" r="1.6"/>
<circle cx="291.3" cy="211.7" r="1.6"/>
<circle cx="291.3" cy="221.4" r="1.6"/>
<circle cx="291.3" cy="231.2" r="1.6"/>
<circle cx="281.5" cy="75.5" r="1.6"/>
<circle cx="281.5" cy="85.2" r="1.6"/>
<circle cx="281.5" cy="95" r="1.6"/>
<circle cx="281.5" cy="104.7" r="1.6"/>
<circle cx="281.5" cy="114.4" r="1.6"/>
<circle cx="281.5" cy="124.1" r="1.6"/>
<circle cx="281.5" cy="133.9" r="1.6"/>
<circle cx="281.5" cy="143.6" r="1.6"/>
<circle cx="281.5" cy="153.3" r="1.6"/>
<circle cx="281.5" cy="163.1" r="1.6"/>
<circle cx="281.5" cy="172.8" r="1.6"/>
<circle cx="281.5" cy="182.5" r="1.6"/>
<circle cx="281.5" cy="192.2" r="1.6"/>
<circle cx="281.5" cy="202" r="1.6"/>
<circle cx="281.5" cy="211.7" r="1.6"/>
<circle cx="281.5" cy="221.4" r="1.6"/>
<circle cx="281.5" cy="231.2" r="1.6"/>
<circle cx="271.8" cy="75.5" r="1.6"/>
<circle cx="271.8" cy="85.2" r="1.6"/>
<circle cx="271.8" cy="95" r="1.6"/>
<circle cx="271.8" cy="104.7" r="1.6"/>
<circle cx="271.8" cy="114.4" r="1.6"/>
<circle cx="271.8" cy="124.1" r="1.6"/>
<circle cx="271.8" cy="133.9" r="1.6"/>
<circle cx="271.8" cy="143.6" r="1.6"/>
<circle cx="271.8" cy="153.3" r="1.6"/>
<circle cx="271.8" cy="163.1" r="1.6"/>
<circle cx="271.8" cy="172.8" r="1.6"/>
<circle cx="271.8" cy="182.5" r="1.6"/>
<circle cx="271.8" cy="192.2" r="1.6"/>
<circle cx="271.8" cy="202" r="1.6"/>
<circle cx="271.8" cy="211.7" r="1.6"/>
<circle cx="271.8" cy="221.4" r="1.6"/>
<circle cx="271.8" cy="231.2" r="1.6"/>
<circle cx="262.1" cy="75.5" r="1.6"/>
<circle cx="262.1" cy="85.2" r="1.6"/>
<circle cx="262.1" cy="95" r="1.6"/>
<circle cx="262.1" cy="104.7" r="1.6"/>
<circle cx="262.1" cy="114.4" r="1.6"/>
<circle cx="262.1" cy="124.1" r="1.6"/>
<circle cx="262.1" cy="133.9" r="1.6"/>
<circle cx="262.1" cy="143.6" r="1.6"/>
<circle cx="262.1" cy="153.3" r="1.6"/>
<circle cx="262.1" cy="163.1" r="1.6"/>
<circle cx="262.1" cy="172.8" r="1.6"/>
<circle cx="262.1" cy="182.5" r="1.6"/>
<circle cx="262.1" cy="192.2" r="1.6"/>
<circle cx="262.1" cy="202" r="1.6"/>
<circle cx="262.1" cy="211.7" r="1.6"/>
<circle cx="262.1" cy="221.4" r="1.6"/>
<circle cx="262.1" cy="231.2" r="1.6"/>
<circle cx="252.4" cy="75.5" r="1.6"/>
<circle cx="252.4" cy="85.2" r="1.6"/>
<circle cx="252.4" cy="95" r="1.6"/>
<circle cx="252.4" cy="104.7" r="1.6"/>
<circle cx="252.4" cy="114.4" r="1.6"/>
<circle cx="252.4" cy="124.1" r="1.6"/>
<circle cx="252.4" cy="133.9" r="1.6"/>
<circle cx="252.4" cy="143.6" r="1.6"/>
<circle cx="252.4" cy="153.3" r="1.6"/>
<circle cx="252.4" cy="163.1" r="1.6"/>
<circle cx="252.4" cy="172.8" r="1.6"/>
<circle cx="252.4" cy="182.5" r="1.6"/>
<circle cx="252.4" cy="192.2" r="1.6"/>
<circle cx="252.4" cy="202" r="1.6"/>
<circle cx="252.4" cy="211.7" r="1.6"/>
<circle cx="252.4" cy="221.4" r="1.6"/>
<circle cx="242.6" cy="75.5" r="1.6"/>
<circle cx="242.6" cy="85.2" r="1.6"/>
<circle cx="242.6" cy="95" r="1.6"/>
<circle cx="242.6" cy="104.7" r="1.6"/>
<circle cx="242.6" cy="114.4" r="1.6"/>
<circle cx="242.6" cy="124.1" r="1.6"/>
<circle cx="242.6" cy="133.9" r="1.6"/>
<circle cx="242.6" cy="143.6" r="1.6"/>
<circle cx="242.6" cy="153.3" r="1.6"/>
<circle cx="242.6" cy="163.1" r="1.6"/>
<circle cx="242.6" cy="172.8" r="1.6"/>
<circle cx="242.6" cy="182.5" r="1.6"/>
<circle cx="242.6" cy="192.2" r="1.6"/>
<circle cx="242.6" cy="202" r="1.6"/>
<circle cx="242.6" cy="211.7" r="1.6"/>
<circle cx="242.6" cy="221.4" r="1.6"/>
<circle cx="232.9" cy="75.5" r="1.6"/>
<circle cx="232.9" cy="85.2" r="1.6"/>
<circle cx="232.9" cy="95" r="1.6"/>
<circle cx="232.9" cy="104.7" r="1.6"/>
<circle cx="232.9" cy="114.4" r="1.6"/>
<circle cx="232.9" cy="124.1" r="1.6"/>
<circle cx="232.9" cy="133.9" r="1.6"/>
<circle cx="232.9" cy="143.6" r="1.6"/>
<circle cx="232.9" cy="153.3" r="1.6"/>
<circle cx="232.9" cy="163.1" r="1.6"/>
<circle cx="249.9" cy="231.8" r="1.5"/>
<circle cx="232.9" cy="182.5" r="1.6"/>
<circle cx="232.9" cy="192.2" r="1.6"/>
<circle cx="232.9" cy="202" r="1.6"/>
<circle cx="232.9" cy="211.7" r="1.6"/>
<circle cx="232.9" cy="221.4" r="1.6"/>
<circle cx="223.2" cy="75.5" r="1.6"/>
<circle cx="223.2" cy="85.2" r="1.6"/>
<circle cx="223.2" cy="95" r="1.6"/>
<circle cx="223.2" cy="104.7" r="1.6"/>
<circle cx="223.2" cy="114.4" r="1.6"/>
<circle cx="223.2" cy="124.1" r="1.6"/>
<circle cx="223.2" cy="133.9" r="1.6"/>
<circle cx="223.2" cy="143.6" r="1.6"/>
<circle cx="223.2" cy="153.3" r="1.6"/>
<circle cx="223.2" cy="163.1" r="1.6"/>
<circle cx="223.2" cy="172.8" r="1.6"/>
<circle cx="223.2" cy="182.5" r="1.6"/>
<circle cx="223.2" cy="192.2" r="1.6"/>
<circle cx="223.2" cy="202" r="1.6"/>
<circle cx="223.2" cy="211.7" r="1.6"/>
<circle cx="223.2" cy="221.4" r="1.6"/>
<circle cx="213.5" cy="75.5" r="1.6"/>
<circle cx="213.5" cy="85.2" r="1.6"/>
<circle cx="213.5" cy="95" r="1.6"/>
<circle cx="213.5" cy="104.7" r="1.6"/>
<circle cx="213.5" cy="114.4" r="1.6"/>
<circle cx="213.5" cy="124.1" r="1.6"/>
<circle cx="213.5" cy="133.9" r="1.6"/>
<circle cx="213.5" cy="143.6" r="1.6"/>
<circle cx="213.5" cy="153.3" r="1.6"/>
<circle cx="213.5" cy="163.1" r="1.6"/>
<circle cx="213.5" cy="172.8" r="1.6"/>
<circle cx="213.5" cy="182.5" r="1.6"/>
<circle cx="213.5" cy="192.2" r="1.6"/>
<circle cx="213.5" cy="202" r="1.6"/>
<circle cx="213.5" cy="211.7" r="1.6"/>
<circle cx="203.7" cy="75.5" r="1.6"/>
<circle cx="203.7" cy="85.2" r="1.6"/>
<circle cx="203.7" cy="95" r="1.6"/>
<circle cx="203.7" cy="104.7" r="1.6"/>
<circle cx="203.7" cy="114.4" r="1.6"/>
<circle cx="203.7" cy="124.1" r="1.6"/>
<circle cx="203.7" cy="133.9" r="1.6"/>
<circle cx="203.7" cy="143.6" r="1.6"/>
<circle cx="203.7" cy="153.3" r="1.6"/>
<circle cx="203.7" cy="163.1" r="1.6"/>
<circle cx="203.7" cy="172.8" r="1.6"/>
<circle cx="203.7" cy="182.5" r="1.6"/>
<circle cx="203.7" cy="192.2" r="1.6"/>
<circle cx="203.7" cy="202" r="1.6"/>
<circle cx="203.7" cy="211.7" r="1.6"/>
<circle cx="194" cy="85.2" r="1.6"/>
<circle cx="194" cy="95" r="1.6"/>
<circle cx="194" cy="104.7" r="1.6"/>
<circle cx="194" cy="114.4" r="1.6"/>
<circle cx="194" cy="124.1" r="1.6"/>
<circle cx="194" cy="163.1" r="1.6"/>
<circle cx="194" cy="172.8" r="1.6"/>
<circle cx="194" cy="182.5" r="1.6"/>
<circle cx="194" cy="192.2" r="1.6"/>
<circle cx="194" cy="202" r="1.6"/>
<circle cx="184.3" cy="163.1" r="1.6"/>
<circle cx="184.3" cy="172.8" r="1.6"/>
<circle cx="184.3" cy="182.5" r="1.6"/>
<circle cx="184.3" cy="192.2" r="1.6"/>
<circle cx="184.3" cy="202" r="1.6"/>
<circle cx="670.6" cy="230.8" r="1.6"/>
<polyline class="st1" points="221.6,461.3 192.5,520.7 232.3,553.3 "/>
<polyline class="st1" points="659.9,628.4 713.2,678.9 694.1,703.5 "/>
<polyline class="st1" points="776.2,370.9 802.5,443.2 750.3,476.6 "/>
<polyline class="st1" points="390.2,337.2 390.2,413.8 436.2,461.3 "/>
<polyline class="st1" points="332.3,703.5 382.5,758.6 454.5,758.6 "/>
</svg>
