<?xml version="1.0" encoding="utf-8"?>
<!-- Generator: $$$/GeneralStr/196=Adobe Illustrator 27.6.0, SVG Export Plug-In . SVG Version: 6.00 Build 0)  -->
<svg version="1.1" id="b" xmlns="http://www.w3.org/2000/svg" xmlns:xlink="http://www.w3.org/1999/xlink" x="0px" y="0px"
	 viewBox="0 0 1000 830.5" style="enable-background:new 0 0 1000 830.5;" xml:space="preserve">
<style type="text/css">
	.st0{fill:#009770;}
	.st1{fill:#009770;stroke:#000000;stroke-width:3;stroke-linecap:round;stroke-linejoin:round;}
	.st2{fill:none;stroke:#000000;stroke-width:3;stroke-linecap:round;stroke-linejoin:round;}
</style>
<rect class="st0" width="1000" height="830.5"/>
<g>
	<path class="st1" d="M501.9,263v246.2c0,43.6,108.5,78.9,242.2,78.9s242.2-35.3,242.2-78.9V263"/>
	<ellipse class="st1" cx="744.1" cy="263" rx="242.2" ry="78.9"/>
	<g>
		<ellipse class="st1" cx="744.1" cy="263" rx="74.9" ry="26.4"/>
		<circle cx="817.2" cy="262" r="1.4"/>
		<circle cx="809" cy="253.8" r="1.4"/>
		<circle cx="809" cy="262" r="1.4"/>
		<circle cx="809" cy="270.2" r="1.4"/>
		<circle cx="800.8" cy="253.8" r="1.4"/>
		<circle cx="800.8" cy="262" r="1.4"/>
		<circle cx="800.8" cy="270.2" r="1.4"/>
		<circle cx="800.8" cy="278.5" r="1.4"/>
		<circle cx="792.7" cy="245.6" r="1.4"/>
		<circle cx="792.7" cy="253.8" r="1.4"/>
		<circle cx="792.7" cy="262" r="1.4"/>
		<circle cx="792.7" cy="270.2" r="1.4"/>
		<circle cx="792.7" cy="278.5" r="1.4"/>
		<circle cx="784.4" cy="245.6" r="1.4"/>
		<circle cx="784.4" cy="253.8" r="1.4"/>
		<circle cx="784.4" cy="262" r="1.4"/>
		<circle cx="784.4" cy="270.2" r="1.4"/>
		<circle cx="784.4" cy="278.5" r="1.4"/>
		<circle cx="776.2" cy="245.6" r="1.4"/>
		<circle cx="776.2" cy="253.8" r="1.4"/>
		<circle cx="776.2" cy="262" r="1.4"/>
		<circle cx="776.2" cy="270.2" r="1.4"/>
		<circle cx="776.2" cy="278.5" r="1.4"/>
		<circle cx="776.2" cy="286" r="1.4"/>
		<circle cx="768" cy="245.6" r="1.4"/>
		<circle cx="768" cy="253.8" r="1.4"/>
		<circle cx="768" cy="262" r="1.4"/>
		<circle cx="768" cy="270.2" r="1.4"/>
		<circle cx="768" cy="278.5" r="1.4"/>
		<circle cx="768" cy="286.6" r="1.4"/>
		<circle cx="759.9" cy="245.6" r="1.4"/>
		<circle cx="759.9" cy="253.8" r="1.4"/>
		<circle cx="759.9" cy="262" r="1.4"/>
		<circle cx="759.9" cy="270.2" r="1.4"/>
		<circle cx="759.9" cy="278.5" r="1.4"/>
		<circle cx="759.9" cy="286.6" r="1.4"/>
		<circle cx="751.6" cy="237.5" r="1.4"/>
		<circle cx="751.6" cy="245.6" r="1.4"/>
		<circle cx="751.6" cy="253.8" r="1.4"/>
		<circle cx="751.6" cy="262" r="1.4"/>
		<circle cx="751.6" cy="270.2" r="1.4"/>
		<circle cx="751.6" cy="278.5" r="1.4"/>
		<circle cx="751.6" cy="286.6" r="1.4"/>
		<circle cx="743.4" cy="237.5" r="1.4"/>
		<circle cx="743.4" cy="245.6" r="1.4"/>
		<circle cx="743.4" cy="253.8" r="1.4"/>
		<circle cx="743.4" cy="262" r="1.4"/>
		<circle cx="743.4" cy="270.2" r="1.4"/>
		<circle cx="743.4" cy="278.5" r="1.4"/>
		<circle cx="743.4" cy="286.6" r="1.4"/>
		<circle cx="735.2" cy="237.5" r="1.4"/>
		<circle cx="735.2" cy="245.6" r="1.4"/>
		<circle cx="735.2" cy="253.8" r="1.4"/>
		<circle cx="735.2" cy="262" r="1.4"/>
		<circle cx="735.2" cy="270.2" r="1.4"/>
		<circle cx="735.2" cy="278.5" r="1.4"/>
		<circle cx="735.2" cy="286.6" r="1.4"/>
		<circle cx="727" cy="245.6" r="1.4"/>
		<circle cx="727" cy="253.8" r="1.4"/>
		<circle cx="727" cy="262" r="1.4"/>
		<circle cx="727" cy="270.2" r="1.4"/>
		<circle cx="727" cy="278.5" r="1.4"/>
		<circle cx="727" cy="286.6" r="1.4"/>
		<circle cx="718.8" cy="245.6" r="1.4"/>
		<circle cx="718.8" cy="253.8" r="1.4"/>
		<circle cx="718.8" cy="262" r="1.4"/>
		<circle cx="718.8" cy="270.2" r="1.4"/>
		<circle cx="718.8" cy="278.5" r="1.4"/>
		<circle cx="718.8" cy="286.6" r="1.4"/>
		<circle cx="710.6" cy="245.6" r="1.4"/>
		<circle cx="710.6" cy="253.8" r="1.4"/>
		<circle cx="710.6" cy="262" r="1.4"/>
		<circle cx="710.6" cy="270.2" r="1.4"/>
		<circle cx="710.6" cy="278.5" r="1.4"/>
		<circle cx="702.4" cy="245.6" r="1.4"/>
		<circle cx="702.4" cy="253.8" r="1.4"/>
		<circle cx="702.4" cy="262" r="1.4"/>
		<circle cx="702.4" cy="270.2" r="1.4"/>
		<circle cx="702.4" cy="278.5" r="1.4"/>
		<circle cx="694.1" cy="245.6" r="1.4"/>
		<circle cx="694.1" cy="253.8" r="1.4"/>
		<circle cx="694.1" cy="262" r="1.4"/>
		<circle cx="694.1" cy="270.2" r="1.4"/>
		<circle cx="694.1" cy="278.5" r="1.4"/>
		<circle cx="686" cy="253.8" r="1.4"/>
		<circle cx="686" cy="262" r="1.4"/>
		<circle cx="686" cy="270.2" r="1.4"/>
		<circle cx="686" cy="278.5" r="1.4"/>
		<circle cx="677.7" cy="253.8" r="1.4"/>
		<circle cx="677.7" cy="262" r="1.4"/>
		<circle cx="677.7" cy="270.2" r="1.4"/>
		<circle cx="669.6" cy="262" r="1.4"/>
	</g>
	<g>
		<path class="st2" d="M987,280.3c0,0-168.3,263-483,114.1"/>
		<path class="st2" d="M986.7,389c0,0-181.5,232-481.4,7.6"/>
		<path class="st2" d="M986.9,494.8c0,0-165.9,207.9-481.1-97.8"/>
		<path class="st2" d="M849.5,563.8c0,0-241.7,42.6-346.9-114.5"/>
		<path class="st2" d="M502.7,282.3c0,0,4.9,109.8,276.8,145.6"/>
	</g>
</g>
<path class="st2" d="M501,364.8"/>
<g>
	<path class="st1" d="M17.7,263v246.2c0,43.6,108.5,78.9,242.2,78.9s242.2-35.3,242.2-78.9V263"/>
	<ellipse class="st1" cx="259.9" cy="263" rx="242.2" ry="78.9"/>
	<g>
		<ellipse class="st1" cx="259.9" cy="263" rx="74.9" ry="26.4"/>
		<circle cx="332.9" cy="262" r="1.4"/>
		<circle cx="324.8" cy="253.8" r="1.4"/>
		<circle cx="324.8" cy="262" r="1.4"/>
		<circle cx="324.8" cy="270.2" r="1.4"/>
		<circle cx="316.6" cy="253.8" r="1.4"/>
		<circle cx="316.6" cy="262" r="1.4"/>
		<circle cx="316.6" cy="270.2" r="1.4"/>
		<circle cx="316.6" cy="278.5" r="1.4"/>
		<circle cx="308.4" cy="245.6" r="1.4"/>
		<circle cx="308.4" cy="253.8" r="1.4"/>
		<circle cx="308.4" cy="262" r="1.4"/>
		<circle cx="308.4" cy="270.2" r="1.4"/>
		<circle cx="308.4" cy="278.5" r="1.4"/>
		<circle cx="300.2" cy="245.6" r="1.4"/>
		<circle cx="300.2" cy="253.8" r="1.4"/>
		<circle cx="300.2" cy="262" r="1.4"/>
		<circle cx="300.2" cy="270.2" r="1.4"/>
		<circle cx="300.2" cy="278.5" r="1.4"/>
		<circle cx="291.9" cy="245.6" r="1.4"/>
		<circle cx="291.9" cy="253.8" r="1.4"/>
		<circle cx="291.9" cy="262" r="1.4"/>
		<circle cx="291.9" cy="270.2" r="1.4"/>
		<circle cx="291.9" cy="278.5" r="1.4"/>
		<circle cx="291.9" cy="286" r="1.4"/>
		<circle cx="283.8" cy="245.6" r="1.4"/>
		<circle cx="283.8" cy="253.8" r="1.4"/>
		<circle cx="283.8" cy="262" r="1.4"/>
		<circle cx="283.8" cy="270.2" r="1.4"/>
		<circle cx="283.8" cy="278.5" r="1.4"/>
		<circle cx="283.8" cy="286.6" r="1.4"/>
		<circle cx="275.6" cy="245.6" r="1.4"/>
		<circle cx="275.6" cy="253.8" r="1.4"/>
		<circle cx="275.6" cy="262" r="1.4"/>
		<circle cx="275.6" cy="270.2" r="1.4"/>
		<circle cx="275.6" cy="278.5" r="1.4"/>
		<circle cx="275.6" cy="286.6" r="1.4"/>
		<circle cx="267.4" cy="237.5" r="1.4"/>
		<circle cx="267.4" cy="245.6" r="1.4"/>
		<circle cx="267.4" cy="253.8" r="1.4"/>
		<circle cx="267.4" cy="262" r="1.4"/>
		<circle cx="267.4" cy="270.2" r="1.4"/>
		<circle cx="267.4" cy="278.5" r="1.4"/>
		<circle cx="267.4" cy="286.6" r="1.4"/>
		<circle cx="259.1" cy="237.5" r="1.4"/>
		<circle cx="259.1" cy="245.6" r="1.4"/>
		<circle cx="259.1" cy="253.8" r="1.4"/>
		<circle cx="259.1" cy="262" r="1.4"/>
		<circle cx="259.1" cy="270.2" r="1.4"/>
		<circle cx="259.1" cy="278.5" r="1.4"/>
		<circle cx="259.1" cy="286.6" r="1.4"/>
		<circle cx="251" cy="237.5" r="1.4"/>
		<circle cx="251" cy="245.6" r="1.4"/>
		<circle cx="251" cy="253.8" r="1.4"/>
		<circle cx="251" cy="262" r="1.4"/>
		<circle cx="251" cy="270.2" r="1.4"/>
		<circle cx="251" cy="278.5" r="1.4"/>
		<circle cx="251" cy="286.6" r="1.4"/>
		<circle cx="242.8" cy="245.6" r="1.4"/>
		<circle cx="242.8" cy="253.8" r="1.4"/>
		<circle cx="242.8" cy="262" r="1.4"/>
		<circle cx="242.8" cy="270.2" r="1.4"/>
		<circle cx="242.8" cy="278.5" r="1.4"/>
		<circle cx="242.8" cy="286.6" r="1.4"/>
		<circle cx="234.5" cy="245.6" r="1.4"/>
		<circle cx="234.5" cy="253.8" r="1.4"/>
		<circle cx="234.5" cy="262" r="1.4"/>
		<circle cx="234.5" cy="270.2" r="1.4"/>
		<circle cx="234.5" cy="278.5" r="1.4"/>
		<circle cx="234.5" cy="286.6" r="1.4"/>
		<circle cx="226.3" cy="245.6" r="1.4"/>
		<circle cx="226.3" cy="253.8" r="1.4"/>
		<circle cx="226.3" cy="262" r="1.4"/>
		<circle cx="226.3" cy="270.2" r="1.4"/>
		<circle cx="226.3" cy="278.5" r="1.4"/>
		<circle cx="218.1" cy="245.6" r="1.4"/>
		<circle cx="218.1" cy="253.8" r="1.4"/>
		<circle cx="218.1" cy="262" r="1.4"/>
		<circle cx="218.1" cy="270.2" r="1.4"/>
		<circle cx="218.1" cy="278.5" r="1.4"/>
		<circle cx="209.9" cy="245.6" r="1.4"/>
		<circle cx="209.9" cy="253.8" r="1.4"/>
		<circle cx="209.9" cy="262" r="1.4"/>
		<circle cx="209.9" cy="270.2" r="1.4"/>
		<circle cx="209.9" cy="278.5" r="1.4"/>
		<circle cx="201.7" cy="253.8" r="1.4"/>
		<circle cx="201.7" cy="262" r="1.4"/>
		<circle cx="201.7" cy="270.2" r="1.4"/>
		<circle cx="201.7" cy="278.5" r="1.4"/>
		<circle cx="193.5" cy="253.8" r="1.4"/>
		<circle cx="193.5" cy="262" r="1.4"/>
		<circle cx="193.5" cy="270.2" r="1.4"/>
		<circle cx="185.3" cy="262" r="1.4"/>
	</g>
	<path class="st2" d="M16.8,367.9"/>
	<g>
		<path class="st2" d="M17,284.7c0,0,168.3,263,483,114.1"/>
		<path class="st2" d="M17.3,393.4c0,0,181.5,232,481.4,7.6"/>
		<path class="st2" d="M17.1,499.3c0,0,165.9,207.9,481.1-97.8"/>
		<path class="st2" d="M154.5,568.3c0,0,241.7,42.6,346.9-114.5"/>
		<path class="st2" d="M501.4,286.7c0,0-4.9,109.8-276.8,145.6"/>
	</g>
</g>
<path class="st1" d="M254.7,419.1v246.2c0,43.6,108.5,78.9,242.2,78.9s242.2-35.3,242.2-78.9V419.1"/>
<ellipse class="st1" cx="496.9" cy="419.1" rx="242.2" ry="78.9"/>
<g>
	<ellipse class="st1" cx="496.9" cy="419.1" rx="74.9" ry="26.4"/>
	<circle cx="569.9" cy="418.1" r="1.4"/>
	<circle cx="561.8" cy="409.9" r="1.4"/>
	<circle cx="561.8" cy="418.1" r="1.4"/>
	<circle cx="561.8" cy="426.4" r="1.4"/>
	<circle cx="553.6" cy="409.9" r="1.4"/>
	<circle cx="553.6" cy="418.1" r="1.4"/>
	<circle cx="553.6" cy="426.4" r="1.4"/>
	<circle cx="553.6" cy="434.6" r="1.4"/>
	<circle cx="545.4" cy="401.7" r="1.4"/>
	<circle cx="545.4" cy="409.9" r="1.4"/>
	<circle cx="545.4" cy="418.1" r="1.4"/>
	<circle cx="545.4" cy="426.4" r="1.4"/>
	<circle cx="545.4" cy="434.6" r="1.4"/>
	<circle cx="537.1" cy="401.7" r="1.4"/>
	<circle cx="537.1" cy="409.9" r="1.4"/>
	<circle cx="537.1" cy="418.1" r="1.4"/>
	<circle cx="537.1" cy="426.4" r="1.4"/>
	<circle cx="537.1" cy="434.6" r="1.4"/>
	<circle cx="528.9" cy="401.7" r="1.4"/>
	<circle cx="528.9" cy="409.9" r="1.4"/>
	<circle cx="528.9" cy="418.1" r="1.4"/>
	<circle cx="528.9" cy="426.4" r="1.4"/>
	<circle cx="528.9" cy="434.6" r="1.4"/>
	<circle cx="528.9" cy="442.1" r="1.4"/>
	<circle cx="520.8" cy="401.7" r="1.4"/>
	<circle cx="520.8" cy="409.9" r="1.4"/>
	<circle cx="520.8" cy="418.1" r="1.4"/>
	<circle cx="520.8" cy="426.4" r="1.4"/>
	<circle cx="520.8" cy="434.6" r="1.4"/>
	<circle cx="520.8" cy="442.7" r="1.4"/>
	<path d="M512.6,400.3c0.8,0,1.4,0.6,1.4,1.4s-0.6,1.4-1.4,1.4s-1.4-0.6-1.4-1.4S511.8,400.3,512.6,400.3z"/>
	<path d="M512.6,408.5c0.8,0,1.4,0.6,1.4,1.4s-0.6,1.4-1.4,1.4s-1.4-0.6-1.4-1.4S511.8,408.5,512.6,408.5z"/>
	<path d="M512.6,416.7c0.8,0,1.4,0.6,1.4,1.4s-0.6,1.4-1.4,1.4s-1.4-0.6-1.4-1.4S511.8,416.7,512.6,416.7z"/>
	<path d="M512.6,425c0.8,0,1.4,0.6,1.4,1.4s-0.6,1.4-1.4,1.4s-1.4-0.6-1.4-1.4S511.8,425,512.6,425z"/>
	<path d="M512.6,433.2c0.8,0,1.4,0.6,1.4,1.4s-0.6,1.4-1.4,1.4s-1.4-0.6-1.4-1.4S511.8,433.2,512.6,433.2z"/>
	<path d="M512.6,441.3c0.8,0,1.4,0.6,1.4,1.4s-0.6,1.4-1.4,1.4s-1.4-0.6-1.4-1.4S511.8,441.3,512.6,441.3z"/>
	<circle cx="504.4" cy="393.6" r="1.4"/>
	<circle cx="504.4" cy="401.7" r="1.4"/>
	<circle cx="504.4" cy="409.9" r="1.4"/>
	<circle cx="504.4" cy="418.1" r="1.4"/>
	<circle cx="504.4" cy="426.4" r="1.4"/>
	<circle cx="504.4" cy="434.6" r="1.4"/>
	<circle cx="504.4" cy="442.7" r="1.4"/>
	<circle cx="496.1" cy="393.6" r="1.4"/>
	<circle cx="496.1" cy="401.7" r="1.4"/>
	<circle cx="496.1" cy="409.9" r="1.4"/>
	<circle cx="496.1" cy="418.1" r="1.4"/>
	<circle cx="496.1" cy="426.4" r="1.4"/>
	<circle cx="496.1" cy="434.6" r="1.4"/>
	<circle cx="496.1" cy="442.7" r="1.4"/>
	<circle cx="488" cy="393.6" r="1.4"/>
	<circle cx="488" cy="401.7" r="1.4"/>
	<circle cx="488" cy="409.9" r="1.4"/>
	<circle cx="488" cy="418.1" r="1.4"/>
	<circle cx="488" cy="426.4" r="1.4"/>
	<circle cx="488" cy="434.6" r="1.4"/>
	<circle cx="488" cy="442.7" r="1.4"/>
	<circle cx="479.8" cy="401.7" r="1.4"/>
	<circle cx="479.8" cy="409.9" r="1.4"/>
	<circle cx="479.8" cy="418.1" r="1.4"/>
	<circle cx="479.8" cy="426.4" r="1.4"/>
	<circle cx="479.8" cy="434.6" r="1.4"/>
	<circle cx="479.8" cy="442.7" r="1.4"/>
	<circle cx="471.5" cy="401.7" r="1.4"/>
	<circle cx="471.5" cy="409.9" r="1.4"/>
	<circle cx="471.5" cy="418.1" r="1.4"/>
	<circle cx="471.5" cy="426.4" r="1.4"/>
	<circle cx="471.5" cy="434.6" r="1.4"/>
	<circle cx="471.5" cy="442.7" r="1.4"/>
	<circle cx="463.3" cy="401.7" r="1.4"/>
	<circle cx="463.3" cy="409.9" r="1.4"/>
	<circle cx="463.3" cy="418.1" r="1.4"/>
	<circle cx="463.3" cy="426.4" r="1.4"/>
	<circle cx="463.3" cy="434.6" r="1.4"/>
	<circle cx="455.1" cy="401.7" r="1.4"/>
	<circle cx="455.1" cy="409.9" r="1.4"/>
	<circle cx="455.1" cy="418.1" r="1.4"/>
	<circle cx="455.1" cy="426.4" r="1.4"/>
	<circle cx="455.1" cy="434.6" r="1.4"/>
	<circle cx="446.9" cy="401.7" r="1.4"/>
	<circle cx="446.9" cy="409.9" r="1.4"/>
	<circle cx="446.9" cy="418.1" r="1.4"/>
	<circle cx="446.9" cy="426.4" r="1.4"/>
	<circle cx="446.9" cy="434.6" r="1.4"/>
	<circle cx="438.7" cy="409.9" r="1.4"/>
	<circle cx="438.7" cy="418.1" r="1.4"/>
	<circle cx="438.7" cy="426.4" r="1.4"/>
	<circle cx="438.7" cy="434.6" r="1.4"/>
	<circle cx="430.5" cy="409.9" r="1.4"/>
	<circle cx="430.5" cy="418.1" r="1.4"/>
	<circle cx="430.5" cy="426.4" r="1.4"/>
	<circle cx="422.3" cy="418.1" r="1.4"/>
</g>
<path class="st2" d="M253.8,524"/>
<g>
	<path class="st2" d="M255.2,429.9c0,0,168.3,263,483,114.1"/>
	<path class="st2" d="M255.4,538.6c0,0,181.5,232,481.4,7.6"/>
	<path class="st2" d="M255.2,644.5c0,0,165.9,207.9,481.1-97.8"/>
	<path class="st2" d="M392.6,713.4c0,0,241.7,42.6,346.9-114.5"/>
	<path class="st2" d="M739.5,431.9c0,0-4.9,109.8-276.8,145.6"/>
</g>
<path class="st1" d="M732.8,717.1c-16.5-18.3-26.1-17.5-36.9-238.6c-3.1-63.7-98.6-64.1-143.2-60.8c-11.6,0.9-19.3,12.3-15.7,23.4
	l0,0c0,0,127.7-6.4,134.7,31.6s13.4,170.5,17.4,207.5c1.6,14.4,11.6,32.9,17.8,41.8L732.8,717.1z"/>
<path class="st1" d="M718.6,737.7c19.1,19.9,42.8,31.4,26.2,52.3c-7.2,9.2-20.4,12-36.9,11.6c-27-0.7-38.6-39.4-15.9-54
	c15.6-10,44.1-16.5,95.4-12.2c4.7,0.4,9.1-2.4,10.8-6.8l0,0c2.7-7-2.4-14.4-9.9-14.5c-126.4-1.5-138.8,42.3-131.5,68.2
	c4.9,17.5,21.5,32.8,45.9,35.5c50.1,5.6,70.7-20.2,70.7-45.5c0-15.9-14.4-24.7-27.8-37.7"/>
<path class="st2" d="M255.6,457.5"/>
<path class="st2" d="M252.4,612.1"/>
</svg>
