<?xml version="1.0" encoding="utf-8"?>
<!-- Generator: Adobe Illustrator 27.3.1, SVG Export Plug-In . SVG Version: 6.00 Build 0)  -->
<svg version="1.1" id="Layer_1" xmlns="http://www.w3.org/2000/svg" xmlns:xlink="http://www.w3.org/1999/xlink" x="0px" y="0px"
	 viewBox="0 0 196.5 90.2" style="enable-background:new 0 0 196.5 90.2;" xml:space="preserve">
<style type="text/css">
	.st0{fill-rule:evenodd;clip-rule:evenodd;fill:#009770;}
	.st1{fill:#009770;}
</style>
<path class="st0" d="M105.3,21.2c1.5,0,2.8,1.3,2.8,3c0,1.7-1.2,3-2.8,3s-2.8-1.3-2.8-3C102.5,22.6,103.7,21.2,105.3,21.2z
	 M60.9,21.2c1.5,0,2.8,1.3,2.8,3c0,1.7-1.2,3-2.8,3s-2.8-1.3-2.8-3C58.1,22.6,59.4,21.2,60.9,21.2z M34.2,20l-0.5,13.1l-2.5,0.2
	l0.2,4.4l2.8,0l0.1,18c0,10.1,3.7,12.9,12.2,12.2l0.2-3.9c-3-0.5-7.6,1.8-7.9-9.2l0.1-17.2l9.8,0.1v-4.2L39,32.9l-0.1-12.8L34.2,20
	L34.2,20z M79.1,10.1L79.2,33h-2.9l0.1,4.6l2.8,0.1V68l5.1-0.1l0-30.3h9.3l0-4.5l-9.5-0.3l-0.1-20.8c-0.1-7.2,4.1-7.3,6.4-7.3
	L90.4,0C82.8,0.1,79.1,3.5,79.1,10.1L79.1,10.1z M58.8,67.8l4.7-0.1V32.9l-4.8,0.2L58.8,67.8z M196.4,68V46.9
	c0-7.2-1.5-11.8-11-14.3c-8.8-1.7-14,0.2-18.6,5.3c-3.8-5.7-13.3-7-19.5-4.5c-2.7,0.8-4.7,4.2-4.7,0.5v-0.8l-4.5,0.2L138,67.9h5
	l-0.3-20c0.3-6.6,3.8-10.5,10.4-11.1c7.9-0.3,11.6,4.7,11.7,11.5L165,68l4.6,0l0-19.2c0-6.3,1.7-9.2,6-10.8
	c12.3-3.7,15.8,3.7,15.8,12.4l0.4,17.6L196.4,68L196.4,68z M121.9,0.2v67.5l4.8,0.1l-0.2-67.6L121.9,0.2L121.9,0.2z M103.1,67.8
	l4.6,0l0.1-34.7l-4.9,0.1L103.1,67.8z M0.1,15.2l0.1,5.6l2.2,0L2.6,40c0,16.3,2.5,28,24.2,28.1l0-4.6C10.4,63.5,8.1,53.8,7.9,40.9
	c-0.1-6.1,0-14.7-0.1-20l18.9,0v-5.5l-9,0.1H7.9l0-6.3c6.3,0,12.7-0.1,19-0.1l-0.1-5.3C18.8,3.6,10.5,3.7,2.6,3.7L2.5,15.1L0.1,15.2
	L0.1,15.2z"/>
<path class="st1" d="M195.9,74.7H5.1v3.2h190.8V74.7z"/>
<path class="st0" d="M133.4,3.7h62.5v3.2h-62.5V3.7z M97.9,3.7h18.2v3.2H97.9V3.7z M34.5,3.7h38.7v3.2H34.5V3.7z"/>
<path class="st1" d="M191.5,83.1H187v2.3h4.1c0.6,0,1,0.1,1.2,0.4c0.2,0.3,0.3,0.8,0.3,1.5v0.9c0,0.8-0.1,1.3-0.3,1.6
	c-0.2,0.3-0.6,0.4-1.2,0.4h-3.8c-0.6,0-1-0.1-1.2-0.4c-0.2-0.3-0.3-0.8-0.3-1.5V88l1-0.3V89h4.8v-2.5h-4c-0.6,0-1-0.1-1.2-0.4
	c-0.2-0.3-0.3-0.8-0.3-1.5v-0.7c0-0.8,0.1-1.3,0.3-1.5c0.2-0.3,0.6-0.4,1.2-0.4h3.4c0.6,0,1,0.1,1.2,0.4c0.2,0.3,0.3,0.7,0.3,1.4
	v0.2l-0.9,0.3V83.1z M177.2,90.2v-8.3h6.2V83h-5.1v2.3h3.1v1.1h-3.1v2.6h5.2v1.1L177.2,90.2L177.2,90.2z M169.1,90.2v-8.3h1.1V89
	h4.9v1.2H169.1z M158.8,90.2l3.5-8.3h1.2l3.6,8.3h-1.2l-0.8-2h-4.4l-0.8,2H158.8z M161.1,87.1h3.5l-1.7-4.2L161.1,87.1z M155.6,90.2
	v-8.3h1.1v8.3H155.6z M146.1,90.2v-8.3h5.2c0.5,0,0.8,0.1,1,0.4c0.2,0.3,0.3,0.7,0.3,1.2v1.8c0,0.6-0.1,1-0.3,1.2
	c-0.2,0.3-0.6,0.4-1,0.4h-0.9l2.9,3.2h-1.6l-2.6-3.2h-1.9v3.2H146.1z M150.9,83h-3.7v2.9h3.7c0.3,0,0.5-0.1,0.5-0.2
	c0.1-0.1,0.1-0.3,0.1-0.7v-1.2c0-0.3-0.1-0.5-0.1-0.7C151.3,83.1,151.1,83,150.9,83z M141.3,83.1v7.2h-1.1v-7.2h-2.9v-1.1h7v1.1
	H141.3L141.3,83.1z M134.6,83.1H130v2.3h4.1c0.6,0,1,0.1,1.2,0.4c0.2,0.3,0.3,0.8,0.3,1.5v0.9c0,0.8-0.1,1.3-0.3,1.6
	c-0.2,0.3-0.6,0.4-1.2,0.4h-3.8c-0.6,0-1-0.1-1.2-0.4c-0.2-0.3-0.3-0.8-0.3-1.5V88l1-0.3V89h4.8v-2.5h-4c-0.6,0-1-0.1-1.2-0.4
	c-0.2-0.3-0.3-0.8-0.3-1.5v-0.7c0-0.8,0.1-1.3,0.3-1.5c0.2-0.3,0.6-0.4,1.2-0.4h3.4c0.6,0,1,0.1,1.2,0.4c0.2,0.3,0.3,0.7,0.3,1.4
	v0.2l-0.9,0.3L134.6,83.1L134.6,83.1z M120,81.9V89h4.7v-7.1h1.1v6.3c0,0.8-0.1,1.3-0.3,1.6c-0.2,0.3-0.6,0.4-1.2,0.4h-3.8
	c-0.6,0-1-0.1-1.2-0.4c-0.2-0.3-0.3-0.8-0.3-1.5v-6.3H120z M112.4,81.9c0.6,0,1.1,0.1,1.5,0.2c0.4,0.1,0.7,0.3,1,0.5
	c0.4,0.3,0.7,0.8,1,1.4c0.2,0.6,0.4,1.3,0.4,2c0,0.8-0.1,1.5-0.3,2.1c-0.2,0.6-0.6,1.1-1,1.5c-0.3,0.2-0.6,0.4-1,0.5
	c-0.4,0.1-0.9,0.2-1.5,0.2h-3.5v-8.3L112.4,81.9L112.4,81.9z M112.2,83.1h-2.3v6h2.3c1,0,1.8-0.2,2.2-0.7c0.4-0.5,0.6-1.2,0.6-2.3
	c0-1.1-0.2-1.8-0.7-2.3C114,83.3,113.3,83.1,112.2,83.1L112.2,83.1z M98.4,90.2v-8.3h0.7l4.8,5.5c0.1,0.1,0.2,0.3,0.4,0.5
	c0.1,0.2,0.2,0.4,0.4,0.6c0-0.3-0.1-0.5-0.1-0.8c0-0.3,0-0.7,0-1.2v-4.5h1v8.3h-0.6l-4.9-5.8c0,0-0.1-0.1-0.1-0.1
	c-0.2-0.3-0.4-0.6-0.5-0.8c0,0.2,0,0.5,0.1,0.8c0,0.3,0,0.6,0,1v4.9H98.4L98.4,90.2z M94,90.2v-8.3h1.1v8.3H94z M85.1,83.1h-4.6v2.3
	h4.1c0.6,0,1,0.1,1.2,0.4c0.2,0.3,0.3,0.8,0.3,1.5v0.9c0,0.8-0.1,1.3-0.3,1.6c-0.2,0.3-0.6,0.4-1.2,0.4h-3.8c-0.6,0-1-0.1-1.2-0.4
	c-0.2-0.3-0.3-0.8-0.3-1.5V88l1-0.3V89h4.8v-2.5h-4c-0.6,0-1-0.1-1.2-0.4c-0.2-0.3-0.3-0.8-0.3-1.5v-0.7c0-0.8,0.1-1.3,0.3-1.5
	c0.2-0.3,0.6-0.4,1.2-0.4h3.4c0.6,0,1,0.1,1.2,0.4c0.2,0.3,0.3,0.7,0.3,1.4v0.2l-0.9,0.3V83.1z M70.8,90.2v-8.3H77V83h-5.1v2.3H75
	v1.1h-3.1v2.6H77v1.1L70.8,90.2L70.8,90.2z M63.4,90.2c-0.6,0-1-0.1-1.2-0.4c-0.2-0.3-0.3-0.8-0.3-1.6v-1.6l1.1-0.3V89h3.5v-7.1h1.1
	v6.3c0,0.8-0.1,1.3-0.3,1.5c-0.2,0.3-0.6,0.4-1.2,0.4H63.4z M52,90.2l3.5-8.3h1.2l3.6,8.3h-1.2l-0.8-2h-4.4l-0.8,2H52z M54.4,87.1
	h3.5l-1.7-4.2L54.4,87.1z M44.9,90.2v-8.3H46V89h4.9v1.2H44.9z M34.6,90.2l3.5-8.3h1.2l3.6,8.3h-1.2l-0.8-2h-4.4l-0.8,2H34.6
	L34.6,90.2z M36.9,87.1h3.5l-1.7-4.2L36.9,87.1z M26.3,90.2v-8.3h5.2c0.5,0,0.8,0.1,1,0.4c0.2,0.3,0.3,0.7,0.3,1.2v1
	c0,0.4-0.1,0.8-0.3,1c-0.2,0.2-0.4,0.4-0.8,0.4c0.4,0.1,0.6,0.2,0.8,0.5c0.2,0.3,0.3,0.6,0.3,1.1v1.1c0,0.6-0.1,1-0.4,1.2
	c-0.3,0.3-0.7,0.4-1.3,0.4L26.3,90.2L26.3,90.2z M31.7,84.6v-0.8c0-0.3,0-0.5-0.1-0.6c-0.1-0.1-0.3-0.2-0.5-0.2h-3.7v2.3h3.7
	c0.3,0,0.4-0.1,0.5-0.2C31.7,85.1,31.7,84.9,31.7,84.6z M31.8,88.1v-0.7c0-0.4-0.1-0.6-0.2-0.8c-0.1-0.1-0.3-0.2-0.6-0.2h-3.7v2.7
	h3.7c0.3,0,0.5-0.1,0.6-0.2C31.7,88.7,31.8,88.5,31.8,88.1L31.8,88.1z M15.9,83.4c0,0.2,0,0.3,0,0.5c0,0.2,0,0.4,0,0.7v5.6H15v-8.3
	h0.9l3.1,5.4l2.9-5.4h1v8.3h-1v-5.6c0-0.1,0-0.3,0-0.6c0-0.3,0-0.5,0-0.7c-0.1,0.2-0.2,0.4-0.2,0.5c-0.1,0.1-0.1,0.3-0.2,0.4
	l-2.5,4.6h-0.3l-2.6-4.5c0,0,0,0,0-0.1C16.1,84,16,83.7,15.9,83.4L15.9,83.4z M6.2,90.2v-8.3h6.2V83H7.3v2.3h3.1v1.1H7.3v2.6h5.2
	v1.1L6.2,90.2L6.2,90.2z"/>
</svg>
