<?xml version="1.0" encoding="utf-8"?>
<!-- Generator: $$$/GeneralStr/196=Adobe Illustrator 27.6.0, SVG Export Plug-In . SVG Version: 6.00 Build 0)  -->
<svg version="1.1" id="b" xmlns="http://www.w3.org/2000/svg" xmlns:xlink="http://www.w3.org/1999/xlink" x="0px" y="0px"
	 viewBox="0 0 984.6 908.6" style="enable-background:new 0 0 984.6 908.6;" xml:space="preserve">
<style type="text/css">
	.st0{fill:#E6835D;}
	.st1{fill:#E6835D;stroke:#000000;stroke-width:3;stroke-linecap:round;stroke-linejoin:round;}
	.st2{fill:none;stroke:#000000;stroke-width:3;stroke-linecap:round;stroke-linejoin:round;}
	.st3{fill:#E6835D;stroke:#000000;stroke-width:2.9999;stroke-linecap:round;stroke-linejoin:round;stroke-miterlimit:3.9998;}
	.st4{fill:#E6835D;stroke:#000000;stroke-width:3;stroke-linecap:round;stroke-linejoin:round;stroke-miterlimit:4;}
</style>
<rect class="st0" width="984.6" height="908.6"/>
<path class="st1" d="M187.2,896.2C157.6,598,67.1,568.6,67.1,568.6S181,597.2,219.6,846.5c-13.7-272.5-85-406.8-85-406.8
	s113.5,63.9,125.2,351.7C271.9,505,383.2,452.9,383.2,452.9s-67.5,126.9-82.6,392.2c39-246.7,130.5-257.8,130.5-257.8
	s-68.9,10.5-98.4,308.9L187.2,896.2L187.2,896.2z"/>
<circle cx="369.8" cy="473.4" r="1.5"/>
<circle cx="369.8" cy="482.3" r="1.5"/>
<path d="M371.3,677.2c0,0.8-0.7,1.5-1.5,1.5s-1.5-0.7-1.5-1.5c0-0.3,0.7,0,0.9-0.2c0.3-0.4,0.1-1.3,0.6-1.3
	C370.6,675.7,371.3,676.4,371.3,677.2L371.3,677.2z"/>
<circle cx="369.8" cy="686.1" r="1.5"/>
<circle cx="360.9" cy="473.4" r="1.5"/>
<circle cx="360.9" cy="482.3" r="1.5"/>
<circle cx="360.9" cy="491.1" r="1.5"/>
<circle cx="360.9" cy="686.1" r="1.5"/>
<circle cx="360.9" cy="694.9" r="1.5"/>
<circle cx="360.9" cy="703.8" r="1.5"/>
<circle cx="360.9" cy="712.6" r="1.5"/>
<path d="M361.7,721.5c0,0.8,0.1,1.5-0.7,1.5s-1.5-0.7-1.5-1.5s0.7-1.5,1.5-1.5S361.7,720.7,361.7,721.5z"/>
<circle cx="352.1" cy="482.3" r="1.5"/>
<circle cx="352.1" cy="491.1" r="1.5"/>
<circle cx="352.1" cy="686.1" r="1.5"/>
<circle cx="352.1" cy="694.9" r="1.5"/>
<circle cx="352.1" cy="703.8" r="1.5"/>
<circle cx="352.1" cy="712.6" r="1.5"/>
<circle cx="352.1" cy="721.5" r="1.5"/>
<circle cx="352.1" cy="730.4" r="1.5"/>
<circle cx="352.1" cy="739.2" r="1.5"/>
<circle cx="352.1" cy="748.1" r="1.5"/>
<circle cx="352.1" cy="757" r="1.5"/>
<circle cx="343.2" cy="491.1" r="1.5"/>
<circle cx="343.2" cy="500" r="1.5"/>
<circle cx="343.2" cy="562" r="1.5"/>
<circle cx="343.2" cy="686.1" r="1.5"/>
<circle cx="343.2" cy="694.9" r="1.5"/>
<circle cx="343.2" cy="703.8" r="1.5"/>
<circle cx="343.2" cy="712.6" r="1.5"/>
<circle cx="343.2" cy="721.5" r="1.5"/>
<circle cx="343.2" cy="730.4" r="1.5"/>
<circle cx="343.2" cy="739.2" r="1.5"/>
<circle cx="343.2" cy="748.1" r="1.5"/>
<circle cx="343.2" cy="757" r="1.5"/>
<circle cx="343.2" cy="765.8" r="1.5"/>
<circle cx="343.2" cy="774.7" r="1.5"/>
<circle cx="343.2" cy="783.5" r="1.5"/>
<circle cx="343.2" cy="792.4" r="1.5"/>
<circle cx="343.2" cy="801.2" r="1.5"/>
<path d="M343.9,810.1c0,0.8,0.2,1.5-0.6,1.5s-1.5-0.7-1.5-1.5s0.7-1.5,1.5-1.5S343.9,809.3,343.9,810.1z"/>
<circle cx="334.4" cy="570.9" r="1.5"/>
<circle cx="334.4" cy="579.7" r="1.5"/>
<circle cx="334.4" cy="588.6" r="1.5"/>
<circle cx="334.4" cy="597.5" r="1.5"/>
<circle cx="334.4" cy="712.6" r="1.5"/>
<circle cx="334.4" cy="721.5" r="1.5"/>
<circle cx="334.4" cy="730.4" r="1.5"/>
<circle cx="334.4" cy="739.2" r="1.5"/>
<circle cx="334.4" cy="748.1" r="1.5"/>
<circle cx="334.4" cy="757" r="1.5"/>
<circle cx="334.4" cy="765.8" r="1.5"/>
<circle cx="334.4" cy="774.7" r="1.5"/>
<circle cx="334.4" cy="783.5" r="1.5"/>
<circle cx="334.4" cy="792.4" r="1.5"/>
<circle cx="334.4" cy="801.2" r="1.5"/>
<circle cx="334.4" cy="810.1" r="1.5"/>
<circle cx="334.4" cy="819" r="1.5"/>
<circle cx="334.4" cy="827.8" r="1.5"/>
<circle cx="334.4" cy="836.7" r="1.5"/>
<circle cx="334.4" cy="845.6" r="1.5"/>
<circle cx="334.4" cy="854.4" r="1.5"/>
<circle cx="334.4" cy="863.3" r="1.5"/>
<path d="M335.2,873.3c-0.2,0.2-0.6,0.3-0.9,0.3c-0.8,0-1.5-0.7-1.5-1.5s0.7-1.5,1.5-1.5c0.5,0,0.9,0.2,1.1,0.5L335.2,873.3
	L335.2,873.3z"/>
<path d="M334.4,882.5c-0.8,0-1.5-0.7-1.5-1.5s0.7-1.5,1.5-1.5c0.1,0,0.2,0,0.3,0L334.4,882.5L334.4,882.5z"/>
<path d="M333.4,891c-0.3-0.3-0.6-0.7-0.6-1.2c0-0.6,0.3-1.1,0.8-1.3L333.4,891L333.4,891z"/>
<circle cx="325.5" cy="570.9" r="1.5"/>
<circle cx="325.5" cy="579.7" r="1.5"/>
<circle cx="325.5" cy="588.6" r="1.5"/>
<circle cx="325.5" cy="597.5" r="1.5"/>
<circle cx="325.5" cy="606.3" r="1.5"/>
<circle cx="325.5" cy="615.2" r="1.5"/>
<circle cx="325.5" cy="624" r="1.5"/>
<circle cx="325.5" cy="632.9" r="1.5"/>
<path d="M326,643.1c-0.2,0.1-0.3,0.1-0.5,0.1c-0.8,0-1.5-0.7-1.5-1.5s0.7-1.5,1.5-1.5c0.2,0,0.4,0,0.6,0.1
	C326.6,640.6,326.6,642.9,326,643.1L326,643.1z"/>
<circle cx="325.5" cy="739.2" r="1.5"/>
<circle cx="325.5" cy="748.1" r="1.5"/>
<circle cx="325.5" cy="757" r="1.5"/>
<circle cx="325.5" cy="765.8" r="1.5"/>
<circle cx="325.5" cy="774.7" r="1.5"/>
<circle cx="325.5" cy="783.5" r="1.5"/>
<circle cx="325.5" cy="792.4" r="1.5"/>
<circle cx="325.5" cy="801.2" r="1.5"/>
<circle cx="325.5" cy="810.1" r="1.5"/>
<circle cx="325.5" cy="819" r="1.5"/>
<circle cx="325.5" cy="827.8" r="1.5"/>
<circle cx="325.5" cy="836.7" r="1.5"/>
<circle cx="325.5" cy="845.6" r="1.5"/>
<circle cx="325.5" cy="854.4" r="1.5"/>
<circle cx="325.5" cy="863.3" r="1.5"/>
<circle cx="325.5" cy="872.1" r="1.5"/>
<circle cx="325.5" cy="881" r="1.5"/>
<circle cx="325.5" cy="889.9" r="1.5"/>
<circle cx="316.6" cy="579.7" r="1.5"/>
<circle cx="316.6" cy="588.6" r="1.5"/>
<circle cx="316.6" cy="597.5" r="1.5"/>
<circle cx="316.6" cy="606.3" r="1.5"/>
<circle cx="316.6" cy="615.2" r="1.5"/>
<circle cx="316.6" cy="624" r="1.5"/>
<circle cx="316.6" cy="632.9" r="1.5"/>
<circle cx="316.6" cy="641.8" r="1.5"/>
<circle cx="316.6" cy="650.6" r="1.5"/>
<circle cx="316.6" cy="659.5" r="1.5"/>
<circle cx="316.6" cy="668.3" r="1.5"/>
<circle cx="316.6" cy="677.2" r="1.5"/>
<circle cx="316.6" cy="686.1" r="1.5"/>
<path d="M318.1,765.8c0,0.8-0.7,1.5-1.5,1.5s-0.4-0.7-0.4-1.5s-0.5-1.5,0.4-1.5S318.1,765,318.1,765.8z"/>
<circle cx="316.6" cy="774.7" r="1.5"/>
<circle cx="316.6" cy="783.5" r="1.5"/>
<circle cx="316.6" cy="792.4" r="1.5"/>
<circle cx="316.6" cy="801.2" r="1.5"/>
<circle cx="316.6" cy="810.1" r="1.5"/>
<circle cx="316.6" cy="819" r="1.5"/>
<circle cx="316.6" cy="827.8" r="1.5"/>
<circle cx="316.6" cy="836.7" r="1.5"/>
<circle cx="316.6" cy="845.6" r="1.5"/>
<circle cx="316.6" cy="854.4" r="1.5"/>
<circle cx="316.6" cy="863.3" r="1.5"/>
<circle cx="316.6" cy="872.1" r="1.5"/>
<circle cx="316.6" cy="881" r="1.5"/>
<circle cx="316.6" cy="889.9" r="1.5"/>
<circle cx="307.8" cy="579.7" r="1.5"/>
<circle cx="307.8" cy="588.6" r="1.5"/>
<circle cx="307.8" cy="597.5" r="1.5"/>
<circle cx="307.8" cy="606.3" r="1.5"/>
<circle cx="307.8" cy="615.2" r="1.5"/>
<circle cx="307.8" cy="624" r="1.5"/>
<circle cx="307.8" cy="632.9" r="1.5"/>
<circle cx="307.8" cy="641.8" r="1.5"/>
<circle cx="307.8" cy="650.6" r="1.5"/>
<circle cx="307.8" cy="659.5" r="1.5"/>
<circle cx="307.8" cy="668.3" r="1.5"/>
<circle cx="307.8" cy="677.2" r="1.5"/>
<circle cx="307.8" cy="686.1" r="1.5"/>
<circle cx="307.8" cy="694.9" r="1.5"/>
<circle cx="307.8" cy="703.8" r="1.5"/>
<circle cx="307.8" cy="712.6" r="1.5"/>
<circle cx="307.8" cy="721.5" r="1.5"/>
<circle cx="307.8" cy="730.4" r="1.5"/>
<circle cx="307.8" cy="739.2" r="1.5"/>
<circle cx="307.8" cy="748.1" r="1.5"/>
<path d="M308.6,757c0,0.8,0,1.5-0.9,1.5s-1.5-0.7-1.5-1.5s0.7-1.5,1.5-1.5S308.6,756.1,308.6,757z"/>
<circle cx="307.8" cy="810.1" r="1.5"/>
<circle cx="307.8" cy="819" r="1.5"/>
<circle cx="307.8" cy="827.8" r="1.5"/>
<circle cx="307.8" cy="836.7" r="1.5"/>
<circle cx="307.8" cy="845.6" r="1.5"/>
<circle cx="307.8" cy="854.4" r="1.5"/>
<circle cx="307.8" cy="863.3" r="1.5"/>
<circle cx="307.8" cy="872.1" r="1.5"/>
<circle cx="307.8" cy="881" r="1.5"/>
<circle cx="307.8" cy="889.9" r="1.5"/>
<circle cx="298.9" cy="588.6" r="1.5"/>
<circle cx="298.9" cy="597.5" r="1.5"/>
<circle cx="298.9" cy="606.3" r="1.5"/>
<circle cx="298.9" cy="615.2" r="1.5"/>
<circle cx="298.9" cy="624" r="1.5"/>
<circle cx="298.9" cy="632.9" r="1.5"/>
<circle cx="298.9" cy="641.8" r="1.5"/>
<circle cx="298.9" cy="650.6" r="1.5"/>
<circle cx="298.9" cy="659.5" r="1.5"/>
<circle cx="298.9" cy="668.3" r="1.5"/>
<circle cx="298.9" cy="677.2" r="1.5"/>
<circle cx="298.9" cy="686.1" r="1.5"/>
<circle cx="298.9" cy="694.9" r="1.5"/>
<circle cx="298.9" cy="703.8" r="1.5"/>
<circle cx="298.9" cy="712.6" r="1.5"/>
<circle cx="298.9" cy="721.5" r="1.5"/>
<circle cx="298.9" cy="730.4" r="1.5"/>
<circle cx="298.9" cy="739.2" r="1.5"/>
<circle cx="298.9" cy="748.1" r="1.5"/>
<circle cx="298.9" cy="757" r="1.5"/>
<circle cx="298.9" cy="765.8" r="1.5"/>
<circle cx="298.9" cy="774.7" r="1.5"/>
<circle cx="298.9" cy="783.5" r="1.5"/>
<circle cx="298.9" cy="792.4" r="1.5"/>
<circle cx="298.9" cy="801.2" r="1.5"/>
<circle cx="298.9" cy="810.1" r="1.5"/>
<circle cx="298.9" cy="819" r="1.5"/>
<circle cx="298.9" cy="827.8" r="1.5"/>
<circle cx="298.9" cy="836.7" r="1.5"/>
<circle cx="298.9" cy="845.6" r="1.5"/>
<circle cx="298.9" cy="854.4" r="1.5"/>
<circle cx="298.9" cy="863.3" r="1.5"/>
<circle cx="298.9" cy="872.1" r="1.5"/>
<circle cx="298.9" cy="881" r="1.5"/>
<circle cx="298.9" cy="889.9" r="1.5"/>
<path d="M291.5,597.5c0,0.8-0.7,1.5-1.5,1.5s0-0.7,0-1.5s-0.8-1.5,0-1.5S291.5,596.6,291.5,597.5z"/>
<circle cx="290" cy="606.3" r="1.5"/>
<circle cx="290" cy="615.2" r="1.5"/>
<circle cx="290" cy="624" r="1.5"/>
<circle cx="290" cy="632.9" r="1.5"/>
<circle cx="290" cy="641.8" r="1.5"/>
<circle cx="290" cy="650.6" r="1.5"/>
<circle cx="290" cy="659.5" r="1.5"/>
<circle cx="290" cy="668.3" r="1.5"/>
<circle cx="290" cy="677.2" r="1.5"/>
<circle cx="290" cy="686.1" r="1.5"/>
<circle cx="290" cy="694.9" r="1.5"/>
<circle cx="290" cy="703.8" r="1.5"/>
<circle cx="290" cy="712.6" r="1.5"/>
<circle cx="290" cy="721.5" r="1.5"/>
<circle cx="290" cy="730.4" r="1.5"/>
<circle cx="290" cy="739.2" r="1.5"/>
<circle cx="290" cy="748.1" r="1.5"/>
<circle cx="290" cy="757" r="1.5"/>
<circle cx="290" cy="765.8" r="1.5"/>
<circle cx="290" cy="774.7" r="1.5"/>
<circle cx="290" cy="783.5" r="1.5"/>
<circle cx="290" cy="792.4" r="1.5"/>
<circle cx="290" cy="801.2" r="1.5"/>
<circle cx="290" cy="810.1" r="1.5"/>
<circle cx="290" cy="819" r="1.5"/>
<circle cx="290" cy="827.8" r="1.5"/>
<circle cx="290" cy="836.7" r="1.5"/>
<circle cx="290" cy="845.6" r="1.5"/>
<circle cx="290" cy="854.4" r="1.5"/>
<circle cx="290" cy="863.3" r="1.5"/>
<circle cx="290" cy="872.1" r="1.5"/>
<circle cx="290" cy="881" r="1.5"/>
<circle cx="290" cy="889.9" r="1.5"/>
<circle cx="281.2" cy="632.9" r="1.5"/>
<circle cx="281.2" cy="641.8" r="1.5"/>
<circle cx="281.2" cy="650.6" r="1.5"/>
<circle cx="281.2" cy="659.5" r="1.5"/>
<circle cx="281.2" cy="668.3" r="1.5"/>
<circle cx="281.2" cy="677.2" r="1.5"/>
<circle cx="281.2" cy="686.1" r="1.5"/>
<circle cx="281.2" cy="694.9" r="1.5"/>
<circle cx="281.2" cy="703.8" r="1.5"/>
<circle cx="281.2" cy="712.6" r="1.5"/>
<circle cx="281.2" cy="721.5" r="1.5"/>
<circle cx="281.2" cy="730.4" r="1.5"/>
<circle cx="281.2" cy="739.2" r="1.5"/>
<circle cx="281.2" cy="748.1" r="1.5"/>
<circle cx="281.2" cy="757" r="1.5"/>
<circle cx="281.2" cy="765.8" r="1.5"/>
<circle cx="281.2" cy="774.7" r="1.5"/>
<circle cx="281.2" cy="783.5" r="1.5"/>
<circle cx="281.2" cy="792.4" r="1.5"/>
<circle cx="281.2" cy="801.2" r="1.5"/>
<circle cx="281.2" cy="810.1" r="1.5"/>
<circle cx="281.2" cy="819" r="1.5"/>
<circle cx="281.2" cy="827.8" r="1.5"/>
<circle cx="281.2" cy="836.7" r="1.5"/>
<circle cx="281.2" cy="845.6" r="1.5"/>
<circle cx="281.2" cy="854.4" r="1.5"/>
<circle cx="281.2" cy="863.3" r="1.5"/>
<circle cx="281.2" cy="872.1" r="1.5"/>
<circle cx="281.2" cy="881" r="1.5"/>
<circle cx="281.2" cy="889.9" r="1.5"/>
<circle cx="272.3" cy="677.2" r="1.5"/>
<circle cx="272.3" cy="686.1" r="1.5"/>
<circle cx="272.3" cy="694.9" r="1.5"/>
<circle cx="272.3" cy="703.8" r="1.5"/>
<circle cx="272.3" cy="712.6" r="1.5"/>
<circle cx="272.3" cy="721.5" r="1.5"/>
<circle cx="272.3" cy="730.4" r="1.5"/>
<circle cx="272.3" cy="739.2" r="1.5"/>
<circle cx="272.3" cy="748.1" r="1.5"/>
<circle cx="272.3" cy="757" r="1.5"/>
<circle cx="272.3" cy="765.8" r="1.5"/>
<circle cx="272.3" cy="774.7" r="1.5"/>
<circle cx="272.3" cy="783.5" r="1.5"/>
<circle cx="272.3" cy="792.4" r="1.5"/>
<circle cx="272.3" cy="801.2" r="1.5"/>
<circle cx="272.3" cy="810.1" r="1.5"/>
<circle cx="272.3" cy="819" r="1.5"/>
<circle cx="272.3" cy="827.8" r="1.5"/>
<circle cx="272.3" cy="836.7" r="1.5"/>
<circle cx="272.3" cy="845.6" r="1.5"/>
<circle cx="272.3" cy="854.4" r="1.5"/>
<circle cx="272.3" cy="863.3" r="1.5"/>
<circle cx="272.3" cy="872.1" r="1.5"/>
<circle cx="272.3" cy="881" r="1.5"/>
<circle cx="272.3" cy="889.9" r="1.5"/>
<path d="M264.9,739.2c0,0.8-0.7,1.5-1.5,1.5s-0.7-0.7-0.7-1.5s-0.1-1.5,0.7-1.5S264.9,738.4,264.9,739.2z"/>
<circle cx="263.5" cy="748.1" r="1.5"/>
<circle cx="263.5" cy="757" r="1.5"/>
<circle cx="263.5" cy="765.8" r="1.5"/>
<circle cx="263.5" cy="774.7" r="1.5"/>
<circle cx="263.5" cy="783.5" r="1.5"/>
<circle cx="263.5" cy="792.4" r="1.5"/>
<circle cx="263.5" cy="801.2" r="1.5"/>
<circle cx="263.5" cy="810.1" r="1.5"/>
<circle cx="263.5" cy="819" r="1.5"/>
<circle cx="263.5" cy="827.8" r="1.5"/>
<circle cx="263.5" cy="836.7" r="1.5"/>
<circle cx="263.5" cy="845.6" r="1.5"/>
<circle cx="263.5" cy="854.4" r="1.5"/>
<circle cx="263.5" cy="863.3" r="1.5"/>
<circle cx="263.5" cy="872.1" r="1.5"/>
<circle cx="263.5" cy="881" r="1.5"/>
<circle cx="263.5" cy="889.9" r="1.5"/>
<path d="M255.5,721.5c0,0.8-0.1,1.5-0.9,1.5s-1.5-0.7-1.5-1.5s0.7-1.5,1.5-1.5S255.5,720.7,255.5,721.5z"/>
<ellipse transform="matrix(0.1602 -0.9871 0.9871 0.1602 -507.0671 864.8144)" cx="254.7" cy="730.4" rx="1.5" ry="1.5"/>
<ellipse cx="254.6" cy="739.2" rx="1.5" ry="1.5"/>
<ellipse cx="254.6" cy="748.1" rx="1.5" ry="1.5"/>
<ellipse transform="matrix(0.1602 -0.9871 0.9871 0.1602 -533.2249 887.0696)" cx="254.7" cy="756.9" rx="1.5" ry="1.5"/>
<ellipse cx="254.6" cy="765.8" rx="1.5" ry="1.5"/>
<ellipse cx="254.6" cy="774.7" rx="1.5" ry="1.5"/>
<ellipse cx="254.6" cy="783.5" rx="1.5" ry="1.5"/>
<ellipse cx="254.6" cy="792.4" rx="1.5" ry="1.5"/>
<ellipse cx="254.6" cy="801.2" rx="1.5" ry="1.5"/>
<ellipse cx="254.6" cy="810.1" rx="1.5" ry="1.5"/>
<ellipse cx="254.6" cy="819" rx="1.5" ry="1.5"/>
<ellipse cx="254.6" cy="827.8" rx="1.5" ry="1.5"/>
<ellipse cx="254.6" cy="836.7" rx="1.5" ry="1.5"/>
<ellipse transform="matrix(0.1602 -0.9871 0.9871 0.1602 -620.7795 961.5614)" cx="254.7" cy="845.6" rx="1.5" ry="1.5"/>
<ellipse cx="254.6" cy="854.4" rx="1.5" ry="1.5"/>
<ellipse cx="254.6" cy="863.3" rx="1.5" ry="1.5"/>
<ellipse cx="254.6" cy="872.1" rx="1.5" ry="1.5"/>
<ellipse cx="254.6" cy="881" rx="1.5" ry="1.5"/>
<ellipse transform="matrix(0.1602 -0.9871 0.9871 0.1602 -664.5075 998.7654)" cx="254.7" cy="889.9" rx="1.5" ry="1.5"/>
<circle cx="245.7" cy="659.5" r="1.5"/>
<circle cx="245.7" cy="668.3" r="1.5"/>
<circle cx="245.7" cy="677.2" r="1.5"/>
<circle cx="245.7" cy="686.1" r="1.5"/>
<circle cx="245.7" cy="694.9" r="1.5"/>
<circle cx="245.7" cy="703.8" r="1.5"/>
<circle cx="245.7" cy="712.6" r="1.5"/>
<circle cx="245.7" cy="721.5" r="1.5"/>
<circle cx="245.7" cy="730.4" r="1.5"/>
<circle cx="245.7" cy="739.2" r="1.5"/>
<circle cx="245.7" cy="748.1" r="1.5"/>
<circle cx="245.7" cy="757" r="1.5"/>
<circle cx="245.7" cy="765.8" r="1.5"/>
<circle cx="245.7" cy="774.7" r="1.5"/>
<circle cx="245.7" cy="783.5" r="1.5"/>
<circle cx="245.7" cy="792.4" r="1.5"/>
<circle cx="245.7" cy="801.2" r="1.5"/>
<circle cx="245.7" cy="810.1" r="1.5"/>
<circle cx="245.7" cy="819" r="1.5"/>
<circle cx="245.7" cy="827.8" r="1.5"/>
<circle cx="245.7" cy="836.7" r="1.5"/>
<circle cx="245.7" cy="845.6" r="1.5"/>
<circle cx="245.7" cy="854.4" r="1.5"/>
<circle cx="245.7" cy="863.3" r="1.5"/>
<circle cx="245.7" cy="872.1" r="1.5"/>
<circle cx="245.7" cy="881" r="1.5"/>
<circle cx="245.7" cy="889.9" r="1.5"/>
<circle cx="236.9" cy="624" r="1.5"/>
<circle cx="236.9" cy="632.9" r="1.5"/>
<circle cx="236.9" cy="641.8" r="1.5"/>
<circle cx="236.9" cy="650.6" r="1.5"/>
<circle cx="236.9" cy="659.5" r="1.5"/>
<circle cx="236.9" cy="668.3" r="1.5"/>
<circle cx="236.9" cy="677.2" r="1.5"/>
<circle cx="236.9" cy="686.1" r="1.5"/>
<circle cx="236.9" cy="694.9" r="1.5"/>
<circle cx="236.9" cy="703.8" r="1.5"/>
<circle cx="236.9" cy="712.6" r="1.5"/>
<circle cx="236.9" cy="721.5" r="1.5"/>
<circle cx="236.9" cy="730.4" r="1.5"/>
<circle cx="236.9" cy="739.2" r="1.5"/>
<circle cx="236.9" cy="748.1" r="1.5"/>
<circle cx="236.9" cy="757" r="1.5"/>
<circle cx="236.9" cy="765.8" r="1.5"/>
<circle cx="236.9" cy="774.7" r="1.5"/>
<circle cx="236.9" cy="783.5" r="1.5"/>
<circle cx="236.9" cy="792.4" r="1.5"/>
<circle cx="236.9" cy="801.2" r="1.5"/>
<circle cx="236.9" cy="810.1" r="1.5"/>
<circle cx="236.9" cy="819" r="1.5"/>
<circle cx="236.9" cy="827.8" r="1.5"/>
<circle cx="236.9" cy="836.7" r="1.5"/>
<circle cx="236.9" cy="845.6" r="1.5"/>
<circle cx="236.9" cy="854.4" r="1.5"/>
<circle cx="236.9" cy="863.3" r="1.5"/>
<circle cx="236.9" cy="872.1" r="1.5"/>
<circle cx="236.9" cy="881" r="1.5"/>
<circle cx="236.9" cy="889.9" r="1.5"/>
<circle cx="228" cy="597.5" r="1.5"/>
<circle cx="228" cy="606.3" r="1.5"/>
<circle cx="228" cy="615.2" r="1.5"/>
<circle cx="228" cy="624" r="1.5"/>
<circle cx="228" cy="632.9" r="1.5"/>
<circle cx="228" cy="641.8" r="1.5"/>
<circle cx="228" cy="650.6" r="1.5"/>
<circle cx="228" cy="659.5" r="1.5"/>
<circle cx="228" cy="668.3" r="1.5"/>
<circle cx="228" cy="677.2" r="1.5"/>
<circle cx="228" cy="686.1" r="1.5"/>
<circle cx="228" cy="694.9" r="1.5"/>
<circle cx="228" cy="703.8" r="1.5"/>
<circle cx="228" cy="712.6" r="1.5"/>
<circle cx="228" cy="721.5" r="1.5"/>
<circle cx="228" cy="730.4" r="1.5"/>
<circle cx="228" cy="739.2" r="1.5"/>
<circle cx="228" cy="748.1" r="1.5"/>
<circle cx="228" cy="757" r="1.5"/>
<circle cx="228" cy="765.8" r="1.5"/>
<circle cx="228" cy="774.7" r="1.5"/>
<circle cx="228" cy="783.5" r="1.5"/>
<circle cx="228" cy="792.4" r="1.5"/>
<circle cx="228" cy="801.2" r="1.5"/>
<circle cx="228" cy="810.1" r="1.5"/>
<circle cx="228" cy="819" r="1.5"/>
<circle cx="228" cy="827.8" r="1.5"/>
<circle cx="228" cy="836.7" r="1.5"/>
<circle cx="228" cy="845.6" r="1.5"/>
<circle cx="228" cy="854.4" r="1.5"/>
<circle cx="228" cy="863.3" r="1.5"/>
<circle cx="228" cy="872.1" r="1.5"/>
<circle cx="228" cy="881" r="1.5"/>
<circle cx="228" cy="889.9" r="1.5"/>
<circle cx="219.2" cy="570.9" r="1.5"/>
<circle cx="219.2" cy="579.7" r="1.5"/>
<circle cx="219.2" cy="588.6" r="1.5"/>
<circle cx="219.2" cy="597.5" r="1.5"/>
<circle cx="219.2" cy="606.3" r="1.5"/>
<circle cx="219.2" cy="615.2" r="1.5"/>
<circle cx="219.2" cy="624" r="1.5"/>
<circle cx="219.2" cy="632.9" r="1.5"/>
<circle cx="219.2" cy="641.8" r="1.5"/>
<circle cx="219.2" cy="650.6" r="1.5"/>
<circle cx="219.2" cy="659.5" r="1.5"/>
<circle cx="219.2" cy="668.3" r="1.5"/>
<circle cx="219.2" cy="677.2" r="1.5"/>
<circle cx="219.2" cy="686.1" r="1.5"/>
<circle cx="219.2" cy="694.9" r="1.5"/>
<circle cx="219.2" cy="703.8" r="1.5"/>
<circle cx="219.2" cy="712.6" r="1.5"/>
<circle cx="219.2" cy="721.5" r="1.5"/>
<circle cx="219.2" cy="730.4" r="1.5"/>
<circle cx="219.2" cy="739.2" r="1.5"/>
<circle cx="219.2" cy="748.1" r="1.5"/>
<circle cx="219.2" cy="757" r="1.5"/>
<circle cx="219.2" cy="765.8" r="1.5"/>
<circle cx="219.2" cy="774.7" r="1.5"/>
<circle cx="219.2" cy="783.5" r="1.5"/>
<circle cx="219.2" cy="792.4" r="1.5"/>
<circle cx="219.2" cy="801.2" r="1.5"/>
<circle cx="219.2" cy="810.1" r="1.5"/>
<circle cx="219.2" cy="819" r="1.5"/>
<circle cx="219.2" cy="827.8" r="1.5"/>
<circle cx="219.2" cy="836.7" r="1.5"/>
<circle cx="219.2" cy="845.6" r="1.5"/>
<circle cx="219.2" cy="854.4" r="1.5"/>
<circle cx="219.2" cy="863.3" r="1.5"/>
<circle cx="219.2" cy="872.1" r="1.5"/>
<circle cx="219.2" cy="881" r="1.5"/>
<circle cx="219.2" cy="889.9" r="1.5"/>
<circle cx="210.3" cy="544.3" r="1.5"/>
<circle cx="210.3" cy="553.1" r="1.5"/>
<circle cx="210.3" cy="562" r="1.5"/>
<circle cx="210.3" cy="570.9" r="1.5"/>
<circle cx="210.3" cy="579.7" r="1.5"/>
<circle cx="210.3" cy="588.6" r="1.5"/>
<circle cx="210.3" cy="597.5" r="1.5"/>
<circle cx="210.3" cy="606.3" r="1.5"/>
<circle cx="210.3" cy="615.2" r="1.5"/>
<circle cx="210.3" cy="624" r="1.5"/>
<circle cx="210.3" cy="632.9" r="1.5"/>
<circle cx="210.3" cy="641.8" r="1.5"/>
<circle cx="210.3" cy="650.6" r="1.5"/>
<circle cx="210.3" cy="659.5" r="1.5"/>
<circle cx="210.3" cy="668.3" r="1.5"/>
<circle cx="210.3" cy="677.2" r="1.5"/>
<circle cx="210.3" cy="686.1" r="1.5"/>
<circle cx="210.3" cy="694.9" r="1.5"/>
<circle cx="210.3" cy="703.8" r="1.5"/>
<circle cx="210.3" cy="712.6" r="1.5"/>
<circle cx="210.3" cy="721.5" r="1.5"/>
<circle cx="210.3" cy="730.4" r="1.5"/>
<circle cx="210.3" cy="801.2" r="1.5"/>
<circle cx="210.3" cy="810.1" r="1.5"/>
<circle cx="210.3" cy="819" r="1.5"/>
<circle cx="210.3" cy="827.8" r="1.5"/>
<circle cx="210.3" cy="836.7" r="1.5"/>
<circle cx="210.3" cy="845.6" r="1.5"/>
<circle cx="210.3" cy="854.4" r="1.5"/>
<circle cx="210.3" cy="863.3" r="1.5"/>
<circle cx="210.3" cy="872.1" r="1.5"/>
<circle cx="210.3" cy="881" r="1.5"/>
<circle cx="210.3" cy="889.9" r="1.5"/>
<circle cx="201.4" cy="526.6" r="1.5"/>
<circle cx="201.4" cy="535.4" r="1.5"/>
<circle cx="201.4" cy="544.3" r="1.5"/>
<circle cx="201.4" cy="553.1" r="1.5"/>
<circle cx="201.4" cy="562" r="1.5"/>
<circle cx="201.4" cy="570.9" r="1.5"/>
<circle cx="201.4" cy="579.7" r="1.5"/>
<circle cx="201.4" cy="588.6" r="1.5"/>
<circle cx="201.4" cy="597.5" r="1.5"/>
<circle cx="201.4" cy="606.3" r="1.5"/>
<circle cx="201.4" cy="615.2" r="1.5"/>
<circle cx="201.4" cy="624" r="1.5"/>
<circle cx="201.4" cy="632.9" r="1.5"/>
<circle cx="201.4" cy="641.8" r="1.5"/>
<circle cx="201.4" cy="650.6" r="1.5"/>
<circle cx="201.4" cy="659.5" r="1.5"/>
<circle cx="201.4" cy="668.3" r="1.5"/>
<circle cx="201.4" cy="677.2" r="1.5"/>
<circle cx="201.4" cy="765.8" r="1.5"/>
<circle cx="201.4" cy="774.7" r="1.5"/>
<circle cx="201.4" cy="783.5" r="1.5"/>
<circle cx="201.4" cy="792.4" r="1.5"/>
<circle cx="201.4" cy="801.2" r="1.5"/>
<circle cx="201.4" cy="810.1" r="1.5"/>
<circle cx="201.4" cy="819" r="1.5"/>
<circle cx="201.4" cy="827.8" r="1.5"/>
<circle cx="201.4" cy="836.7" r="1.5"/>
<circle cx="201.4" cy="845.6" r="1.5"/>
<circle cx="201.4" cy="854.4" r="1.5"/>
<circle cx="201.4" cy="863.3" r="1.5"/>
<circle cx="201.4" cy="872.1" r="1.5"/>
<circle cx="201.4" cy="881" r="1.5"/>
<circle cx="201.4" cy="889.9" r="1.5"/>
<circle cx="192.6" cy="508.8" r="1.5"/>
<circle cx="192.6" cy="517.7" r="1.5"/>
<circle cx="192.6" cy="526.6" r="1.5"/>
<circle cx="192.6" cy="535.4" r="1.5"/>
<circle cx="192.6" cy="544.3" r="1.5"/>
<circle cx="192.6" cy="553.1" r="1.5"/>
<circle cx="192.6" cy="562" r="1.5"/>
<circle cx="192.6" cy="570.9" r="1.5"/>
<circle cx="192.6" cy="579.7" r="1.5"/>
<circle cx="192.6" cy="588.6" r="1.5"/>
<circle cx="192.6" cy="597.5" r="1.5"/>
<circle cx="192.6" cy="606.3" r="1.5"/>
<circle cx="192.6" cy="615.2" r="1.5"/>
<path d="M194.1,624c0,0.8-0.7,1.5-1.5,1.5s-0.9-0.6-0.9-1.4s0.1-1.6,0.9-1.6S194.1,623.2,194.1,624L194.1,624z"/>
<circle cx="192.6" cy="739.2" r="1.5"/>
<circle cx="192.6" cy="748.1" r="1.5"/>
<circle cx="192.6" cy="757" r="1.5"/>
<circle cx="192.6" cy="765.8" r="1.5"/>
<circle cx="192.6" cy="774.7" r="1.5"/>
<circle cx="192.6" cy="783.5" r="1.5"/>
<circle cx="192.6" cy="792.4" r="1.5"/>
<circle cx="192.6" cy="801.2" r="1.5"/>
<circle cx="192.6" cy="810.1" r="1.5"/>
<circle cx="192.6" cy="819" r="1.5"/>
<circle cx="192.6" cy="827.8" r="1.5"/>
<circle cx="192.6" cy="836.7" r="1.5"/>
<circle cx="192.6" cy="845.6" r="1.5"/>
<circle cx="192.6" cy="854.4" r="1.5"/>
<circle cx="192.6" cy="863.3" r="1.5"/>
<circle cx="192.6" cy="872.1" r="1.5"/>
<circle cx="192.6" cy="881" r="1.5"/>
<circle cx="192.6" cy="889.9" r="1.5"/>
<circle cx="183.7" cy="500" r="1.5"/>
<circle cx="183.7" cy="508.8" r="1.5"/>
<circle cx="183.7" cy="517.7" r="1.5"/>
<circle cx="183.7" cy="526.6" r="1.5"/>
<circle cx="183.7" cy="535.4" r="1.5"/>
<circle cx="183.7" cy="544.3" r="1.5"/>
<circle cx="183.7" cy="553.1" r="1.5"/>
<circle cx="183.7" cy="562" r="1.5"/>
<circle cx="183.7" cy="570.9" r="1.5"/>
<circle cx="183.7" cy="579.7" r="1.5"/>
<circle cx="183.7" cy="712.6" r="1.5"/>
<circle cx="183.7" cy="721.5" r="1.5"/>
<circle cx="183.7" cy="730.4" r="1.5"/>
<circle cx="183.7" cy="739.2" r="1.5"/>
<circle cx="183.7" cy="748.1" r="1.5"/>
<circle cx="183.7" cy="757" r="1.5"/>
<circle cx="183.7" cy="765.8" r="1.5"/>
<circle cx="183.7" cy="774.7" r="1.5"/>
<circle cx="183.7" cy="783.5" r="1.5"/>
<circle cx="183.7" cy="792.4" r="1.5"/>
<circle cx="183.7" cy="801.2" r="1.5"/>
<circle cx="183.7" cy="810.1" r="1.5"/>
<circle cx="183.7" cy="819" r="1.5"/>
<circle cx="183.7" cy="827.8" r="1.5"/>
<circle cx="183.7" cy="836.7" r="1.5"/>
<circle cx="183.7" cy="845.6" r="1.5"/>
<circle cx="183.7" cy="854.4" r="1.5"/>
<path d="M185.2,863.3c0,0.8-0.7,1.5-1.5,1.5s-0.9-0.7-0.9-1.5s0-1.5,0.9-1.5S185.2,862.5,185.2,863.3z"/>
<circle cx="174.9" cy="482.3" r="1.5"/>
<circle cx="174.9" cy="491.1" r="1.5"/>
<circle cx="174.9" cy="500" r="1.5"/>
<circle cx="174.9" cy="508.8" r="1.5"/>
<circle cx="174.9" cy="517.7" r="1.5"/>
<circle cx="174.9" cy="526.6" r="1.5"/>
<circle cx="174.9" cy="535.4" r="1.5"/>
<circle cx="174.9" cy="544.3" r="1.5"/>
<circle cx="174.9" cy="694.9" r="1.5"/>
<circle cx="174.9" cy="703.8" r="1.5"/>
<circle cx="174.9" cy="712.6" r="1.5"/>
<circle cx="174.9" cy="721.5" r="1.5"/>
<circle cx="174.9" cy="730.4" r="1.5"/>
<circle cx="174.9" cy="739.2" r="1.5"/>
<circle cx="174.9" cy="748.1" r="1.5"/>
<circle cx="174.9" cy="757" r="1.5"/>
<circle cx="174.9" cy="765.8" r="1.5"/>
<circle cx="174.9" cy="774.7" r="1.5"/>
<circle cx="174.9" cy="783.5" r="1.5"/>
<circle cx="174.9" cy="792.4" r="1.5"/>
<circle cx="174.9" cy="801.2" r="1.5"/>
<circle cx="166" cy="473.4" r="1.5"/>
<circle cx="166" cy="482.3" r="1.5"/>
<circle cx="166" cy="491.1" r="1.5"/>
<circle cx="166" cy="500" r="1.5"/>
<circle cx="166" cy="508.8" r="1.5"/>
<circle cx="166" cy="517.7" r="1.5"/>
<circle cx="166" cy="677.2" r="1.5"/>
<circle cx="166" cy="686.1" r="1.5"/>
<circle cx="166" cy="694.9" r="1.5"/>
<circle cx="166" cy="703.8" r="1.5"/>
<circle cx="166" cy="712.6" r="1.5"/>
<circle cx="166" cy="721.5" r="1.5"/>
<circle cx="166" cy="730.4" r="1.5"/>
<circle cx="166" cy="739.2" r="1.5"/>
<circle cx="166" cy="748.1" r="1.5"/>
<circle cx="166" cy="757" r="1.5"/>
<circle cx="157.1" cy="464.5" r="1.5"/>
<circle cx="157.1" cy="473.4" r="1.5"/>
<circle cx="157.1" cy="482.3" r="1.5"/>
<circle cx="157.1" cy="491.1" r="1.5"/>
<circle cx="157.1" cy="659.5" r="1.5"/>
<circle cx="157.1" cy="668.3" r="1.5"/>
<circle cx="157.1" cy="677.2" r="1.5"/>
<circle cx="157.1" cy="686.1" r="1.5"/>
<circle cx="157.1" cy="694.9" r="1.5"/>
<circle cx="157.1" cy="703.8" r="1.5"/>
<circle cx="157.1" cy="712.6" r="1.5"/>
<circle cx="157.1" cy="721.5" r="1.5"/>
<circle cx="148.3" cy="455.7" r="1.5"/>
<circle cx="148.3" cy="464.5" r="1.5"/>
<circle cx="148.3" cy="641.8" r="1.5"/>
<circle cx="148.3" cy="650.6" r="1.5"/>
<circle cx="148.3" cy="659.5" r="1.5"/>
<circle cx="148.3" cy="668.3" r="1.5"/>
<circle cx="148.3" cy="677.2" r="1.5"/>
<circle cx="148.3" cy="686.1" r="1.5"/>
<circle cx="148.3" cy="694.9" r="1.5"/>
<circle cx="139.4" cy="446.8" r="1.5"/>
<circle cx="139.4" cy="632.9" r="1.5"/>
<circle cx="139.4" cy="641.8" r="1.5"/>
<circle cx="139.4" cy="650.6" r="1.5"/>
<circle cx="139.4" cy="659.5" r="1.5"/>
<circle cx="139.4" cy="668.3" r="1.5"/>
<circle cx="130.6" cy="624" r="1.5"/>
<circle cx="130.6" cy="632.9" r="1.5"/>
<circle cx="130.6" cy="641.8" r="1.5"/>
<path d="M123.2,606.6c0,0.8-0.7,1.2-1.5,1.2s-1.5-0.7-1.5-1.5s0.4-1.5,1.3-1.5c0.4,0,0.6,0.8,0.9,1.1S123.2,606.2,123.2,606.6
	L123.2,606.6z"/>
<circle cx="121.7" cy="615.2" r="1.5"/>
<circle cx="121.7" cy="624" r="1.5"/>
<path d="M114.2,598c0,0.8-0.6,0.9-1.4,0.9s-1.5-0.7-1.5-1.5s0.3-1.4,1.1-1.4c0.4,0,0.5,1.3,0.8,1.5
	C113.6,597.8,114.2,597.5,114.2,598z"/>
<circle cx="112.8" cy="606.3" r="1.5"/>
<circle cx="104" cy="597.5" r="1.5"/>
<circle cx="95.1" cy="588.6" r="1.5"/>
<circle cx="86.2" cy="579.7" r="1.5"/>
<path class="st1" d="M803.7,857c58-407.5-34.2-604.5-34.2-604.5s60,170.5-2.7,617.8l-2,13.5"/>
<path class="st1" d="M732.6,895.6C715,445.1,626.3,297,626.3,297s125.2,159.3,140.2,570l0.3,18"/>
<path class="st1" d="M756.6,896.2l0.2-14c5.5-451.7-75.6-613.2-75.6-613.2s116.4,183.7,110.5,595.2l-0.6,30.7"/>
<path class="st1" d="M816.5,887.3l0.3-17.3C831.8,459.3,957,300,957,300s-89.1,145.1-106.6,595.7"/>
<path class="st1" d="M825.8,895.6c-5.5-451.7,75.7-624.4,75.7-624.4S785.1,454.9,791,866.5l0.2,26.9"/>
<path d="M946.1,323.3c0,0.8,0.1,0.5-0.3,1.5c-0.4,0.7-1.5-0.7-1.5-1.5s0.7-1.5,1.5-1.5S946.1,322.5,946.1,323.3z"/>
<circle cx="936.9" cy="332.2" r="1.5"/>
<circle cx="936.9" cy="341" r="1.5"/>
<circle cx="928" cy="349.9" r="1.5"/>
<circle cx="928" cy="358.8" r="1.5"/>
<circle cx="928" cy="367.6" r="1.5"/>
<circle cx="919.2" cy="367.6" r="1.5"/>
<circle cx="919.2" cy="376.5" r="1.5"/>
<circle cx="919.2" cy="385.4" r="1.5"/>
<circle cx="919.2" cy="394.2" r="1.5"/>
<circle cx="910.3" cy="394.2" r="1.5"/>
<circle cx="910.3" cy="403.1" r="1.5"/>
<circle cx="910.3" cy="411.9" r="1.5"/>
<circle cx="910.3" cy="420.8" r="1.5"/>
<circle cx="901.4" cy="411.9" r="1.5"/>
<circle cx="901.4" cy="420.8" r="1.5"/>
<circle cx="901.4" cy="429.7" r="1.5"/>
<circle cx="901.4" cy="438.5" r="1.5"/>
<circle cx="901.4" cy="447.4" r="1.5"/>
<circle cx="901.4" cy="456.2" r="1.5"/>
<circle cx="892.6" cy="287.9" r="1.5"/>
<circle cx="892.6" cy="438.5" r="1.5"/>
<circle cx="892.6" cy="447.4" r="1.5"/>
<circle cx="892.6" cy="456.2" r="1.5"/>
<circle cx="892.6" cy="465.1" r="1.5"/>
<circle cx="892.6" cy="474" r="1.5"/>
<circle cx="892.6" cy="482.8" r="1.5"/>
<circle cx="892.6" cy="491.7" r="1.5"/>
<circle cx="892.6" cy="500.5" r="1.5"/>
<circle cx="883.7" cy="305.6" r="1.5"/>
<circle cx="883.7" cy="314.5" r="1.5"/>
<path d="M885.2,456.2c0,0.8-0.7,1.5-1.5,1.5s-0.6-0.5-0.6-1.3s-0.2-1.6,0.6-1.6S885.2,455.4,885.2,456.2L885.2,456.2z"/>
<circle cx="883.7" cy="465.1" r="1.5"/>
<circle cx="883.7" cy="474" r="1.5"/>
<circle cx="883.7" cy="482.8" r="1.5"/>
<circle cx="883.7" cy="491.7" r="1.5"/>
<circle cx="883.7" cy="500.5" r="1.5"/>
<circle cx="883.7" cy="509.4" r="1.5"/>
<circle cx="883.7" cy="518.3" r="1.5"/>
<circle cx="883.7" cy="527.1" r="1.5"/>
<circle cx="883.7" cy="536" r="1.5"/>
<circle cx="883.7" cy="544.8" r="1.5"/>
<circle cx="874.8" cy="332.2" r="1.5"/>
<circle cx="874.8" cy="341" r="1.5"/>
<circle cx="874.8" cy="349.9" r="1.5"/>
<circle cx="874.8" cy="491.7" r="1.5"/>
<circle cx="874.8" cy="500.5" r="1.5"/>
<circle cx="874.8" cy="509.4" r="1.5"/>
<circle cx="874.8" cy="518.3" r="1.5"/>
<circle cx="874.8" cy="527.1" r="1.5"/>
<circle cx="874.8" cy="536" r="1.5"/>
<circle cx="874.8" cy="544.8" r="1.5"/>
<circle cx="874.8" cy="553.7" r="1.5"/>
<circle cx="874.8" cy="562.6" r="1.5"/>
<circle cx="874.8" cy="571.4" r="1.5"/>
<circle cx="874.8" cy="580.3" r="1.5"/>
<circle cx="874.8" cy="589.2" r="1.5"/>
<circle cx="874.8" cy="598" r="1.5"/>
<circle cx="874.8" cy="606.9" r="1.5"/>
<circle cx="866" cy="349.9" r="1.5"/>
<circle cx="866" cy="358.8" r="1.5"/>
<circle cx="866" cy="367.6" r="1.5"/>
<circle cx="866" cy="376.5" r="1.5"/>
<circle cx="866" cy="385.4" r="1.5"/>
<circle cx="866" cy="518.3" r="1.5"/>
<circle cx="866" cy="527.1" r="1.5"/>
<circle cx="866" cy="536" r="1.5"/>
<circle cx="866" cy="544.8" r="1.5"/>
<circle cx="866" cy="553.7" r="1.5"/>
<circle cx="866" cy="562.6" r="1.5"/>
<circle cx="866" cy="571.4" r="1.5"/>
<circle cx="866" cy="580.3" r="1.5"/>
<circle cx="866" cy="589.2" r="1.5"/>
<circle cx="866" cy="598" r="1.5"/>
<circle cx="866" cy="606.9" r="1.5"/>
<circle cx="866" cy="615.7" r="1.5"/>
<circle cx="866" cy="624.6" r="1.5"/>
<circle cx="866" cy="633.5" r="1.5"/>
<circle cx="866" cy="642.3" r="1.5"/>
<circle cx="866" cy="651.2" r="1.5"/>
<circle cx="866" cy="660" r="1.5"/>
<circle cx="866" cy="668.9" r="1.5"/>
<path d="M866.9,677.8c0,0.8,0,1.5-0.9,1.5s-1.5-0.7-1.5-1.5s0.7-1.5,1.5-1.5S866.9,677,866.9,677.8z"/>
<circle cx="857.1" cy="376.5" r="1.5"/>
<circle cx="857.1" cy="385.4" r="1.5"/>
<circle cx="857.1" cy="394.2" r="1.5"/>
<circle cx="857.1" cy="403.1" r="1.5"/>
<circle cx="857.1" cy="411.9" r="1.5"/>
<circle cx="857.1" cy="420.8" r="1.5"/>
<circle cx="857.1" cy="429.7" r="1.5"/>
<circle cx="857.1" cy="553.7" r="1.5"/>
<circle cx="857.1" cy="562.6" r="1.5"/>
<circle cx="857.1" cy="571.4" r="1.5"/>
<circle cx="857.1" cy="580.3" r="1.5"/>
<circle cx="857.1" cy="589.2" r="1.5"/>
<circle cx="857.1" cy="598" r="1.5"/>
<circle cx="857.1" cy="606.9" r="1.5"/>
<circle cx="857.1" cy="615.7" r="1.5"/>
<circle cx="857.1" cy="624.6" r="1.5"/>
<circle cx="857.1" cy="633.5" r="1.5"/>
<circle cx="857.1" cy="642.3" r="1.5"/>
<circle cx="857.1" cy="651.2" r="1.5"/>
<circle cx="857.1" cy="660" r="1.5"/>
<circle cx="857.1" cy="668.9" r="1.5"/>
<circle cx="857.1" cy="677.8" r="1.5"/>
<circle cx="857.1" cy="686.6" r="1.5"/>
<circle cx="857.1" cy="695.5" r="1.5"/>
<circle cx="857.1" cy="704.3" r="1.5"/>
<circle cx="857.1" cy="713.2" r="1.5"/>
<circle cx="857.1" cy="722.1" r="1.5"/>
<circle cx="857.1" cy="730.9" r="1.5"/>
<circle cx="857.1" cy="739.8" r="1.5"/>
<circle cx="857.1" cy="748.7" r="1.5"/>
<circle cx="857.1" cy="757.5" r="1.5"/>
<circle cx="857.1" cy="766.4" r="1.5"/>
<path d="M857.5,775.2c0,0.8,0.4,1.5-0.4,1.5s-1.5-0.7-1.5-1.5s0.7-1.5,1.5-1.5S857.5,774.4,857.5,775.2z"/>
<circle cx="848.3" cy="403.1" r="1.5"/>
<circle cx="848.3" cy="411.9" r="1.5"/>
<circle cx="848.3" cy="420.8" r="1.5"/>
<circle cx="848.3" cy="429.7" r="1.5"/>
<circle cx="848.3" cy="438.5" r="1.5"/>
<circle cx="848.3" cy="447.4" r="1.5"/>
<circle cx="848.3" cy="456.2" r="1.5"/>
<circle cx="848.3" cy="465.1" r="1.5"/>
<circle cx="848.3" cy="474" r="1.5"/>
<circle cx="848.3" cy="482.8" r="1.5"/>
<path d="M849.1,491.7c0,0.8,0,1.5-0.8,1.5s-1.5-0.7-1.5-1.5s0.7-1.5,1.5-1.5S849.1,490.9,849.1,491.7z"/>
<circle cx="848.3" cy="598" r="1.5"/>
<circle cx="848.3" cy="606.9" r="1.5"/>
<circle cx="848.3" cy="615.7" r="1.5"/>
<circle cx="848.3" cy="624.6" r="1.5"/>
<circle cx="848.3" cy="633.5" r="1.5"/>
<circle cx="848.3" cy="642.3" r="1.5"/>
<circle cx="848.3" cy="651.2" r="1.5"/>
<circle cx="848.3" cy="660" r="1.5"/>
<circle cx="848.3" cy="668.9" r="1.5"/>
<circle cx="848.3" cy="677.8" r="1.5"/>
<circle cx="848.3" cy="686.6" r="1.5"/>
<circle cx="848.3" cy="695.5" r="1.5"/>
<circle cx="848.3" cy="704.3" r="1.5"/>
<circle cx="848.3" cy="713.2" r="1.5"/>
<circle cx="848.3" cy="722.1" r="1.5"/>
<circle cx="848.3" cy="730.9" r="1.5"/>
<circle cx="848.3" cy="739.8" r="1.5"/>
<circle cx="848.3" cy="748.7" r="1.5"/>
<circle cx="848.3" cy="757.5" r="1.5"/>
<circle cx="848.3" cy="766.4" r="1.5"/>
<circle cx="848.3" cy="775.2" r="1.5"/>
<circle cx="848.3" cy="784.1" r="1.5"/>
<circle cx="848.3" cy="793" r="1.5"/>
<circle cx="848.3" cy="801.8" r="1.5"/>
<circle cx="848.3" cy="810.7" r="1.5"/>
<circle cx="848.3" cy="819.5" r="1.5"/>
<circle cx="848.3" cy="828.4" r="1.5"/>
<circle cx="848.3" cy="837.3" r="1.5"/>
<circle cx="848.3" cy="846.1" r="1.5"/>
<circle cx="848.3" cy="855" r="1.5"/>
<circle cx="848.3" cy="863.8" r="1.5"/>
<circle cx="848.3" cy="872.7" r="1.5"/>
<circle cx="848.3" cy="881.6" r="1.5"/>
<circle cx="848.3" cy="890.4" r="1.5"/>
<circle cx="839.4" cy="438.5" r="1.5"/>
<circle cx="839.4" cy="447.4" r="1.5"/>
<circle cx="839.4" cy="456.2" r="1.5"/>
<circle cx="839.4" cy="465.1" r="1.5"/>
<circle cx="839.4" cy="474" r="1.5"/>
<circle cx="839.4" cy="482.8" r="1.5"/>
<circle cx="839.4" cy="491.7" r="1.5"/>
<circle cx="839.4" cy="500.5" r="1.5"/>
<circle cx="839.4" cy="509.4" r="1.5"/>
<circle cx="839.4" cy="518.3" r="1.5"/>
<circle cx="839.4" cy="527.1" r="1.5"/>
<circle cx="839.4" cy="536" r="1.5"/>
<circle cx="839.4" cy="544.8" r="1.5"/>
<circle cx="839.4" cy="553.7" r="1.5"/>
<path d="M840.2,562.6c0,0.8,0.1,1.5-0.7,1.5s-1.5-0.7-1.5-1.5s0.7-1.5,1.5-1.5S840.2,561.8,840.2,562.6z"/>
<circle cx="839.4" cy="642.3" r="1.5"/>
<circle cx="839.4" cy="651.2" r="1.5"/>
<circle cx="839.4" cy="660" r="1.5"/>
<circle cx="839.4" cy="668.9" r="1.5"/>
<circle cx="839.4" cy="677.8" r="1.5"/>
<circle cx="839.4" cy="686.6" r="1.5"/>
<circle cx="839.4" cy="695.5" r="1.5"/>
<circle cx="839.4" cy="704.3" r="1.5"/>
<circle cx="839.4" cy="713.2" r="1.5"/>
<circle cx="839.4" cy="722.1" r="1.5"/>
<circle cx="839.4" cy="730.9" r="1.5"/>
<circle cx="839.4" cy="739.8" r="1.5"/>
<circle cx="839.4" cy="748.7" r="1.5"/>
<circle cx="839.4" cy="757.5" r="1.5"/>
<circle cx="839.4" cy="766.4" r="1.5"/>
<circle cx="839.4" cy="775.2" r="1.5"/>
<circle cx="839.4" cy="784.1" r="1.5"/>
<circle cx="839.4" cy="793" r="1.5"/>
<circle cx="839.4" cy="801.8" r="1.5"/>
<circle cx="839.4" cy="810.7" r="1.5"/>
<circle cx="839.4" cy="819.5" r="1.5"/>
<circle cx="839.4" cy="828.4" r="1.5"/>
<circle cx="839.4" cy="837.3" r="1.5"/>
<circle cx="839.4" cy="846.1" r="1.5"/>
<circle cx="839.4" cy="855" r="1.5"/>
<circle cx="839.4" cy="863.8" r="1.5"/>
<circle cx="839.4" cy="872.7" r="1.5"/>
<circle cx="839.4" cy="881.6" r="1.5"/>
<circle cx="839.4" cy="890.4" r="1.5"/>
<path d="M832,465.1c0,0.8-0.7,1.5-1.5,1.5s-0.4-0.7-0.4-1.5s-0.4-1.5,0.4-1.5S832,464.3,832,465.1z"/>
<circle cx="830.5" cy="474" r="1.5"/>
<circle cx="830.5" cy="482.8" r="1.5"/>
<circle cx="830.5" cy="491.7" r="1.5"/>
<circle cx="830.5" cy="500.5" r="1.5"/>
<circle cx="830.5" cy="509.4" r="1.5"/>
<circle cx="830.5" cy="518.3" r="1.5"/>
<circle cx="830.5" cy="527.1" r="1.5"/>
<circle cx="830.5" cy="536" r="1.5"/>
<circle cx="830.5" cy="544.8" r="1.5"/>
<circle cx="830.5" cy="553.7" r="1.5"/>
<circle cx="830.5" cy="562.6" r="1.5"/>
<circle cx="830.5" cy="571.4" r="1.5"/>
<circle cx="830.5" cy="580.3" r="1.5"/>
<circle cx="830.5" cy="589.2" r="1.5"/>
<circle cx="830.5" cy="598" r="1.5"/>
<circle cx="830.5" cy="606.9" r="1.5"/>
<circle cx="830.5" cy="615.7" r="1.5"/>
<circle cx="830.5" cy="624.6" r="1.5"/>
<circle cx="830.5" cy="633.5" r="1.5"/>
<circle cx="830.5" cy="642.3" r="1.5"/>
<circle cx="830.5" cy="651.2" r="1.5"/>
<circle cx="830.5" cy="660" r="1.5"/>
<path d="M831.3,668.9c0,0.8,0.1,1.5-0.8,1.5s-1.5-0.7-1.5-1.5s0.7-1.5,1.5-1.5S831.3,668.1,831.3,668.9z"/>
<path d="M830.8,678.1c0,0.8,0.6,1.1-0.2,1.1s-1.5-0.7-1.5-1.5s0.7-1.5,1.5-1.5S830.8,677.3,830.8,678.1z"/>
<circle cx="830.5" cy="704.3" r="1.5"/>
<circle cx="830.5" cy="713.2" r="1.5"/>
<circle cx="830.5" cy="722.1" r="1.5"/>
<circle cx="830.5" cy="730.9" r="1.5"/>
<circle cx="830.5" cy="739.8" r="1.5"/>
<circle cx="830.5" cy="748.7" r="1.5"/>
<circle cx="830.5" cy="757.5" r="1.5"/>
<circle cx="830.5" cy="766.4" r="1.5"/>
<circle cx="830.5" cy="775.2" r="1.5"/>
<circle cx="830.5" cy="784.1" r="1.5"/>
<circle cx="830.5" cy="793" r="1.5"/>
<circle cx="830.5" cy="801.8" r="1.5"/>
<circle cx="830.5" cy="810.7" r="1.5"/>
<circle cx="830.5" cy="819.5" r="1.5"/>
<circle cx="830.5" cy="828.4" r="1.5"/>
<circle cx="830.5" cy="837.3" r="1.5"/>
<circle cx="830.5" cy="846.1" r="1.5"/>
<circle cx="830.5" cy="855" r="1.5"/>
<circle cx="830.5" cy="863.8" r="1.5"/>
<circle cx="830.5" cy="872.7" r="1.5"/>
<circle cx="830.5" cy="881.6" r="1.5"/>
<circle cx="830.5" cy="890.4" r="1.5"/>
<circle cx="821.7" cy="509.4" r="1.5"/>
<circle cx="821.7" cy="518.3" r="1.5"/>
<circle cx="821.7" cy="527.1" r="1.5"/>
<circle cx="821.7" cy="536" r="1.5"/>
<circle cx="821.7" cy="544.8" r="1.5"/>
<circle cx="821.7" cy="553.7" r="1.5"/>
<circle cx="821.7" cy="562.6" r="1.5"/>
<circle cx="821.7" cy="571.4" r="1.5"/>
<circle cx="821.7" cy="580.3" r="1.5"/>
<circle cx="821.7" cy="589.2" r="1.5"/>
<circle cx="821.7" cy="598" r="1.5"/>
<circle cx="821.7" cy="606.9" r="1.5"/>
<circle cx="821.7" cy="615.7" r="1.5"/>
<circle cx="821.7" cy="624.6" r="1.5"/>
<circle cx="821.7" cy="633.5" r="1.5"/>
<circle cx="821.7" cy="642.3" r="1.5"/>
<circle cx="821.7" cy="651.2" r="1.5"/>
<circle cx="821.7" cy="660" r="1.5"/>
<circle cx="821.7" cy="668.9" r="1.5"/>
<circle cx="821.7" cy="677.8" r="1.5"/>
<circle cx="821.7" cy="686.6" r="1.5"/>
<circle cx="821.7" cy="695.5" r="1.5"/>
<circle cx="821.7" cy="704.3" r="1.5"/>
<circle cx="821.7" cy="713.2" r="1.5"/>
<circle cx="821.7" cy="722.1" r="1.5"/>
<circle cx="821.7" cy="730.9" r="1.5"/>
<circle cx="821.7" cy="739.8" r="1.5"/>
<circle cx="821.7" cy="748.7" r="1.5"/>
<circle cx="821.7" cy="757.5" r="1.5"/>
<circle cx="821.7" cy="766.4" r="1.5"/>
<circle cx="821.7" cy="775.2" r="1.5"/>
<circle cx="821.7" cy="784.1" r="1.5"/>
<circle cx="821.7" cy="793" r="1.5"/>
<circle cx="821.7" cy="801.8" r="1.5"/>
<circle cx="821.7" cy="810.7" r="1.5"/>
<circle cx="821.7" cy="819.5" r="1.5"/>
<circle cx="821.7" cy="828.4" r="1.5"/>
<circle cx="821.7" cy="837.3" r="1.5"/>
<circle cx="821.7" cy="846.1" r="1.5"/>
<circle cx="821.7" cy="855" r="1.5"/>
<circle cx="821.7" cy="863.8" r="1.5"/>
<circle cx="821.7" cy="872.7" r="1.5"/>
<circle cx="821.7" cy="881.6" r="1.5"/>
<circle cx="821.7" cy="890.4" r="1.5"/>
<circle cx="812.8" cy="438.5" r="1.5"/>
<circle cx="812.8" cy="447.4" r="1.5"/>
<circle cx="812.8" cy="456.2" r="1.5"/>
<circle cx="812.8" cy="465.1" r="1.5"/>
<circle cx="812.8" cy="474" r="1.5"/>
<circle cx="812.8" cy="482.8" r="1.5"/>
<circle cx="812.8" cy="491.7" r="1.5"/>
<circle cx="812.8" cy="500.5" r="1.5"/>
<circle cx="812.8" cy="509.4" r="1.5"/>
<circle cx="812.8" cy="518.3" r="1.5"/>
<circle cx="812.8" cy="527.1" r="1.5"/>
<circle cx="812.8" cy="536" r="1.5"/>
<circle cx="812.8" cy="544.8" r="1.5"/>
<circle cx="812.8" cy="553.7" r="1.5"/>
<circle cx="812.8" cy="562.6" r="1.5"/>
<circle cx="812.8" cy="571.4" r="1.5"/>
<circle cx="812.8" cy="580.3" r="1.5"/>
<circle cx="812.8" cy="589.2" r="1.5"/>
<circle cx="812.8" cy="598" r="1.5"/>
<circle cx="812.8" cy="606.9" r="1.5"/>
<circle cx="812.8" cy="615.7" r="1.5"/>
<circle cx="812.8" cy="624.6" r="1.5"/>
<circle cx="812.8" cy="633.5" r="1.5"/>
<circle cx="812.8" cy="642.3" r="1.5"/>
<circle cx="812.8" cy="651.2" r="1.5"/>
<circle cx="812.8" cy="660" r="1.5"/>
<circle cx="812.8" cy="668.9" r="1.5"/>
<circle cx="812.8" cy="677.8" r="1.5"/>
<circle cx="812.8" cy="686.6" r="1.5"/>
<circle cx="812.8" cy="695.5" r="1.5"/>
<circle cx="812.8" cy="704.3" r="1.5"/>
<circle cx="812.8" cy="713.2" r="1.5"/>
<circle cx="812.8" cy="722.1" r="1.5"/>
<circle cx="812.8" cy="730.9" r="1.5"/>
<circle cx="812.8" cy="739.8" r="1.5"/>
<circle cx="812.8" cy="748.7" r="1.5"/>
<circle cx="812.8" cy="757.5" r="1.5"/>
<circle cx="812.8" cy="766.4" r="1.5"/>
<circle cx="812.8" cy="775.2" r="1.5"/>
<circle cx="812.8" cy="784.1" r="1.5"/>
<circle cx="812.8" cy="793" r="1.5"/>
<circle cx="812.8" cy="801.8" r="1.5"/>
<circle cx="812.8" cy="810.7" r="1.5"/>
<circle cx="812.8" cy="819.5" r="1.5"/>
<circle cx="812.8" cy="828.4" r="1.5"/>
<circle cx="812.8" cy="837.3" r="1.5"/>
<circle cx="812.8" cy="846.1" r="1.5"/>
<circle cx="812.8" cy="855" r="1.5"/>
<circle cx="812.8" cy="863.8" r="1.5"/>
<circle cx="812.8" cy="872.7" r="1.5"/>
<circle cx="812.8" cy="881.6" r="1.5"/>
<circle cx="812.8" cy="890.4" r="1.5"/>
<path d="M804.6,376.5c0,0.8,0.2,1.5-0.6,1.5s-1.5-0.7-1.5-1.5s0.7-1.5,1.5-1.5S804.6,375.7,804.6,376.5z"/>
<circle cx="804" cy="385.4" r="1.5"/>
<circle cx="804" cy="394.2" r="1.5"/>
<circle cx="804" cy="403.1" r="1.5"/>
<circle cx="804" cy="411.9" r="1.5"/>
<circle cx="804" cy="420.8" r="1.5"/>
<circle cx="804" cy="429.7" r="1.5"/>
<circle cx="804" cy="438.5" r="1.5"/>
<circle cx="804" cy="447.4" r="1.5"/>
<circle cx="804" cy="456.2" r="1.5"/>
<circle cx="804" cy="465.1" r="1.5"/>
<circle cx="804" cy="474" r="1.5"/>
<circle cx="804" cy="482.8" r="1.5"/>
<circle cx="804" cy="491.7" r="1.5"/>
<circle cx="804" cy="500.5" r="1.5"/>
<circle cx="804" cy="509.4" r="1.5"/>
<circle cx="804" cy="518.3" r="1.5"/>
<circle cx="804" cy="527.1" r="1.5"/>
<circle cx="804" cy="536" r="1.5"/>
<circle cx="804" cy="544.8" r="1.5"/>
<circle cx="804" cy="553.7" r="1.5"/>
<circle cx="804" cy="562.6" r="1.5"/>
<circle cx="804" cy="571.4" r="1.5"/>
<circle cx="804" cy="580.3" r="1.5"/>
<circle cx="804" cy="589.2" r="1.5"/>
<circle cx="804" cy="598" r="1.5"/>
<circle cx="804" cy="606.9" r="1.5"/>
<circle cx="804" cy="615.7" r="1.5"/>
<circle cx="804" cy="624.6" r="1.5"/>
<circle cx="804" cy="633.5" r="1.5"/>
<circle cx="804" cy="651.2" r="1.5"/>
<circle cx="804" cy="660" r="1.5"/>
<circle cx="804" cy="668.9" r="1.5"/>
<circle cx="804" cy="677.8" r="1.5"/>
<circle cx="804" cy="686.6" r="1.5"/>
<circle cx="804" cy="695.5" r="1.5"/>
<circle cx="804" cy="704.3" r="1.5"/>
<circle cx="804" cy="713.2" r="1.5"/>
<circle cx="804" cy="722.1" r="1.5"/>
<circle cx="804" cy="730.9" r="1.5"/>
<circle cx="804" cy="739.8" r="1.5"/>
<circle cx="804" cy="748.7" r="1.5"/>
<circle cx="804" cy="757.5" r="1.5"/>
<circle cx="804" cy="766.4" r="1.5"/>
<circle cx="804" cy="775.2" r="1.5"/>
<circle cx="804" cy="784.1" r="1.5"/>
<circle cx="804" cy="793" r="1.5"/>
<circle cx="804" cy="801.8" r="1.5"/>
<circle cx="804" cy="810.7" r="1.5"/>
<circle cx="804" cy="819.5" r="1.5"/>
<circle cx="804" cy="828.4" r="1.5"/>
<circle cx="804" cy="837.3" r="1.5"/>
<circle cx="804" cy="846.1" r="1.5"/>
<circle cx="804" cy="855" r="1.5"/>
<circle cx="804" cy="863.8" r="1.5"/>
<circle cx="804" cy="872.7" r="1.5"/>
<circle cx="804" cy="881.6" r="1.5"/>
<circle cx="804" cy="890.4" r="1.5"/>
<circle cx="795.1" cy="341" r="1.5"/>
<circle cx="795.1" cy="349.9" r="1.5"/>
<circle cx="795.1" cy="358.8" r="1.5"/>
<circle cx="795.1" cy="367.6" r="1.5"/>
<circle cx="795.1" cy="376.5" r="1.5"/>
<circle cx="795.1" cy="385.4" r="1.5"/>
<circle cx="795.1" cy="394.2" r="1.5"/>
<circle cx="795.1" cy="403.1" r="1.5"/>
<circle cx="795.1" cy="411.9" r="1.5"/>
<circle cx="795.1" cy="420.8" r="1.5"/>
<circle cx="795.1" cy="429.7" r="1.5"/>
<circle cx="795.1" cy="438.5" r="1.5"/>
<circle cx="795.1" cy="447.4" r="1.5"/>
<path d="M796.6,456.2c0,0.8-0.7,1.5-1.5,1.5s-0.8-0.7-0.8-1.5s0-1.5,0.8-1.5S796.6,455.4,796.6,456.2z"/>
<path d="M796.6,465.1c0,0.8-0.7,1.5-1.5,1.5s-0.5-0.7-0.5-1.5s-0.3-1.5,0.5-1.5S796.6,464.3,796.6,465.1z"/>
<path d="M796.6,474c0,0.8-0.7,1.5-1.5,1.5s-0.4-0.7-0.4-1.5s-0.5-1.5,0.4-1.5S796.6,473.1,796.6,474z"/>
<path d="M796.6,482.8c0,0.8-0.7,1.5-1.5,1.5s-0.4-0.7-0.4-1.5s-0.5-1.5,0.4-1.5S796.6,482,796.6,482.8z"/>
<path d="M796.6,491.7c0,0.8-0.7,1.5-1.5,1.5s0-0.7,0-1.5s-0.8-1.5,0-1.5S796.6,490.9,796.6,491.7z"/>
<path d="M796.6,500.5c0,0.8-0.7,1.5-1.5,1.5s-0.4-0.7-0.4-1.5s-0.5-1.5,0.4-1.5S796.6,499.7,796.6,500.5z"/>
<path d="M796.6,509.4c0,0.8-0.7,1.5-1.5,1.5s0-0.4,0-1.2s-0.8-1.7,0-1.7S796.6,508.6,796.6,509.4L796.6,509.4z"/>
<path d="M796.6,518.3c0,0.8-0.7,1.5-1.5,1.5s-0.4-0.7-0.4-1.5s-0.5-1.5,0.4-1.5S796.6,517.5,796.6,518.3z"/>
<path d="M796.6,527.1c0,0.8-0.7,1.5-1.5,1.5s-0.5-0.7-0.5-1.5s-0.3-1.5,0.5-1.5S796.6,526.3,796.6,527.1z"/>
<path d="M796.6,536c0,0.8-0.7,1.5-1.5,1.5s-0.5-0.7-0.5-1.5s-0.3-1.5,0.5-1.5S796.6,535.2,796.6,536z"/>
<path d="M796.6,544.8c0,0.8-0.7,1.5-1.5,1.5s-0.5-0.4-0.5-1.2s-0.3-1.8,0.5-1.8S796.6,544,796.6,544.8L796.6,544.8z"/>
<path d="M796.6,553.7c0,0.8-0.7,1.5-1.5,1.5s-1.1-0.7-1.1-1.5s0.2-1.5,1.1-1.5S796.6,552.9,796.6,553.7z"/>
<circle cx="795.1" cy="562.6" r="1.5"/>
<circle cx="795.1" cy="571.4" r="1.5"/>
<circle cx="795.1" cy="580.3" r="1.5"/>
<circle cx="795.1" cy="589.2" r="1.5"/>
<circle cx="795.1" cy="598" r="1.5"/>
<circle cx="795.1" cy="606.9" r="1.5"/>
<circle cx="795.1" cy="615.7" r="1.5"/>
<circle cx="795.1" cy="624.6" r="1.5"/>
<circle cx="795.1" cy="633.5" r="1.5"/>
<circle cx="795.1" cy="642.3" r="1.5"/>
<circle cx="795.1" cy="660" r="1.5"/>
<circle cx="795.1" cy="668.9" r="1.5"/>
<circle cx="795.1" cy="677.8" r="1.5"/>
<circle cx="795.1" cy="686.6" r="1.5"/>
<circle cx="795.1" cy="695.5" r="1.5"/>
<circle cx="795.1" cy="704.3" r="1.5"/>
<circle cx="795.1" cy="713.2" r="1.5"/>
<circle cx="795.1" cy="722.1" r="1.5"/>
<circle cx="795.1" cy="730.9" r="1.5"/>
<circle cx="795.1" cy="739.8" r="1.5"/>
<circle cx="795.1" cy="748.7" r="1.5"/>
<circle cx="795.1" cy="757.5" r="1.5"/>
<circle cx="795.1" cy="766.4" r="1.5"/>
<circle cx="795.1" cy="775.2" r="1.5"/>
<circle cx="795.1" cy="784.1" r="1.5"/>
<circle cx="795.1" cy="793" r="1.5"/>
<circle cx="795.1" cy="801.8" r="1.5"/>
<circle cx="795.1" cy="810.7" r="1.5"/>
<circle cx="795.1" cy="819.5" r="1.5"/>
<circle cx="795.1" cy="828.4" r="1.5"/>
<circle cx="795.1" cy="837.3" r="1.5"/>
<circle cx="795.1" cy="846.1" r="1.5"/>
<circle cx="795.1" cy="855" r="1.5"/>
<circle cx="795.1" cy="863.8" r="1.5"/>
<circle cx="795.1" cy="872.7" r="1.5"/>
<circle cx="795.1" cy="881.6" r="1.5"/>
<circle cx="795.1" cy="890.4" r="1.5"/>
<circle cx="786.2" cy="305.6" r="1.5"/>
<circle cx="786.2" cy="314.5" r="1.5"/>
<circle cx="786.2" cy="323.3" r="1.5"/>
<circle cx="786.2" cy="332.2" r="1.5"/>
<circle cx="786.2" cy="686.6" r="1.5"/>
<circle cx="786.2" cy="695.5" r="1.5"/>
<circle cx="786.2" cy="704.3" r="1.5"/>
<circle cx="786.2" cy="713.2" r="1.5"/>
<circle cx="786.2" cy="722.1" r="1.5"/>
<circle cx="786.2" cy="730.9" r="1.5"/>
<circle cx="786.2" cy="739.8" r="1.5"/>
<circle cx="786.2" cy="748.7" r="1.5"/>
<circle cx="786.2" cy="757.5" r="1.5"/>
<circle cx="786.2" cy="766.4" r="1.5"/>
<circle cx="786.2" cy="775.2" r="1.5"/>
<circle cx="786.2" cy="784.1" r="1.5"/>
<circle cx="786.2" cy="793" r="1.5"/>
<circle cx="786.2" cy="801.8" r="1.5"/>
<circle cx="786.2" cy="810.7" r="1.5"/>
<circle cx="786.2" cy="819.5" r="1.5"/>
<circle cx="786.2" cy="828.4" r="1.5"/>
<circle cx="786.2" cy="837.3" r="1.5"/>
<circle cx="786.2" cy="846.1" r="1.5"/>
<circle cx="786.2" cy="855" r="1.5"/>
<circle cx="786.2" cy="863.8" r="1.5"/>
<circle cx="786.2" cy="872.7" r="1.5"/>
<circle cx="786.2" cy="881.6" r="1.5"/>
<circle cx="786.2" cy="890.4" r="1.5"/>
<circle cx="777.4" cy="279" r="1.5"/>
<circle cx="777.4" cy="606.9" r="1.5"/>
<circle cx="777.4" cy="615.7" r="1.5"/>
<circle cx="777.4" cy="624.6" r="1.5"/>
<circle cx="777.4" cy="633.5" r="1.5"/>
<circle cx="777.4" cy="642.3" r="1.5"/>
<circle cx="777.4" cy="651.2" r="1.5"/>
<circle cx="777.4" cy="660" r="1.5"/>
<circle cx="777.4" cy="668.9" r="1.5"/>
<circle cx="777.4" cy="695.5" r="1.5"/>
<circle cx="777.4" cy="704.3" r="1.5"/>
<circle cx="777.4" cy="713.2" r="1.5"/>
<circle cx="777.4" cy="722.1" r="1.5"/>
<circle cx="777.4" cy="730.9" r="1.5"/>
<circle cx="777.4" cy="739.8" r="1.5"/>
<circle cx="777.4" cy="748.7" r="1.5"/>
<circle cx="777.4" cy="757.5" r="1.5"/>
<circle cx="777.4" cy="766.4" r="1.5"/>
<circle cx="777.4" cy="775.2" r="1.5"/>
<circle cx="777.4" cy="784.1" r="1.5"/>
<circle cx="777.4" cy="793" r="1.5"/>
<circle cx="777.4" cy="801.8" r="1.5"/>
<circle cx="777.4" cy="810.7" r="1.5"/>
<circle cx="777.4" cy="819.5" r="1.5"/>
<circle cx="777.4" cy="828.4" r="1.5"/>
<circle cx="777.4" cy="837.3" r="1.5"/>
<circle cx="777.4" cy="846.1" r="1.5"/>
<circle cx="777.4" cy="855" r="1.5"/>
<circle cx="777.4" cy="863.8" r="1.5"/>
<circle cx="777.4" cy="872.7" r="1.5"/>
<circle cx="777.4" cy="881.6" r="1.5"/>
<circle cx="777.4" cy="890.4" r="1.5"/>
<circle cx="768.5" cy="544.8" r="1.5"/>
<circle cx="768.5" cy="553.7" r="1.5"/>
<circle cx="768.5" cy="562.6" r="1.5"/>
<circle cx="768.5" cy="571.4" r="1.5"/>
<circle cx="768.5" cy="580.3" r="1.5"/>
<circle cx="768.5" cy="589.2" r="1.5"/>
<circle cx="768.5" cy="598" r="1.5"/>
<circle cx="768.5" cy="606.9" r="1.5"/>
<circle cx="768.5" cy="615.7" r="1.5"/>
<circle cx="768.5" cy="624.6" r="1.5"/>
<circle cx="768.5" cy="633.5" r="1.5"/>
<circle cx="768.5" cy="642.3" r="1.5"/>
<circle cx="768.5" cy="651.2" r="1.5"/>
<circle cx="768.5" cy="660" r="1.5"/>
<circle cx="768.5" cy="668.9" r="1.5"/>
<circle cx="768.5" cy="677.8" r="1.5"/>
<circle cx="768.5" cy="722.1" r="1.5"/>
<circle cx="768.5" cy="730.9" r="1.5"/>
<circle cx="768.5" cy="739.8" r="1.5"/>
<circle cx="768.5" cy="748.7" r="1.5"/>
<circle cx="768.5" cy="757.5" r="1.5"/>
<circle cx="768.5" cy="766.4" r="1.5"/>
<circle cx="768.5" cy="775.2" r="1.5"/>
<circle cx="768.5" cy="784.1" r="1.5"/>
<circle cx="768.5" cy="793" r="1.5"/>
<circle cx="768.5" cy="801.8" r="1.5"/>
<circle cx="768.5" cy="810.7" r="1.5"/>
<circle cx="768.5" cy="819.5" r="1.5"/>
<circle cx="768.5" cy="828.4" r="1.5"/>
<circle cx="768.5" cy="837.3" r="1.5"/>
<circle cx="768.5" cy="846.1" r="1.5"/>
<circle cx="768.5" cy="855" r="1.5"/>
<circle cx="768.5" cy="863.8" r="1.5"/>
<circle cx="768.5" cy="872.7" r="1.5"/>
<circle cx="768.5" cy="881.6" r="1.5"/>
<circle cx="768.5" cy="890.4" r="1.5"/>
<circle cx="759.7" cy="500.5" r="1.5"/>
<circle cx="759.7" cy="509.4" r="1.5"/>
<circle cx="759.7" cy="518.3" r="1.5"/>
<circle cx="759.7" cy="527.1" r="1.5"/>
<circle cx="759.7" cy="536" r="1.5"/>
<circle cx="759.7" cy="544.8" r="1.5"/>
<circle cx="759.7" cy="553.7" r="1.5"/>
<circle cx="759.7" cy="562.6" r="1.5"/>
<circle cx="759.7" cy="571.4" r="1.5"/>
<circle cx="759.7" cy="580.3" r="1.5"/>
<circle cx="759.7" cy="589.2" r="1.5"/>
<circle cx="759.7" cy="598" r="1.5"/>
<circle cx="759.7" cy="606.9" r="1.5"/>
<circle cx="759.7" cy="615.7" r="1.5"/>
<circle cx="759.7" cy="624.6" r="1.5"/>
<circle cx="759.7" cy="651.2" r="1.5"/>
<circle cx="759.7" cy="660" r="1.5"/>
<circle cx="759.7" cy="668.9" r="1.5"/>
<circle cx="759.7" cy="677.8" r="1.5"/>
<circle cx="759.7" cy="686.6" r="1.5"/>
<circle cx="759.7" cy="695.5" r="1.5"/>
<circle cx="759.7" cy="748.7" r="1.5"/>
<circle cx="759.7" cy="757.5" r="1.5"/>
<circle cx="759.7" cy="766.4" r="1.5"/>
<circle cx="759.7" cy="775.2" r="1.5"/>
<circle cx="759.7" cy="784.1" r="1.5"/>
<circle cx="759.7" cy="793" r="1.5"/>
<circle cx="759.7" cy="801.8" r="1.5"/>
<circle cx="759.7" cy="810.7" r="1.5"/>
<circle cx="759.7" cy="819.5" r="1.5"/>
<circle cx="759.7" cy="828.4" r="1.5"/>
<circle cx="759.7" cy="837.3" r="1.5"/>
<circle cx="759.7" cy="846.1" r="1.5"/>
<circle cx="759.7" cy="855" r="1.5"/>
<circle cx="759.7" cy="863.8" r="1.5"/>
<circle cx="759.7" cy="872.7" r="1.5"/>
<circle cx="759.7" cy="881.6" r="1.5"/>
<circle cx="759.7" cy="890.4" r="1.5"/>
<path d="M751.2,456.5c0,0.8,0.4,1.2-0.5,1.2s-1.5-0.7-1.5-1.5s0.7-1.5,1.5-1.5S751.2,455.7,751.2,456.5L751.2,456.5z"/>
<circle cx="750.8" cy="465.1" r="1.5"/>
<circle cx="750.8" cy="474" r="1.5"/>
<circle cx="750.8" cy="482.8" r="1.5"/>
<circle cx="750.8" cy="491.7" r="1.5"/>
<circle cx="750.8" cy="500.5" r="1.5"/>
<circle cx="750.8" cy="509.4" r="1.5"/>
<circle cx="750.8" cy="518.3" r="1.5"/>
<circle cx="750.8" cy="527.1" r="1.5"/>
<circle cx="750.8" cy="536" r="1.5"/>
<circle cx="750.8" cy="544.8" r="1.5"/>
<circle cx="750.8" cy="553.7" r="1.5"/>
<circle cx="750.8" cy="562.6" r="1.5"/>
<circle cx="750.8" cy="571.4" r="1.5"/>
<circle cx="750.8" cy="580.3" r="1.5"/>
<circle cx="750.8" cy="589.2" r="1.5"/>
<circle cx="750.8" cy="598" r="1.5"/>
<circle cx="750.8" cy="606.9" r="1.5"/>
<circle cx="750.8" cy="615.7" r="1.5"/>
<circle cx="750.8" cy="624.6" r="1.5"/>
<circle cx="750.8" cy="633.5" r="1.5"/>
<circle cx="750.8" cy="686.6" r="1.5"/>
<circle cx="750.8" cy="695.5" r="1.5"/>
<circle cx="750.8" cy="704.3" r="1.5"/>
<circle cx="750.8" cy="713.2" r="1.5"/>
<circle cx="750.8" cy="775.2" r="1.5"/>
<circle cx="750.8" cy="784.1" r="1.5"/>
<circle cx="750.8" cy="793" r="1.5"/>
<circle cx="750.8" cy="801.8" r="1.5"/>
<circle cx="750.8" cy="810.7" r="1.5"/>
<circle cx="750.8" cy="819.5" r="1.5"/>
<circle cx="750.8" cy="828.4" r="1.5"/>
<circle cx="750.8" cy="837.3" r="1.5"/>
<circle cx="750.8" cy="846.1" r="1.5"/>
<circle cx="750.8" cy="855" r="1.5"/>
<circle cx="750.8" cy="863.8" r="1.5"/>
<circle cx="750.8" cy="872.7" r="1.5"/>
<circle cx="741.9" cy="429.7" r="1.5"/>
<circle cx="741.9" cy="465.1" r="1.5"/>
<circle cx="741.9" cy="474" r="1.5"/>
<circle cx="741.9" cy="482.8" r="1.5"/>
<circle cx="741.9" cy="491.7" r="1.5"/>
<circle cx="741.9" cy="500.5" r="1.5"/>
<circle cx="741.9" cy="509.4" r="1.5"/>
<circle cx="741.9" cy="518.3" r="1.5"/>
<circle cx="741.9" cy="527.1" r="1.5"/>
<circle cx="741.9" cy="536" r="1.5"/>
<path d="M742.4,624.6c0,0.8,0.3,1.5-0.5,1.5s-1.5-0.7-1.5-1.5s0.7-1.5,1.5-1.5S742.4,623.8,742.4,624.6z"/>
<circle cx="741.9" cy="633.5" r="1.5"/>
<circle cx="741.9" cy="642.3" r="1.5"/>
<circle cx="741.9" cy="651.2" r="1.5"/>
<circle cx="741.9" cy="686.6" r="1.5"/>
<circle cx="741.9" cy="695.5" r="1.5"/>
<circle cx="741.9" cy="704.3" r="1.5"/>
<circle cx="741.9" cy="713.2" r="1.5"/>
<circle cx="741.9" cy="722.1" r="1.5"/>
<circle cx="741.9" cy="730.9" r="1.5"/>
<path d="M743.4,819.5c0,0.8-0.7,1.5-1.5,1.5s-0.9-0.7-0.9-1.5s0-1.5,0.9-1.5S743.4,818.7,743.4,819.5z"/>
<circle cx="741.9" cy="828.4" r="1.5"/>
<circle cx="741.9" cy="837.3" r="1.5"/>
<circle cx="741.9" cy="846.1" r="1.5"/>
<circle cx="741.9" cy="855" r="1.5"/>
<circle cx="741.9" cy="863.8" r="1.5"/>
<circle cx="741.9" cy="872.7" r="1.5"/>
<circle cx="733.1" cy="394.2" r="1.5"/>
<circle cx="733.1" cy="403.1" r="1.5"/>
<circle cx="733.1" cy="411.9" r="1.5"/>
<circle cx="733.1" cy="420.8" r="1.5"/>
<circle cx="733.1" cy="429.7" r="1.5"/>
<circle cx="733.1" cy="465.1" r="1.5"/>
<path d="M734.5,474c0,0.8-0.7,1.5-1.5,1.5s-0.8-0.7-0.8-1.5s0-1.5,0.8-1.5S734.5,473.1,734.5,474z"/>
<path d="M734,580.3c0,0.8-0.1,1.5-0.9,1.5s-1.5-0.7-1.5-1.5s0.7-1.5,1.5-1.5S734,579.5,734,580.3z"/>
<circle cx="733.1" cy="589.2" r="1.5"/>
<circle cx="733.1" cy="598" r="1.5"/>
<circle cx="733.1" cy="606.9" r="1.5"/>
<circle cx="733.1" cy="615.7" r="1.5"/>
<circle cx="733.1" cy="624.6" r="1.5"/>
<circle cx="733.1" cy="633.5" r="1.5"/>
<circle cx="733.1" cy="642.3" r="1.5"/>
<circle cx="733.1" cy="651.2" r="1.5"/>
<circle cx="733.1" cy="660" r="1.5"/>
<circle cx="733.1" cy="668.9" r="1.5"/>
<circle cx="733.1" cy="722.1" r="1.5"/>
<circle cx="733.1" cy="730.9" r="1.5"/>
<circle cx="733.1" cy="739.8" r="1.5"/>
<circle cx="733.1" cy="748.7" r="1.5"/>
<circle cx="733.1" cy="757.5" r="1.5"/>
<circle cx="724.2" cy="367.6" r="1.5"/>
<circle cx="724.2" cy="376.5" r="1.5"/>
<circle cx="724.2" cy="385.4" r="1.5"/>
<circle cx="724.2" cy="394.2" r="1.5"/>
<circle cx="724.2" cy="403.1" r="1.5"/>
<circle cx="724.2" cy="411.9" r="1.5"/>
<path d="M725.7,420.8c0,0.8-0.7,1.5-1.5,1.5s-0.8-0.7-0.8-1.5s0-1.5,0.8-1.5S725.7,420,725.7,420.8z"/>
<circle cx="724.2" cy="544.8" r="1.5"/>
<circle cx="724.2" cy="553.7" r="1.5"/>
<circle cx="724.2" cy="562.6" r="1.5"/>
<circle cx="724.2" cy="571.4" r="1.5"/>
<circle cx="724.2" cy="580.3" r="1.5"/>
<circle cx="724.2" cy="589.2" r="1.5"/>
<circle cx="724.2" cy="598" r="1.5"/>
<circle cx="724.2" cy="606.9" r="1.5"/>
<circle cx="724.2" cy="615.7" r="1.5"/>
<circle cx="724.2" cy="624.6" r="1.5"/>
<circle cx="724.2" cy="633.5" r="1.5"/>
<circle cx="724.2" cy="642.3" r="1.5"/>
<circle cx="724.2" cy="651.2" r="1.5"/>
<circle cx="724.2" cy="660" r="1.5"/>
<circle cx="724.2" cy="668.9" r="1.5"/>
<circle cx="724.2" cy="677.8" r="1.5"/>
<circle cx="724.2" cy="686.6" r="1.5"/>
<circle cx="715.3" cy="349.9" r="1.5"/>
<circle cx="715.3" cy="358.8" r="1.5"/>
<circle cx="715.3" cy="367.6" r="1.5"/>
<circle cx="715.3" cy="376.5" r="1.5"/>
<circle cx="715.3" cy="509.4" r="1.5"/>
<circle cx="715.3" cy="518.3" r="1.5"/>
<circle cx="715.3" cy="527.1" r="1.5"/>
<circle cx="715.3" cy="536" r="1.5"/>
<circle cx="715.3" cy="544.8" r="1.5"/>
<circle cx="715.3" cy="553.7" r="1.5"/>
<circle cx="715.3" cy="562.6" r="1.5"/>
<circle cx="715.3" cy="571.4" r="1.5"/>
<circle cx="715.3" cy="580.3" r="1.5"/>
<circle cx="715.3" cy="589.2" r="1.5"/>
<circle cx="715.3" cy="598" r="1.5"/>
<circle cx="715.3" cy="606.9" r="1.5"/>
<circle cx="715.3" cy="615.7" r="1.5"/>
<circle cx="715.3" cy="624.6" r="1.5"/>
<circle cx="715.3" cy="633.5" r="1.5"/>
<circle cx="715.3" cy="642.3" r="1.5"/>
<circle cx="715.3" cy="651.2" r="1.5"/>
<circle cx="715.3" cy="660" r="1.5"/>
<path d="M706.7,474.2c0,0.8,0.6,1.2-0.2,1.2s-1.5-0.7-1.5-1.5s0.1-1.4,1-1.4S706.7,473.4,706.7,474.2L706.7,474.2z"/>
<circle cx="706.5" cy="482.8" r="1.5"/>
<circle cx="706.5" cy="491.7" r="1.5"/>
<circle cx="706.5" cy="500.5" r="1.5"/>
<circle cx="706.5" cy="509.4" r="1.5"/>
<circle cx="706.5" cy="518.3" r="1.5"/>
<circle cx="706.5" cy="527.1" r="1.5"/>
<circle cx="706.5" cy="536" r="1.5"/>
<circle cx="706.5" cy="544.8" r="1.5"/>
<circle cx="706.5" cy="553.7" r="1.5"/>
<circle cx="706.5" cy="562.6" r="1.5"/>
<circle cx="706.5" cy="571.4" r="1.5"/>
<circle cx="706.5" cy="589.2" r="1.5"/>
<path d="M708,598c0,0.8-0.7,1.5-1.5,1.5s-0.6-0.7-0.6-1.5s-0.2-1.5,0.6-1.5S708,597.2,708,598z"/>
<circle cx="697.6" cy="305.6" r="1.5"/>
<circle cx="697.6" cy="474" r="1.5"/>
<circle cx="697.6" cy="482.8" r="1.5"/>
<circle cx="697.6" cy="491.7" r="1.5"/>
<circle cx="697.6" cy="500.5" r="1.5"/>
<circle cx="697.6" cy="509.4" r="1.5"/>
<circle cx="697.6" cy="518.3" r="1.5"/>
<circle cx="697.6" cy="527.1" r="1.5"/>
<circle cx="697.6" cy="536" r="1.5"/>
<circle cx="688.8" cy="474" r="1.5"/>
<circle cx="688.8" cy="482.8" r="1.5"/>
<circle cx="688.8" cy="491.7" r="1.5"/>
<circle cx="679.9" cy="403.1" r="1.5"/>
<circle cx="679.9" cy="411.9" r="1.5"/>
<circle cx="679.9" cy="420.8" r="1.5"/>
<circle cx="671" cy="385.4" r="1.5"/>
<circle cx="671" cy="394.2" r="1.5"/>
<circle cx="671" cy="403.1" r="1.5"/>
<circle cx="671" cy="411.9" r="1.5"/>
<circle cx="671" cy="420.8" r="1.5"/>
<circle cx="662.2" cy="376.5" r="1.5"/>
<circle cx="662.2" cy="385.4" r="1.5"/>
<circle cx="644.5" cy="332.2" r="1.5"/>
<circle cx="635.6" cy="314.5" r="1.5"/>
<line class="st2" x1="732.6" y1="896.2" x2="850.4" y2="896.2"/>
<path class="st1" d="M815.4,630.9c0,0-71.1,52.4-98.2,184.2c11-141.9,56.4-197.8,56.4-197.8S713,665,694.9,790.1
	c10-124.5-39.3-176.4-39.3-176.4s31.4,37.7,11.2,175.8c-16-127.8-77.3-169.1-77.3-169.1s45.7,49.4,54.1,195.2
	c-25.3-133.5-96.1-182.2-96.1-182.2S614,696.8,626,896.1h106.8C747.2,697.1,815.4,630.9,815.4,630.9L815.4,630.9z"/>
<ellipse transform="matrix(0.5 -0.866 0.866 0.5 13.2829 640.831)" class="st3" cx="561.6" cy="308.9" rx="123" ry="25.4"/>
<ellipse transform="matrix(0.866 -0.5 0.5 0.866 -97.4137 242.0209)" class="st3" cx="402.9" cy="302.8" rx="25.4" ry="123"/>
<rect x="431.2" y="505.8" class="st1" width="95.4" height="391.2"/>
<ellipse class="st1" cx="482.8" cy="293.1" rx="25.4" ry="123"/>
<ellipse transform="matrix(0.5 -0.866 0.866 0.5 -141.2557 490.4281)" class="st3" cx="354.1" cy="367.5" rx="25.4" ry="122.9"/>
<ellipse class="st1" cx="333.2" cy="445.7" rx="123" ry="25.4"/>
<ellipse transform="matrix(0.85 -0.5268 0.5268 0.85 -220.1581 268.8485)" class="st4" cx="362" cy="521" rx="123" ry="25.4"/>
<ellipse transform="matrix(0.5 -0.866 0.866 0.5 -301.4608 643.8867)" class="st3" cx="406.9" cy="583" rx="122.9" ry="25.4"/>
<ellipse transform="matrix(0.9015 -0.4327 0.4327 0.9015 -102.9008 300.5774)" class="st3" cx="609" cy="376.4" rx="123" ry="25.4"/>
<path class="st1" d="M633.8,420.3c67.9,0,123,11.4,123,25.4s-55,25.4-123,25.4c-67.9,0-123-11.4-123-25.4S565.9,420.3,633.8,420.3z"
	/>
<ellipse transform="matrix(0.5268 -0.85 0.85 0.5268 -158.0683 758.1498)" class="st4" cx="601.9" cy="521" rx="25.4" ry="123"/>
<ellipse transform="matrix(0.866 -0.5 0.5 0.866 -218.9039 359.6232)" class="st3" cx="561.6" cy="588.3" rx="25.4" ry="123"/>
<ellipse class="st1" cx="482.8" cy="606.4" rx="25.4" ry="123"/>
<circle class="st1" cx="482.8" cy="456.6" r="67.8"/>
<path class="st1" d="M431.2,81.3c0-17.9-44.4-32.4-99.1-32.4c-41.2,0-76.5,8.2-91.5,19.9c-25.1-6.4-58-10.2-93.9-10.2
	C67.8,58.6,3.8,77.2,3.8,100.1s64,41.5,142.9,41.5c19.3,0,37.7-1.1,54.5-3.1c20.2,2,43.1,3.1,67.4,3.1c80.8,0,146.4-12.5,146.4-27.8
	c0-3.6-3.7-7.1-10.4-10.3C421.1,97.6,431.2,89.9,431.2,81.3L431.2,81.3z"/>
<path class="st1" d="M984,160.3c0-18.8-36.1-34-80.6-34c-19.9,0-38.1,3.1-52.2,8.1c-0.6,0-1.1,0-1.7,0c-15.6,0-30,1.6-41.7,4.4
	c-3.1-14.3-45.5-25.6-97.3-25.6S613,125.5,613,140.5c0,5.5,5.8,10.6,15.8,14.9c-10,4.6-15.8,10.1-15.8,15.9
	c0,10.8,19.8,20.3,49.4,25.5c-5.2,2.7-8.1,5.8-8.1,9c0,11.8,39.4,21.4,88,21.4c40,0,73.8-6.5,84.5-15.4c12.3,2.7,27,4.3,42.8,4.3
	c43.5,0,78.8-12.1,78.8-27c0-0.2,0-0.4,0-0.6C969.9,182.4,984.1,172.1,984,160.3L984,160.3z"/>
<ellipse transform="matrix(0.2969 -0.9549 0.9549 0.2969 -247.7807 281.3287)" class="st4" cx="67.2" cy="308.9" rx="24.5" ry="53"/>
<ellipse transform="matrix(0.8034 -0.5954 0.5954 0.8034 -154.2407 100.6503)" class="st3" cx="75.3" cy="283.9" rx="12.1" ry="40.6"/>
<ellipse transform="matrix(0.9754 -0.2204 0.2204 0.9754 -71.0193 21.2685)" class="st4" cx="59.8" cy="328.9" rx="40.6" ry="12.1"/>
<path class="st1" d="M346,838.2h233.6c16.6,0,30.1,13.5,30.1,30.1l0,0c0,16.6-13.5,30.1-30.1,30.1H346c-16.6,0-30.1-13.5-30.1-30.1
	l0,0C315.9,851.7,329.4,838.2,346,838.2z"/>
<path class="st1" d="M585.9,838.8l158.8,35.1c8,1.7,12.9,8.5,10.9,15.1l0,0c-1.7,5.5-7.8,9.5-14.8,9.5H579.4"/>
<path class="st1" d="M453,875.5c0,15.2,7.9,27.5,17.6,27.5c2.2,0,4.2-0.6,6.1-1.7c4.8,3,12,4.9,20.1,4.9c14.5,0,26.3-6.2,26.3-13.8
	s-11.8-13.8-26.3-13.8c-3.1,0-6.1,0.3-8.8,0.8c0.1-1.3,0.2-2.6,0.2-4"/>
<path class="st1" d="M566,872.3c0,15.2,7.9,27.5,17.6,27.5c2.2,0,4.2-0.6,6.1-1.7c4.8,3,12,4.9,20.1,4.9c14.5,0,26.3-6.2,26.3-13.8
	s-11.8-13.8-26.3-13.8c-3.1,0-6.1,0.3-8.8,0.8c0.1-1.3,0.2-2.6,0.2-4"/>
<path class="st1" d="M320.5,869.9c0,15.2-7.9,27.5-17.6,27.5c-2.2,0-4.2-0.6-6.1-1.7c-4.8,3-12,4.9-20.1,4.9
	c-14.5,0-26.3-6.2-26.3-13.8s11.8-13.8,26.3-13.8c3.1,0,6.1,0.3,8.8,0.8c-0.1-1.3-0.2-2.6-0.2-4"/>
<ellipse class="st1" cx="360.8" cy="868.3" rx="78.4" ry="35.1"/>
<circle cx="298" cy="856.4" r="4.9"/>
<circle cx="421.5" cy="854.8" r="4.9"/>
<circle cx="521.4" cy="572.3" r="1.5"/>
<circle cx="521.4" cy="581.2" r="1.5"/>
<circle cx="521.4" cy="590" r="1.5"/>
<circle cx="521.4" cy="598.9" r="1.5"/>
<circle cx="521.4" cy="607.7" r="1.5"/>
<circle cx="521.4" cy="616.6" r="1.5"/>
<circle cx="521.4" cy="625.5" r="1.5"/>
<circle cx="521.4" cy="634.3" r="1.5"/>
<circle cx="521.4" cy="643.2" r="1.5"/>
<circle cx="521.4" cy="652" r="1.5"/>
<circle cx="521.4" cy="660.9" r="1.5"/>
<circle cx="521.4" cy="669.8" r="1.5"/>
<circle cx="521.4" cy="678.6" r="1.5"/>
<circle cx="521.4" cy="687.5" r="1.5"/>
<circle cx="521.4" cy="696.3" r="1.5"/>
<circle cx="521.4" cy="705.2" r="1.5"/>
<circle cx="521.4" cy="714.1" r="1.5"/>
<circle cx="521.4" cy="722.9" r="1.5"/>
<circle cx="521.4" cy="731.8" r="1.5"/>
<circle cx="521.4" cy="740.7" r="1.5"/>
<circle cx="521.4" cy="749.5" r="1.5"/>
<circle cx="521.4" cy="758.4" r="1.5"/>
<circle cx="521.4" cy="767.2" r="1.5"/>
<circle cx="521.4" cy="776.1" r="1.5"/>
<circle cx="521.4" cy="785" r="1.5"/>
<circle cx="521.4" cy="793.8" r="1.5"/>
<circle cx="521.4" cy="802.7" r="1.5"/>
<circle cx="521.4" cy="811.5" r="1.5"/>
<circle cx="521.4" cy="820.4" r="1.5"/>
<circle cx="521.4" cy="829.3" r="1.5"/>
<path d="M522.9,838.1c0,0.8-0.7,0.7-1.5,0.7s-1.5,0.1-1.5-0.7s0.7-1.5,1.5-1.5S522.9,837.3,522.9,838.1z"/>
<path d="M512.5,553.1c0.8,0,1.5,0.7,1.5,1.5s-0.7,1.5-1.5,1.5s-1.5-0.7-1.5-1.5S511.7,553.1,512.5,553.1z"/>
<path d="M512.5,562c0.8,0,1.5,0.7,1.5,1.5s-0.7,1.5-1.5,1.5s-1.5-0.7-1.5-1.5S511.7,562,512.5,562z"/>
<path d="M512.5,570.8c0.8,0,1.5,0.7,1.5,1.5s-0.7,1.5-1.5,1.5s-1.5-0.7-1.5-1.5S511.7,570.8,512.5,570.8z"/>
<path d="M512.5,579.7c0.8,0,1.5,0.7,1.5,1.5s-0.7,1.5-1.5,1.5s-1.5-0.7-1.5-1.5S511.7,579.7,512.5,579.7z"/>
<path d="M512.5,588.5c0.8,0,1.5,0.7,1.5,1.5s-0.7,1.5-1.5,1.5s-1.5-0.7-1.5-1.5S511.7,588.5,512.5,588.5z"/>
<path d="M512.5,597.4c0.8,0,1.5,0.7,1.5,1.5s-0.7,1.5-1.5,1.5s-1.5-0.7-1.5-1.5S511.7,597.4,512.5,597.4z"/>
<path d="M512.5,606.3c0.8,0,1.5,0.7,1.5,1.5s-0.7,1.5-1.5,1.5s-1.5-0.7-1.5-1.5S511.7,606.3,512.5,606.3z"/>
<path d="M512.5,615.1c0.8,0,1.5,0.7,1.5,1.5s-0.7,1.5-1.5,1.5s-1.5-0.7-1.5-1.5S511.7,615.1,512.5,615.1z"/>
<path d="M512.5,624c0.8,0,1.5,0.7,1.5,1.5s-0.7,1.5-1.5,1.5s-1.5-0.7-1.5-1.5S511.7,624,512.5,624z"/>
<path d="M512.5,632.9c0.8,0,1.5,0.7,1.5,1.5s-0.7,1.5-1.5,1.5s-1.5-0.7-1.5-1.5S511.7,632.9,512.5,632.9z"/>
<path d="M512.5,641.7c0.8,0,1.5,0.7,1.5,1.5s-0.7,1.5-1.5,1.5s-1.5-0.7-1.5-1.5S511.7,641.7,512.5,641.7z"/>
<path d="M512.5,650.6c0.8,0,1.5,0.7,1.5,1.5s-0.7,1.5-1.5,1.5s-1.5-0.7-1.5-1.5S511.7,650.6,512.5,650.6z"/>
<path d="M512.5,659.4c0.8,0,1.5,0.7,1.5,1.5s-0.7,1.5-1.5,1.5s-1.5-0.7-1.5-1.5S511.7,659.4,512.5,659.4z"/>
<path d="M512.5,668.3c0.8,0,1.5,0.7,1.5,1.5s-0.7,1.5-1.5,1.5s-1.5-0.7-1.5-1.5S511.7,668.3,512.5,668.3z"/>
<path d="M512.5,677.2c0.8,0,1.5,0.7,1.5,1.5s-0.7,1.5-1.5,1.5s-1.5-0.7-1.5-1.5S511.7,677.2,512.5,677.2z"/>
<path d="M512.5,686c0.8,0,1.5,0.7,1.5,1.5s-0.7,1.5-1.5,1.5s-1.5-0.7-1.5-1.5S511.7,686,512.5,686z"/>
<path d="M512.5,694.9c0.8,0,1.5,0.7,1.5,1.5s-0.7,1.5-1.5,1.5s-1.5-0.7-1.5-1.5S511.7,694.9,512.5,694.9z"/>
<path d="M512.5,703.7c0.8,0,1.5,0.7,1.5,1.5s-0.7,1.5-1.5,1.5s-1.5-0.7-1.5-1.5S511.7,703.7,512.5,703.7z"/>
<path d="M512.5,712.6c0.8,0,1.5,0.7,1.5,1.5s-0.7,1.5-1.5,1.5s-1.5-0.7-1.5-1.5S511.7,712.6,512.5,712.6z"/>
<path d="M512.5,721.5c0.8,0,1.5,0.7,1.5,1.5s-0.7,1.5-1.5,1.5s-1.5-0.7-1.5-1.5S511.7,721.5,512.5,721.5z"/>
<path d="M512.5,730.3c0.8,0,1.5,0.7,1.5,1.5s-0.7,1.5-1.5,1.5s-1.5-0.7-1.5-1.5S511.7,730.3,512.5,730.3z"/>
<path d="M512.5,739.2c0.8,0,1.5,0.7,1.5,1.5s-0.7,1.5-1.5,1.5s-1.5-0.7-1.5-1.5S511.7,739.2,512.5,739.2z"/>
<path d="M512.5,748c0.8,0,1.5,0.7,1.5,1.5s-0.7,1.5-1.5,1.5s-1.5-0.7-1.5-1.5S511.7,748,512.5,748z"/>
<path d="M512.5,756.9c0.8,0,1.5,0.7,1.5,1.5s-0.7,1.5-1.5,1.5s-1.5-0.7-1.5-1.5S511.7,756.9,512.5,756.9z"/>
<path d="M512.5,765.8c0.8,0,1.5,0.7,1.5,1.5s-0.7,1.5-1.5,1.5s-1.5-0.7-1.5-1.5S511.7,765.8,512.5,765.8z"/>
<path d="M512.5,774.6c0.8,0,1.5,0.7,1.5,1.5s-0.7,1.5-1.5,1.5s-1.5-0.7-1.5-1.5S511.7,774.6,512.5,774.6z"/>
<path d="M512.5,783.5c0.8,0,1.5,0.7,1.5,1.5s-0.7,1.5-1.5,1.5s-1.5-0.7-1.5-1.5S511.7,783.5,512.5,783.5z"/>
<path d="M512.5,792.3c0.8,0,1.5,0.7,1.5,1.5s-0.7,1.5-1.5,1.5s-1.5-0.7-1.5-1.5S511.7,792.3,512.5,792.3z"/>
<path d="M512.5,801.2c0.8,0,1.5,0.7,1.5,1.5s-0.7,1.5-1.5,1.5s-1.5-0.7-1.5-1.5S511.7,801.2,512.5,801.2z"/>
<path d="M512.5,810.1c0.8,0,1.5,0.7,1.5,1.5s-0.7,1.5-1.5,1.5s-1.5-0.7-1.5-1.5S511.7,810.1,512.5,810.1z"/>
<path d="M512.5,818.9c0.8,0,1.5,0.7,1.5,1.5s-0.7,1.5-1.5,1.5s-1.5-0.7-1.5-1.5S511.7,818.9,512.5,818.9z"/>
<path d="M512.5,827.8c0.8,0,1.5,0.7,1.5,1.5s-0.7,1.5-1.5,1.5s-1.5-0.7-1.5-1.5S511.7,827.8,512.5,827.8z"/>
<path d="M514,838.1c0,0.8-0.7,0.9-1.5,0.9s-1.5-0.1-1.5-0.9s0.7-1.5,1.5-1.5S514,837.3,514,838.1z"/>
<path d="M505.1,536.9c0,0.8-0.7,1.5-1.5,1.5s-0.5-0.7-0.5-1.5s-0.4-1.5,0.5-1.5S505.1,536,505.1,536.9z"/>
<path d="M505.1,678.6c0,0.8-0.7,1.5-1.5,1.5s-0.8-0.7-0.8-1.5s-0.1-1.5,0.8-1.5S505.1,677.8,505.1,678.6z"/>
<circle cx="503.7" cy="687.5" r="1.5"/>
<circle cx="503.7" cy="696.3" r="1.5"/>
<circle cx="503.7" cy="705.2" r="1.5"/>
<circle cx="503.7" cy="714.1" r="1.5"/>
<circle cx="503.7" cy="722.9" r="1.5"/>
<circle cx="503.7" cy="731.8" r="1.5"/>
<circle cx="503.7" cy="740.7" r="1.5"/>
<circle cx="503.7" cy="749.5" r="1.5"/>
<circle cx="503.7" cy="758.4" r="1.5"/>
<circle cx="503.7" cy="767.2" r="1.5"/>
<circle cx="503.7" cy="776.1" r="1.5"/>
<circle cx="503.7" cy="785" r="1.5"/>
<circle cx="503.7" cy="793.8" r="1.5"/>
<circle cx="503.7" cy="802.7" r="1.5"/>
<circle cx="503.7" cy="811.5" r="1.5"/>
<circle cx="503.7" cy="820.4" r="1.5"/>
<circle cx="503.7" cy="829.3" r="1.5"/>
<path d="M505.1,838.1c0,0.8-0.7,0.9-1.5,0.9s-1.5-0.1-1.5-0.9s0.7-1.5,1.5-1.5S505.1,837.3,505.1,838.1z"/>
<circle cx="494.8" cy="722.9" r="1.5"/>
<circle cx="494.8" cy="731.8" r="1.5"/>
<circle cx="494.8" cy="740.7" r="1.5"/>
<circle cx="494.8" cy="749.5" r="1.5"/>
<circle cx="494.8" cy="758.4" r="1.5"/>
<circle cx="494.8" cy="767.2" r="1.5"/>
<circle cx="494.8" cy="776.1" r="1.5"/>
<circle cx="494.8" cy="785" r="1.5"/>
<circle cx="494.8" cy="793.8" r="1.5"/>
<circle cx="494.8" cy="802.7" r="1.5"/>
<circle cx="494.8" cy="811.5" r="1.5"/>
<circle cx="494.8" cy="820.4" r="1.5"/>
<circle cx="494.8" cy="829.3" r="1.5"/>
<path d="M496.3,838.1c0,0.8-0.7,0.4-1.5,0.4s-1.5,0.4-1.5-0.4s0.7-1.5,1.5-1.5S496.3,837.3,496.3,838.1z"/>
<circle cx="485.9" cy="731.8" r="1.5"/>
<circle cx="485.9" cy="740.7" r="1.5"/>
<circle cx="485.9" cy="749.5" r="1.5"/>
<circle cx="485.9" cy="758.4" r="1.5"/>
<circle cx="485.9" cy="767.2" r="1.5"/>
<circle cx="485.9" cy="776.1" r="1.5"/>
<circle cx="485.9" cy="785" r="1.5"/>
<circle cx="485.9" cy="793.8" r="1.5"/>
<circle cx="485.9" cy="802.7" r="1.5"/>
<circle cx="485.9" cy="811.5" r="1.5"/>
<circle cx="485.9" cy="820.4" r="1.5"/>
<circle cx="485.9" cy="829.3" r="1.5"/>
<path d="M487.4,838.1c0,0.8-0.7,0.7-1.5,0.7s-1.5,0.1-1.5-0.7s0.7-1.5,1.5-1.5S487.4,837.3,487.4,838.1z"/>
<circle cx="477.1" cy="731.8" r="1.5"/>
<circle cx="477.1" cy="740.7" r="1.5"/>
<circle cx="477.1" cy="749.5" r="1.5"/>
<circle cx="477.1" cy="758.4" r="1.5"/>
<circle cx="477.1" cy="767.2" r="1.5"/>
<circle cx="477.1" cy="776.1" r="1.5"/>
<circle cx="477.1" cy="785" r="1.5"/>
<circle cx="477.1" cy="793.8" r="1.5"/>
<circle cx="477.1" cy="802.7" r="1.5"/>
<circle cx="477.1" cy="811.5" r="1.5"/>
<circle cx="477.1" cy="820.4" r="1.5"/>
<circle cx="477.1" cy="829.3" r="1.5"/>
<path d="M478.5,838.1c0,0.8-0.7,0.7-1.5,0.7s-1.5,0.1-1.5-0.7s0.7-1.5,1.5-1.5S478.5,837.3,478.5,838.1z"/>
<circle cx="468.2" cy="714.1" r="1.5"/>
<circle cx="468.2" cy="722.9" r="1.5"/>
<circle cx="468.2" cy="731.8" r="1.5"/>
<circle cx="468.2" cy="740.7" r="1.5"/>
<circle cx="468.2" cy="749.5" r="1.5"/>
<circle cx="468.2" cy="758.4" r="1.5"/>
<circle cx="468.2" cy="767.2" r="1.5"/>
<circle cx="468.2" cy="776.1" r="1.5"/>
<circle cx="468.2" cy="785" r="1.5"/>
<circle cx="468.2" cy="793.8" r="1.5"/>
<circle cx="468.2" cy="802.7" r="1.5"/>
<circle cx="468.2" cy="811.5" r="1.5"/>
<circle cx="468.2" cy="820.4" r="1.5"/>
<circle cx="468.2" cy="829.3" r="1.5"/>
<path d="M469.7,838.1c0,0.8-0.7,0.7-1.5,0.7s-1.5,0.2-1.5-0.7s0.7-1.5,1.5-1.5S469.7,837.3,469.7,838.1z"/>
<circle cx="459.4" cy="536.9" r="1.5"/>
<circle cx="459.4" cy="545.7" r="1.5"/>
<path d="M460.5,555.5c-0.3,0.3-0.7,0.5-1.1,0.5c-0.8,0-1.5-0.7-1.5-1.5s0.7-1.5,1.5-1.5c0.6,0,1.1,0.3,1.3,0.8
	C460.7,554,460.6,555.4,460.5,555.5L460.5,555.5z"/>
<path d="M459.8,652c0,0.8,0.4,1.5-0.4,1.5s-1.5-0.7-1.5-1.5s0.7-1.5,1.5-1.5S459.8,651.2,459.8,652z"/>
<circle cx="459.4" cy="660.9" r="1.5"/>
<circle cx="459.4" cy="669.8" r="1.5"/>
<circle cx="459.4" cy="678.6" r="1.5"/>
<circle cx="459.4" cy="687.5" r="1.5"/>
<circle cx="459.4" cy="696.3" r="1.5"/>
<circle cx="459.4" cy="705.2" r="1.5"/>
<circle cx="459.4" cy="714.1" r="1.5"/>
<circle cx="459.4" cy="722.9" r="1.5"/>
<circle cx="459.4" cy="731.8" r="1.5"/>
<circle cx="459.4" cy="740.7" r="1.5"/>
<circle cx="459.4" cy="749.5" r="1.5"/>
<circle cx="459.4" cy="758.4" r="1.5"/>
<circle cx="459.4" cy="767.2" r="1.5"/>
<circle cx="459.4" cy="776.1" r="1.5"/>
<circle cx="459.4" cy="785" r="1.5"/>
<circle cx="459.4" cy="793.8" r="1.5"/>
<circle cx="459.4" cy="802.7" r="1.5"/>
<circle cx="459.4" cy="811.5" r="1.5"/>
<circle cx="459.4" cy="820.4" r="1.5"/>
<circle cx="459.4" cy="829.3" r="1.5"/>
<path d="M460.8,838.1c0,0.8-0.7,0.7-1.5,0.7s-1.5,0.2-1.5-0.7s0.7-1.5,1.5-1.5S460.8,837.3,460.8,838.1z"/>
<path d="M452,554.6c0,0.8-0.7,1.5-1.5,1.5c-0.4,0-0.8-0.2-1-0.4c-0.1-0.2,0.1-0.9,0.4-1.5c0.2-0.5,0.3-1,0.7-1
	C451.3,553.1,452,553.8,452,554.6L452,554.6z"/>
<circle cx="450.5" cy="563.4" r="1.5"/>
<circle cx="450.5" cy="572.3" r="1.5"/>
<circle cx="450.5" cy="581.2" r="1.5"/>
<circle cx="450.5" cy="590" r="1.5"/>
<circle cx="450.5" cy="598.9" r="1.5"/>
<circle cx="450.5" cy="607.7" r="1.5"/>
<circle cx="450.5" cy="616.6" r="1.5"/>
<circle cx="450.5" cy="625.5" r="1.5"/>
<circle cx="450.5" cy="634.3" r="1.5"/>
<circle cx="450.5" cy="643.2" r="1.5"/>
<circle cx="450.5" cy="652" r="1.5"/>
<circle cx="450.5" cy="660.9" r="1.5"/>
<circle cx="450.5" cy="669.8" r="1.5"/>
<circle cx="450.5" cy="678.6" r="1.5"/>
<circle cx="450.5" cy="687.5" r="1.5"/>
<circle cx="450.5" cy="696.3" r="1.5"/>
<circle cx="450.5" cy="705.2" r="1.5"/>
<circle cx="450.5" cy="714.1" r="1.5"/>
<circle cx="450.5" cy="722.9" r="1.5"/>
<circle cx="450.5" cy="731.8" r="1.5"/>
<circle cx="450.5" cy="740.7" r="1.5"/>
<circle cx="450.5" cy="749.5" r="1.5"/>
<circle cx="450.5" cy="758.4" r="1.5"/>
<circle cx="450.5" cy="767.2" r="1.5"/>
<circle cx="450.5" cy="776.1" r="1.5"/>
<circle cx="450.5" cy="785" r="1.5"/>
<circle cx="450.5" cy="793.8" r="1.5"/>
<circle cx="450.5" cy="802.7" r="1.5"/>
<circle cx="450.5" cy="811.5" r="1.5"/>
<circle cx="450.5" cy="820.4" r="1.5"/>
<circle cx="450.5" cy="829.3" r="1.5"/>
<path d="M452,838.1c0,0.8-0.7,0.6-1.5,0.6s-1.5,0.2-1.5-0.6s0.7-1.5,1.5-1.5S452,837.3,452,838.1z"/>
<path d="M443.1,572.3c0,0.8-0.7,1.5-1.5,1.5s-0.5-0.7-0.5-1.5s0-0.8,0.5-1.5S443.1,571.5,443.1,572.3z"/>
<circle cx="441.6" cy="581.2" r="1.5"/>
<circle cx="441.6" cy="590" r="1.5"/>
<circle cx="441.6" cy="598.9" r="1.5"/>
<circle cx="441.6" cy="607.7" r="1.5"/>
<circle cx="441.6" cy="616.6" r="1.5"/>
<circle cx="441.6" cy="625.5" r="1.5"/>
<circle cx="441.6" cy="634.3" r="1.5"/>
<circle cx="441.6" cy="643.2" r="1.5"/>
<circle cx="441.6" cy="652" r="1.5"/>
<circle cx="441.6" cy="660.9" r="1.5"/>
<circle cx="441.6" cy="669.8" r="1.5"/>
<circle cx="441.6" cy="678.6" r="1.5"/>
<circle cx="441.6" cy="687.5" r="1.5"/>
<circle cx="441.6" cy="696.3" r="1.5"/>
<circle cx="441.6" cy="705.2" r="1.5"/>
<circle cx="441.6" cy="714.1" r="1.5"/>
<circle cx="441.6" cy="722.9" r="1.5"/>
<circle cx="441.6" cy="731.8" r="1.5"/>
<circle cx="441.6" cy="740.7" r="1.5"/>
<circle cx="441.6" cy="749.5" r="1.5"/>
<circle cx="441.6" cy="758.4" r="1.5"/>
<circle cx="441.6" cy="767.2" r="1.5"/>
<circle cx="441.6" cy="776.1" r="1.5"/>
<circle cx="441.6" cy="785" r="1.5"/>
<circle cx="441.6" cy="793.8" r="1.5"/>
<circle cx="441.6" cy="802.7" r="1.5"/>
<circle cx="441.6" cy="811.5" r="1.5"/>
<circle cx="441.6" cy="820.4" r="1.5"/>
<circle cx="441.6" cy="829.3" r="1.5"/>
<path d="M443.1,838.1c0,0.8-0.7,0.6-1.5,0.6s-1.5,0.2-1.5-0.6s0.7-1.5,1.5-1.5S443.1,837.3,443.1,838.1z"/>
<circle cx="432.8" cy="590" r="1.5"/>
<circle cx="432.8" cy="598.9" r="1.5"/>
<circle cx="432.8" cy="607.7" r="1.5"/>
<circle cx="432.8" cy="616.6" r="1.5"/>
<circle cx="432.8" cy="625.5" r="1.5"/>
<circle cx="432.8" cy="634.3" r="1.5"/>
<circle cx="432.8" cy="643.2" r="1.5"/>
<circle cx="432.8" cy="652" r="1.5"/>
<circle cx="432.8" cy="660.9" r="1.5"/>
<circle cx="432.8" cy="669.8" r="1.5"/>
<circle cx="432.8" cy="678.6" r="1.5"/>
<circle cx="432.8" cy="687.5" r="1.5"/>
<circle cx="432.8" cy="696.3" r="1.5"/>
<circle cx="432.8" cy="705.2" r="1.5"/>
<circle cx="432.8" cy="714.1" r="1.5"/>
<circle cx="432.8" cy="722.9" r="1.5"/>
<circle cx="432.8" cy="731.8" r="1.5"/>
<circle cx="432.8" cy="740.7" r="1.5"/>
<circle cx="432.8" cy="749.5" r="1.5"/>
<circle cx="432.8" cy="758.4" r="1.5"/>
<circle cx="432.8" cy="767.2" r="1.5"/>
<circle cx="432.8" cy="776.1" r="1.5"/>
<circle cx="432.8" cy="785" r="1.5"/>
<circle cx="432.8" cy="793.8" r="1.5"/>
<circle cx="432.8" cy="802.7" r="1.5"/>
<circle cx="432.8" cy="811.5" r="1.5"/>
<circle cx="432.8" cy="820.4" r="1.5"/>
<circle cx="432.8" cy="829.3" r="1.5"/>
<path d="M434.2,838.1c0,0.8-0.7,0.6-1.5,0.6s-1.5,0.2-1.5-0.6s0.7-1.5,1.5-1.5S434.2,837.3,434.2,838.1z"/>
<circle cx="547" cy="438" r="1.5"/>
<circle cx="547" cy="446.8" r="1.5"/>
<circle cx="547" cy="455.7" r="1.5"/>
<circle cx="547" cy="464.5" r="1.5"/>
<circle cx="547" cy="473.4" r="1.5"/>
<circle cx="538.2" cy="420.2" r="1.5"/>
<circle cx="538.2" cy="429.1" r="1.5"/>
<circle cx="538.2" cy="438" r="1.5"/>
<circle cx="538.2" cy="446.8" r="1.5"/>
<circle cx="538.2" cy="455.7" r="1.5"/>
<circle cx="538.2" cy="464.5" r="1.5"/>
<circle cx="538.2" cy="473.4" r="1.5"/>
<circle cx="538.2" cy="482.3" r="1.5"/>
<circle cx="538.2" cy="491.1" r="1.5"/>
<circle cx="529.3" cy="411.4" r="1.5"/>
<circle cx="529.3" cy="420.2" r="1.5"/>
<circle cx="529.3" cy="429.1" r="1.5"/>
<circle cx="529.3" cy="438" r="1.5"/>
<circle cx="529.3" cy="446.8" r="1.5"/>
<circle cx="529.3" cy="455.7" r="1.5"/>
<circle cx="529.3" cy="464.5" r="1.5"/>
<circle cx="529.3" cy="473.4" r="1.5"/>
<circle cx="529.3" cy="482.3" r="1.5"/>
<circle cx="529.3" cy="491.1" r="1.5"/>
<circle cx="529.3" cy="500" r="1.5"/>
<circle cx="520.4" cy="402.5" r="1.5"/>
<circle cx="520.4" cy="411.4" r="1.5"/>
<circle cx="520.4" cy="420.2" r="1.5"/>
<circle cx="520.4" cy="429.1" r="1.5"/>
<circle cx="520.4" cy="438" r="1.5"/>
<circle cx="520.4" cy="446.8" r="1.5"/>
<circle cx="520.4" cy="455.7" r="1.5"/>
<circle cx="520.4" cy="464.5" r="1.5"/>
<circle cx="520.4" cy="473.4" r="1.5"/>
<circle cx="520.4" cy="482.3" r="1.5"/>
<circle cx="520.4" cy="491.1" r="1.5"/>
<circle cx="520.4" cy="500" r="1.5"/>
<circle cx="520.4" cy="508.8" r="1.5"/>
<path d="M511.6,401c0.8,0,1.5,0.7,1.5,1.5s-0.7,1.5-1.5,1.5s-1.5-0.7-1.5-1.5S510.8,401,511.6,401z"/>
<path d="M511.6,409.9c0.8,0,1.5,0.7,1.5,1.5s-0.7,1.5-1.5,1.5s-1.5-0.7-1.5-1.5S510.8,409.9,511.6,409.9z"/>
<path d="M511.6,418.8c0.8,0,1.5,0.7,1.5,1.5s-0.7,1.5-1.5,1.5s-1.5-0.7-1.5-1.5S510.8,418.8,511.6,418.8z"/>
<path d="M511.6,427.6c0.8,0,1.5,0.7,1.5,1.5s-0.7,1.5-1.5,1.5s-1.5-0.7-1.5-1.5S510.8,427.6,511.6,427.6z"/>
<path d="M511.6,436.5c0.8,0,1.5,0.7,1.5,1.5s-0.7,1.5-1.5,1.5s-1.5-0.7-1.5-1.5S510.8,436.5,511.6,436.5z"/>
<path d="M511.6,445.3c0.8,0,1.5,0.7,1.5,1.5s-0.7,1.5-1.5,1.5s-1.5-0.7-1.5-1.5S510.8,445.3,511.6,445.3z"/>
<path d="M511.6,454.2c0.8,0,1.5,0.7,1.5,1.5s-0.7,1.5-1.5,1.5s-1.5-0.7-1.5-1.5S510.8,454.2,511.6,454.2z"/>
<path d="M511.6,463c0.8,0,1.5,0.7,1.5,1.5s-0.7,1.5-1.5,1.5s-1.5-0.7-1.5-1.5S510.8,463,511.6,463z"/>
<path d="M511.6,471.9c0.8,0,1.5,0.7,1.5,1.5s-0.7,1.5-1.5,1.5s-1.5-0.7-1.5-1.5S510.8,471.9,511.6,471.9z"/>
<path d="M511.6,480.8c0.8,0,1.5,0.7,1.5,1.5s-0.7,1.5-1.5,1.5s-1.5-0.7-1.5-1.5S510.8,480.8,511.6,480.8z"/>
<path d="M511.6,489.6c0.8,0,1.5,0.7,1.5,1.5s-0.7,1.5-1.5,1.5s-1.5-0.7-1.5-1.5S510.8,489.6,511.6,489.6z"/>
<path d="M511.6,498.5c0.8,0,1.5,0.7,1.5,1.5s-0.7,1.5-1.5,1.5s-1.5-0.7-1.5-1.5S510.8,498.5,511.6,498.5z"/>
<path d="M511.6,507.4c0.8,0,1.5,0.7,1.5,1.5s-0.7,1.5-1.5,1.5s-1.5-0.7-1.5-1.5S510.8,507.4,511.6,507.4z"/>
<path d="M513,517.7c0,0.8-0.9,1-1.8,1s-1.2-0.2-1.2-1s0.7-1.5,1.5-1.5C512.4,516.2,513,516.9,513,517.7z"/>
<circle cx="502.7" cy="393.6" r="1.5"/>
<circle cx="502.7" cy="402.5" r="1.5"/>
<circle cx="502.7" cy="411.4" r="1.5"/>
<circle cx="502.7" cy="420.2" r="1.5"/>
<circle cx="502.7" cy="429.1" r="1.5"/>
<circle cx="502.7" cy="438" r="1.5"/>
<circle cx="502.7" cy="446.8" r="1.5"/>
<circle cx="502.7" cy="455.7" r="1.5"/>
<circle cx="502.7" cy="464.5" r="1.5"/>
<circle cx="502.7" cy="473.4" r="1.5"/>
<circle cx="502.7" cy="482.3" r="1.5"/>
<circle cx="502.7" cy="491.1" r="1.5"/>
<circle cx="502.7" cy="500" r="1.5"/>
<circle cx="502.7" cy="508.8" r="1.5"/>
<circle cx="502.7" cy="517.7" r="1.5"/>
<circle cx="493.9" cy="393.6" r="1.5"/>
<circle cx="493.9" cy="402.5" r="1.5"/>
<circle cx="493.9" cy="411.4" r="1.5"/>
<circle cx="493.9" cy="420.2" r="1.5"/>
<circle cx="493.9" cy="429.1" r="1.5"/>
<circle cx="493.9" cy="438" r="1.5"/>
<circle cx="493.9" cy="446.8" r="1.5"/>
<circle cx="493.9" cy="455.7" r="1.5"/>
<circle cx="493.9" cy="464.5" r="1.5"/>
<circle cx="493.9" cy="473.4" r="1.5"/>
<circle cx="493.9" cy="482.3" r="1.5"/>
<circle cx="493.9" cy="491.1" r="1.5"/>
<circle cx="493.9" cy="500" r="1.5"/>
<circle cx="493.9" cy="508.8" r="1.5"/>
<circle cx="493.9" cy="517.7" r="1.5"/>
<circle cx="485" cy="393.6" r="1.5"/>
<circle cx="485" cy="402.5" r="1.5"/>
<circle cx="485" cy="411.4" r="1.5"/>
<circle cx="485" cy="420.2" r="1.5"/>
<circle cx="485" cy="429.1" r="1.5"/>
<circle cx="485" cy="438" r="1.5"/>
<circle cx="485" cy="446.8" r="1.5"/>
<circle cx="485" cy="455.7" r="1.5"/>
<circle cx="485" cy="464.5" r="1.5"/>
<circle cx="485" cy="473.4" r="1.5"/>
<circle cx="485" cy="482.3" r="1.5"/>
<circle cx="485" cy="491.1" r="1.5"/>
<circle cx="485" cy="500" r="1.5"/>
<circle cx="485" cy="508.8" r="1.5"/>
<circle cx="485" cy="517.7" r="1.5"/>
<circle cx="476.1" cy="393.6" r="1.5"/>
<circle cx="476.1" cy="402.5" r="1.5"/>
<circle cx="476.1" cy="411.4" r="1.5"/>
<circle cx="476.1" cy="420.2" r="1.5"/>
<circle cx="476.1" cy="429.1" r="1.5"/>
<circle cx="476.1" cy="438" r="1.5"/>
<circle cx="476.1" cy="446.8" r="1.5"/>
<circle cx="476.1" cy="455.7" r="1.5"/>
<circle cx="476.1" cy="464.5" r="1.5"/>
<circle cx="476.1" cy="473.4" r="1.5"/>
<circle cx="476.1" cy="482.3" r="1.5"/>
<circle cx="476.1" cy="491.1" r="1.5"/>
<circle cx="476.1" cy="500" r="1.5"/>
<circle cx="476.1" cy="508.8" r="1.5"/>
<circle cx="476.1" cy="517.7" r="1.5"/>
<circle cx="467.3" cy="393.6" r="1.5"/>
<circle cx="467.3" cy="402.5" r="1.5"/>
<circle cx="467.3" cy="411.4" r="1.5"/>
<circle cx="467.3" cy="420.2" r="1.5"/>
<circle cx="467.3" cy="429.1" r="1.5"/>
<circle cx="467.3" cy="438" r="1.5"/>
<circle cx="467.3" cy="446.8" r="1.5"/>
<circle cx="467.3" cy="455.7" r="1.5"/>
<circle cx="467.3" cy="464.5" r="1.5"/>
<circle cx="467.3" cy="473.4" r="1.5"/>
<circle cx="467.3" cy="482.3" r="1.5"/>
<circle cx="467.3" cy="491.1" r="1.5"/>
<circle cx="467.3" cy="500" r="1.5"/>
<circle cx="467.3" cy="508.8" r="1.5"/>
<circle cx="467.3" cy="517.7" r="1.5"/>
<path d="M459.9,393.6c0,0.8-0.7,1.5-1.5,1.5s-1.5-0.7-1.5-1.5s1-0.8,1.9-0.8S459.9,392.8,459.9,393.6L459.9,393.6z"/>
<circle cx="458.4" cy="402.5" r="1.5"/>
<circle cx="458.4" cy="411.4" r="1.5"/>
<circle cx="458.4" cy="420.2" r="1.5"/>
<circle cx="458.4" cy="429.1" r="1.5"/>
<circle cx="458.4" cy="438" r="1.5"/>
<circle cx="458.4" cy="446.8" r="1.5"/>
<circle cx="458.4" cy="455.7" r="1.5"/>
<circle cx="458.4" cy="464.5" r="1.5"/>
<circle cx="458.4" cy="473.4" r="1.5"/>
<circle cx="458.4" cy="482.3" r="1.5"/>
<circle cx="458.4" cy="491.1" r="1.5"/>
<circle cx="458.4" cy="500" r="1.5"/>
<circle cx="458.4" cy="508.8" r="1.5"/>
<circle cx="458.4" cy="517.7" r="1.5"/>
<circle cx="449.5" cy="402.5" r="1.5"/>
<circle cx="449.5" cy="411.4" r="1.5"/>
<circle cx="449.5" cy="420.2" r="1.5"/>
<circle cx="449.5" cy="429.1" r="1.5"/>
<circle cx="449.5" cy="438" r="1.5"/>
<circle cx="449.5" cy="446.8" r="1.5"/>
<circle cx="449.5" cy="455.7" r="1.5"/>
<circle cx="449.5" cy="464.5" r="1.5"/>
<circle cx="449.5" cy="473.4" r="1.5"/>
<circle cx="449.5" cy="482.3" r="1.5"/>
<circle cx="449.5" cy="491.1" r="1.5"/>
<circle cx="449.5" cy="500" r="1.5"/>
<circle cx="449.5" cy="508.8" r="1.5"/>
<circle cx="440.7" cy="411.4" r="1.5"/>
<circle cx="440.7" cy="420.2" r="1.5"/>
<circle cx="440.7" cy="429.1" r="1.5"/>
<circle cx="440.7" cy="438" r="1.5"/>
<circle cx="440.7" cy="446.8" r="1.5"/>
<circle cx="440.7" cy="455.7" r="1.5"/>
<circle cx="440.7" cy="464.5" r="1.5"/>
<circle cx="440.7" cy="473.4" r="1.5"/>
<circle cx="440.7" cy="482.3" r="1.5"/>
<circle cx="440.7" cy="491.1" r="1.5"/>
<circle cx="440.7" cy="500" r="1.5"/>
<circle cx="440.7" cy="508.8" r="1.5"/>
<circle cx="431.8" cy="420.2" r="1.5"/>
<circle cx="431.8" cy="429.1" r="1.5"/>
<circle cx="431.8" cy="438" r="1.5"/>
<circle cx="431.8" cy="446.8" r="1.5"/>
<circle cx="431.8" cy="455.7" r="1.5"/>
<circle cx="431.8" cy="464.5" r="1.5"/>
<circle cx="431.8" cy="473.4" r="1.5"/>
<circle cx="431.8" cy="482.3" r="1.5"/>
<circle cx="431.8" cy="491.1" r="1.5"/>
<circle cx="431.8" cy="500" r="1.5"/>
<circle cx="423" cy="429.1" r="1.5"/>
<circle cx="423" cy="438" r="1.5"/>
<circle cx="423" cy="446.8" r="1.5"/>
<circle cx="423" cy="455.7" r="1.5"/>
<circle cx="423" cy="464.5" r="1.5"/>
<circle cx="423" cy="473.4" r="1.5"/>
<circle cx="423" cy="482.3" r="1.5"/>
<circle cx="110" cy="308" r="1.5"/>
<circle cx="110" cy="316.8" r="1.5"/>
<circle cx="110" cy="325.7" r="1.5"/>
<circle cx="101.1" cy="299.1" r="1.5"/>
<path d="M102.6,308c0,0.8-0.7,1.5-1.5,1.5s-0.7-0.5-0.7-1.4s-0.1-1.6,0.7-1.6S102.6,307.2,102.6,308L102.6,308z"/>
<circle cx="101.1" cy="316.8" r="1.5"/>
<circle cx="101.1" cy="325.7" r="1.5"/>
<circle cx="101.1" cy="334.5" r="1.5"/>
<circle cx="92.2" cy="334.5" r="1.5"/>
<circle cx="83.4" cy="334.5" r="1.5"/>
<circle cx="74.5" cy="308" r="1.5"/>
<circle cx="65.7" cy="299.1" r="1.5"/>
<circle cx="65.7" cy="308" r="1.5"/>
<circle cx="56.8" cy="281.4" r="1.5"/>
<circle cx="56.8" cy="290.2" r="1.5"/>
<circle cx="56.8" cy="299.1" r="1.5"/>
<circle cx="56.8" cy="308" r="1.5"/>
<circle cx="56.8" cy="316.8" r="1.5"/>
<circle cx="47.9" cy="281.4" r="1.5"/>
<circle cx="47.9" cy="290.2" r="1.5"/>
<circle cx="47.9" cy="299.1" r="1.5"/>
<circle cx="47.9" cy="308" r="1.5"/>
<circle cx="47.9" cy="316.8" r="1.5"/>
<circle cx="39.1" cy="281.4" r="1.5"/>
<circle cx="39.1" cy="290.2" r="1.5"/>
<circle cx="39.1" cy="299.1" r="1.5"/>
<circle cx="39.1" cy="308" r="1.5"/>
<circle cx="39.1" cy="316.8" r="1.5"/>
<circle cx="30.2" cy="290.2" r="1.5"/>
<circle cx="30.2" cy="299.1" r="1.5"/>
<circle cx="30.2" cy="308" r="1.5"/>
<circle cx="30.2" cy="316.8" r="1.5"/>
<circle cx="21.4" cy="290.2" r="1.5"/>
<circle cx="21.4" cy="299.1" r="1.5"/>
<circle cx="21.4" cy="308" r="1.5"/>
<path class="st1" d="M271.8,630.9c0,0-71.1,52.4-98.2,184.2c11-141.9,56.4-197.8,56.4-197.8s-60.6,47.6-78.7,172.7
	c10-124.5-39.3-176.4-39.3-176.4s31.4,37.7,11.2,175.8c-16-127.8-77.3-169.1-77.3-169.1s45.7,49.4,54.1,195.2
	c-25.4-133.3-96.2-182-96.2-182s66.7,63.4,78.7,262.7h107.1C204,697.1,271.8,630.9,271.8,630.9L271.8,630.9z"/>
</svg>
