<?xml version="1.0" encoding="utf-8"?>
<!-- Generator: $$$/GeneralStr/196=Adobe Illustrator 27.6.0, SVG Export Plug-In . SVG Version: 6.00 Build 0)  -->
<svg version="1.1" id="b" xmlns="http://www.w3.org/2000/svg" xmlns:xlink="http://www.w3.org/1999/xlink" x="0px" y="0px"
	 viewBox="0 0 1000 830.5" style="enable-background:new 0 0 1000 830.5;" xml:space="preserve">
<style type="text/css">
	.st0{fill:#009770;}
	.st1{fill:#009770;stroke:#000000;stroke-width:3.3817;stroke-linecap:round;stroke-linejoin:round;}
	.st2{fill:#009770;stroke:#000000;stroke-width:3.3819;stroke-linecap:round;stroke-linejoin:round;stroke-miterlimit:4.0002;}
	.st3{fill:none;stroke:#000000;stroke-width:3.3817;stroke-linecap:round;stroke-linejoin:round;}
</style>
<rect class="st0" width="1000" height="830.5"/>
<g>
	<polyline class="st1" points="6.3,642.9 530.6,19.5 672.8,138.9 148.5,762.5 	"/>
	
		<ellipse transform="matrix(0.6436 -0.7654 0.7654 0.6436 157.7294 489.8623)" class="st2" cx="604.8" cy="75.6" rx="36.1" ry="92.9"/>
	
		<ellipse transform="matrix(0.6436 -0.7654 0.7654 0.6436 157.7296 489.8625)" class="st2" cx="604.8" cy="75.6" rx="22.1" ry="56.8"/>
	<path d="M646.2,90.2c0,0.9,0.2,1.4-0.7,1.3s-1.6-0.7-1.5-1.6s0.7-1.6,1.6-1.5S646.2,89.3,646.2,90.2z"/>
	
		<ellipse transform="matrix(3.630095e-02 -0.9993 0.9993 3.630095e-02 522.2603 740.8623)" cx="645.3" cy="99.6" rx="1.6" ry="1.6"/>
	
		<ellipse transform="matrix(3.630098e-02 -0.9993 0.9993 3.630098e-02 512.1207 749.7272)" cx="644.8" cy="109.3" rx="1.6" ry="1.6"/>
	
		<ellipse transform="matrix(3.630098e-02 -0.9993 0.9993 3.630098e-02 533.4216 712.7125)" cx="636.2" cy="79.8" rx="1.6" ry="1.6"/>
	
		<ellipse transform="matrix(3.630092e-02 -0.9993 0.9993 3.630092e-02 523.2531 721.7445)" cx="635.8" cy="89.6" rx="1.6" ry="1.6"/>
	<ellipse transform="matrix(3.630095e-02 -0.9993 0.9993 3.630095e-02 513.203 730.7089)" cx="635.5" cy="99.3" rx="1.6" ry="1.6"/>
	
		<ellipse transform="matrix(3.630097e-02 -0.9993 0.9993 3.630097e-02 503.3455 739.6873)" cx="635.2" cy="108.9" rx="1.6" ry="1.6"/>
	
		<ellipse transform="matrix(3.630101e-02 -0.9993 0.9993 3.630101e-02 534.4399 693.5797)" cx="626.8" cy="69.7" rx="1.6" ry="1.6"/>
	<ellipse transform="matrix(3.630098e-02 -0.9993 0.9993 3.630098e-02 524.39 702.5441)" cx="626.5" cy="79.4" rx="1.6" ry="1.6"/>
	
		<ellipse transform="matrix(3.630095e-02 -0.9993 0.9993 3.630095e-02 514.2214 711.5757)" cx="626.1" cy="89.2" rx="1.6" ry="1.6"/>
	
		<ellipse transform="matrix(3.630089e-02 -0.9993 0.9993 3.630089e-02 504.1749 720.5443)" cx="625.7" cy="98.9" rx="1.6" ry="1.6"/>
	
		<ellipse transform="matrix(3.630092e-02 -0.9993 0.9993 3.630092e-02 494.1209 729.5123)" cx="625.3" cy="108.6" rx="1.6" ry="1.6"/>
	<ellipse transform="matrix(3.630095e-02 -0.9993 0.9993 3.630095e-02 535.3334 674.551)" cx="617.4" cy="59.7" rx="1.6" ry="1.6"/>
	<ellipse transform="matrix(3.630099e-02 -0.9993 0.9993 3.630099e-02 525.3828 683.4262)" cx="617" cy="69.3" rx="1.6" ry="1.6"/>
	<ellipse transform="matrix(3.630092e-02 -0.9993 0.9993 3.630092e-02 515.322 692.587)" cx="616.8" cy="79.1" rx="1.6" ry="1.6"/>
	
		<ellipse transform="matrix(3.630093e-02 -0.9993 0.9993 3.630093e-02 505.2569 701.5258)" cx="616.4" cy="88.8" rx="1.6" ry="1.6"/>
	<ellipse transform="matrix(3.630095e-02 -0.9993 0.9993 3.630095e-02 495.1034 710.5831)" cx="616" cy="98.6" rx="1.6" ry="1.6"/>
	
		<ellipse transform="matrix(3.630093e-02 -0.9993 0.9993 3.630093e-02 485.2457 719.5617)" cx="615.7" cy="108.2" rx="1.6" ry="1.6"/>
	
		<ellipse transform="matrix(3.630100e-02 -0.9993 0.9993 3.630100e-02 526.3655 664.4971)" cx="607.7" cy="59.3" rx="1.6" ry="1.6"/>
	<ellipse transform="matrix(3.630100e-02 -0.9993 0.9993 3.630100e-02 516.4041 673.5685)" cx="607.4" cy="69" rx="1.6" ry="1.6"/>
	<ellipse transform="matrix(3.630092e-02 -0.9993 0.9993 3.630092e-02 506.354 682.5331)" cx="607.1" cy="78.7" rx="1.6" ry="1.6"/>
	<ellipse transform="matrix(3.630092e-02 -0.9993 0.9993 3.630092e-02 496.2784 691.668)" cx="606.8" cy="88.5" rx="1.6" ry="1.6"/>
	
		<ellipse transform="matrix(3.630094e-02 -0.9993 0.9993 3.630094e-02 486.1389 700.5329)" cx="606.3" cy="98.2" rx="1.6" ry="1.6"/>
	
		<ellipse transform="matrix(3.630097e-02 -0.9993 0.9993 3.630097e-02 527.2943 645.2646)" cx="598.2" cy="49.2" rx="1.6" ry="1.6"/>
	<ellipse transform="matrix(3.630092e-02 -0.9993 0.9993 3.630092e-02 517.2336 654.4251)" cx="597.9" cy="59" rx="1.6" ry="1.6"/>
	
		<ellipse transform="matrix(3.630074e-02 -0.9993 0.9993 3.630074e-02 507.2831 663.3005)" cx="597.6" cy="68.6" rx="1.6" ry="1.6"/>
	
		<ellipse transform="matrix(3.630097e-02 -0.9993 0.9993 3.630097e-02 497.2223 672.4611)" cx="597.3" cy="78.4" rx="1.6" ry="1.6"/>
	
		<ellipse transform="matrix(3.630106e-02 -0.9993 0.9993 3.630106e-02 487.1573 681.4001)" cx="596.9" cy="88.1" rx="1.6" ry="1.6"/>
	<path d="M590.5,39.9c0,0.9-0.7,0.8-1.6,0.7c-0.9,0-1.6-0.7-1.5-1.6c0-0.9,0.7-0.2,1.6-0.2C589.9,38.9,590.5,39,590.5,39.9
		L590.5,39.9z"/>
	<ellipse transform="matrix(3.630083e-02 -0.9993 0.9993 3.630083e-02 518.316 635.4069)" cx="588.6" cy="49" rx="1.6" ry="1.6"/>
	
		<ellipse transform="matrix(3.630100e-02 -0.9993 0.9993 3.630100e-02 508.3654 644.2821)" cx="588.2" cy="58.6" rx="1.6" ry="1.6"/>
	<ellipse transform="matrix(3.630098e-02 -0.9993 0.9993 3.630098e-02 498.3047 653.4427)" cx="588" cy="68.4" rx="1.6" ry="1.6"/>
	
		<ellipse transform="matrix(3.630111e-02 -0.9993 0.9993 3.630111e-02 488.2645 662.2184)" cx="587.5" cy="77.9" rx="1.6" ry="1.6"/>
	
		<ellipse transform="matrix(3.630098e-02 -0.9993 0.9993 3.630098e-02 478.0894 671.4426)" cx="587.2" cy="87.8" rx="1.6" ry="1.6"/>
	<ellipse transform="matrix(3.630089e-02 -0.9993 0.9993 3.630089e-02 519.4232 616.225)" cx="579.2" cy="38.8" rx="1.6" ry="1.6"/>
	
		<ellipse transform="matrix(3.630092e-02 -0.9993 0.9993 3.630092e-02 509.3514 625.3568)" cx="578.9" cy="48.6" rx="1.6" ry="1.6"/>
	
		<ellipse transform="matrix(3.630097e-02 -0.9993 0.9993 3.630097e-02 499.4007 634.2319)" cx="578.5" cy="58.2" rx="1.6" ry="1.6"/>
	<ellipse transform="matrix(3.630083e-02 -0.9993 0.9993 3.630083e-02 489.2473 643.2894)" cx="578.2" cy="68" rx="1.6" ry="1.6"/>
	
		<ellipse transform="matrix(3.630098e-02 -0.9993 0.9993 3.630098e-02 479.3895 652.2675)" cx="577.9" cy="77.6" rx="1.6" ry="1.6"/>
	<ellipse transform="matrix(3.630097e-02 -0.9993 0.9993 3.630097e-02 510.548 606.2744)" cx="569.6" cy="38.4" rx="1.6" ry="1.6"/>
	
		<ellipse transform="matrix(3.630083e-02 -0.9993 0.9993 3.630083e-02 500.3835 615.3029)" cx="569.2" cy="48.2" rx="1.6" ry="1.6"/>
	
		<ellipse transform="matrix(3.630103e-02 -0.9993 0.9993 3.630103e-02 490.4222 624.3738)" cx="568.9" cy="57.9" rx="1.6" ry="1.6"/>
	<ellipse transform="matrix(3.630103e-02 -0.9993 0.9993 3.630103e-02 480.372 633.3385)" cx="568.6" cy="67.6" rx="1.6" ry="1.6"/>
	<path d="M561.1,47.9c0,0.9-0.7,1.6-1.6,1.5s-0.9-0.7-0.8-1.6c0-0.9,0.1-1.6,1-1.5C560.5,46.3,561.2,47,561.1,47.9z"/>
	<path class="st1" d="M147.8,763.1c-12.8,15.2-55.1,0.8-94.3-32.2s-60.7-72.1-47.8-87.3"/>
</g>
<rect x="171.5" y="391.3" class="st1" width="445.2" height="429.3"/>
<rect x="615.3" y="391.3" class="st1" width="382.7" height="429.3"/>
<line class="st3" x1="171.5" y1="552.1" x2="615" y2="753.2"/>
<polyline class="st3" points="403.5,656.4 613.4,524.5 887.3,391.2 "/>
<line class="st3" x1="730.6" y1="820.2" x2="997.5" y2="620"/>
<polygon class="st1" points="636.3,182.3 849.5,391.3 460.9,391.2 "/>
<line class="st3" x1="597.7" y1="230.7" x2="686.2" y2="317.3"/>
<line class="st3" x1="557.7" y1="276.7" x2="595.2" y2="313.4"/>
<g>
	<circle cx="917.3" cy="685.3" r="1.7"/>
	<circle cx="917.3" cy="695.5" r="1.7"/>
	<circle cx="917.3" cy="705.8" r="1.7"/>
	<circle cx="917.3" cy="716" r="1.7"/>
	<circle cx="917.3" cy="726.4" r="1.7"/>
	<circle cx="917.3" cy="736.7" r="1.7"/>
	<circle cx="917.3" cy="746.9" r="1.7"/>
	<circle cx="917.3" cy="757.3" r="1.7"/>
	<circle cx="917.3" cy="767.6" r="1.7"/>
	<circle cx="917.3" cy="777.8" r="1.7"/>
	<circle cx="917.3" cy="788.2" r="1.7"/>
	<circle cx="917.3" cy="798.4" r="1.7"/>
	<circle cx="917.3" cy="808.7" r="1.7"/>
	<circle cx="917.3" cy="819" r="1.7"/>
	<circle cx="907" cy="695.5" r="1.7"/>
	<circle cx="907" cy="705.8" r="1.7"/>
	<circle cx="907" cy="716" r="1.7"/>
	<circle cx="907" cy="726.4" r="1.7"/>
	<circle cx="907" cy="736.7" r="1.7"/>
	<circle cx="907" cy="746.9" r="1.7"/>
	<circle cx="907" cy="757.3" r="1.7"/>
	<circle cx="907" cy="767.6" r="1.7"/>
	<circle cx="907" cy="777.8" r="1.7"/>
	<circle cx="907" cy="788.2" r="1.7"/>
	<circle cx="907" cy="798.4" r="1.7"/>
	<circle cx="907" cy="808.7" r="1.7"/>
	<circle cx="907" cy="819" r="1.7"/>
	<circle cx="896.8" cy="705.8" r="1.7"/>
	<circle cx="896.8" cy="716" r="1.7"/>
	<circle cx="896.8" cy="726.4" r="1.7"/>
	<circle cx="896.8" cy="736.7" r="1.7"/>
	<circle cx="896.8" cy="746.9" r="1.7"/>
	<circle cx="896.8" cy="757.3" r="1.7"/>
	<circle cx="896.8" cy="767.6" r="1.7"/>
	<circle cx="896.8" cy="777.8" r="1.7"/>
	<circle cx="896.8" cy="788.2" r="1.7"/>
	<circle cx="896.8" cy="798.4" r="1.7"/>
	<circle cx="896.8" cy="808.7" r="1.7"/>
	<circle cx="896.8" cy="819" r="1.7"/>
	<circle cx="886.4" cy="705.8" r="1.7"/>
	<circle cx="886.4" cy="716" r="1.7"/>
	<circle cx="886.4" cy="726.4" r="1.7"/>
	<circle cx="886.4" cy="736.7" r="1.7"/>
	<circle cx="886.4" cy="746.9" r="1.7"/>
	<circle cx="886.4" cy="757.3" r="1.7"/>
	<circle cx="886.4" cy="767.6" r="1.7"/>
	<circle cx="886.4" cy="777.8" r="1.7"/>
	<circle cx="886.4" cy="788.2" r="1.7"/>
	<circle cx="886.4" cy="798.4" r="1.7"/>
	<circle cx="886.4" cy="808.7" r="1.7"/>
	<circle cx="886.4" cy="819" r="1.7"/>
	<circle cx="876.2" cy="716" r="1.7"/>
	<circle cx="876.2" cy="726.4" r="1.7"/>
	<circle cx="876.2" cy="736.7" r="1.7"/>
	<circle cx="876.2" cy="746.9" r="1.7"/>
	<circle cx="876.2" cy="757.3" r="1.7"/>
	<circle cx="876.2" cy="767.6" r="1.7"/>
	<circle cx="876.2" cy="777.8" r="1.7"/>
	<circle cx="876.2" cy="788.2" r="1.7"/>
	<circle cx="876.2" cy="798.4" r="1.7"/>
	<circle cx="876.2" cy="808.7" r="1.7"/>
	<circle cx="876.2" cy="819" r="1.7"/>
	<circle cx="865.9" cy="397" r="1.7"/>
	<circle cx="865.9" cy="726.4" r="1.7"/>
	<circle cx="865.9" cy="736.7" r="1.7"/>
	<circle cx="865.9" cy="746.9" r="1.7"/>
	<circle cx="865.9" cy="757.3" r="1.7"/>
	<circle cx="865.9" cy="767.6" r="1.7"/>
	<circle cx="865.9" cy="777.8" r="1.7"/>
	<circle cx="865.9" cy="788.2" r="1.7"/>
	<circle cx="865.9" cy="798.4" r="1.7"/>
	<circle cx="865.9" cy="808.7" r="1.7"/>
	<circle cx="865.9" cy="819" r="1.7"/>
	<circle cx="855.6" cy="397" r="1.7"/>
	<circle cx="855.6" cy="736.7" r="1.7"/>
	<circle cx="855.6" cy="746.9" r="1.7"/>
	<circle cx="855.6" cy="757.3" r="1.7"/>
	<circle cx="855.6" cy="767.6" r="1.7"/>
	<circle cx="855.6" cy="777.8" r="1.7"/>
	<circle cx="855.6" cy="788.2" r="1.7"/>
	<circle cx="855.6" cy="798.4" r="1.7"/>
	<circle cx="855.6" cy="808.7" r="1.7"/>
	<circle cx="855.6" cy="819" r="1.7"/>
	<circle cx="845.3" cy="397" r="1.7"/>
	<circle cx="845.3" cy="407.4" r="1.7"/>
	<circle cx="845.3" cy="736.7" r="1.7"/>
	<circle cx="845.3" cy="746.9" r="1.7"/>
	<circle cx="845.3" cy="757.3" r="1.7"/>
	<circle cx="845.3" cy="767.6" r="1.7"/>
	<circle cx="845.3" cy="777.8" r="1.7"/>
	<circle cx="845.3" cy="788.2" r="1.7"/>
	<circle cx="845.3" cy="798.4" r="1.7"/>
	<circle cx="845.3" cy="808.7" r="1.7"/>
	<circle cx="845.3" cy="819" r="1.7"/>
	<circle cx="835" cy="397" r="1.7"/>
	<circle cx="835" cy="407.4" r="1.7"/>
	<circle cx="835" cy="746.9" r="1.7"/>
	<circle cx="835" cy="757.3" r="1.7"/>
	<circle cx="835" cy="767.6" r="1.7"/>
	<circle cx="835" cy="777.8" r="1.7"/>
	<circle cx="835" cy="788.2" r="1.7"/>
	<circle cx="835" cy="798.4" r="1.7"/>
	<circle cx="835" cy="808.7" r="1.7"/>
	<circle cx="835" cy="819" r="1.7"/>
	<circle cx="824.8" cy="397" r="1.7"/>
	<circle cx="824.8" cy="407.4" r="1.7"/>
	<circle cx="824.8" cy="417.7" r="1.7"/>
	<circle cx="824.8" cy="757.3" r="1.7"/>
	<circle cx="824.8" cy="767.6" r="1.7"/>
	<circle cx="824.8" cy="777.8" r="1.7"/>
	<circle cx="824.8" cy="788.2" r="1.7"/>
	<circle cx="824.8" cy="798.4" r="1.7"/>
	<circle cx="824.8" cy="808.7" r="1.7"/>
	<circle cx="824.8" cy="819" r="1.7"/>
	<circle cx="814.4" cy="397" r="1.7"/>
	<circle cx="814.4" cy="407.4" r="1.7"/>
	<circle cx="814.4" cy="417.7" r="1.7"/>
	<circle cx="814.4" cy="767.6" r="1.7"/>
	<circle cx="814.4" cy="777.8" r="1.7"/>
	<circle cx="814.4" cy="788.2" r="1.7"/>
	<circle cx="814.4" cy="798.4" r="1.7"/>
	<circle cx="814.4" cy="808.7" r="1.7"/>
	<circle cx="814.4" cy="819" r="1.7"/>
	<circle cx="804.1" cy="397" r="1.7"/>
	<circle cx="804.1" cy="407.4" r="1.7"/>
	<circle cx="804.1" cy="417.7" r="1.7"/>
	<circle cx="804.1" cy="427.9" r="1.7"/>
	<circle cx="804.1" cy="767.6" r="1.7"/>
	<circle cx="804.1" cy="777.8" r="1.7"/>
	<circle cx="804.1" cy="788.2" r="1.7"/>
	<circle cx="804.1" cy="798.4" r="1.7"/>
	<circle cx="804.1" cy="808.7" r="1.7"/>
	<circle cx="804.1" cy="819" r="1.7"/>
	<circle cx="793.9" cy="397" r="1.7"/>
	<circle cx="793.9" cy="407.4" r="1.7"/>
	<circle cx="793.9" cy="417.7" r="1.7"/>
	<circle cx="793.9" cy="427.9" r="1.7"/>
	<circle cx="793.9" cy="777.8" r="1.7"/>
	<circle cx="793.9" cy="788.2" r="1.7"/>
	<circle cx="793.9" cy="798.4" r="1.7"/>
	<circle cx="793.9" cy="808.7" r="1.7"/>
	<circle cx="793.9" cy="819" r="1.7"/>
	<circle cx="783.5" cy="397" r="1.7"/>
	<circle cx="783.5" cy="407.4" r="1.7"/>
	<circle cx="783.5" cy="417.7" r="1.7"/>
	<circle cx="783.5" cy="427.9" r="1.7"/>
	<circle cx="783.5" cy="438.3" r="1.7"/>
	<circle cx="783.5" cy="788.2" r="1.7"/>
	<circle cx="783.5" cy="798.4" r="1.7"/>
	<circle cx="783.5" cy="808.7" r="1.7"/>
	<circle cx="783.5" cy="819" r="1.7"/>
	<circle cx="773.2" cy="397" r="1.7"/>
	<circle cx="773.2" cy="407.4" r="1.7"/>
	<circle cx="773.2" cy="417.7" r="1.7"/>
	<circle cx="773.2" cy="427.9" r="1.7"/>
	<circle cx="773.2" cy="438.3" r="1.7"/>
	<circle cx="773.2" cy="798.4" r="1.7"/>
	<circle cx="773.2" cy="808.7" r="1.7"/>
	<circle cx="773.2" cy="819" r="1.7"/>
	<circle cx="763" cy="397" r="1.7"/>
	<circle cx="763" cy="407.4" r="1.7"/>
	<circle cx="763" cy="417.7" r="1.7"/>
	<circle cx="763" cy="427.9" r="1.7"/>
	<circle cx="763" cy="438.3" r="1.7"/>
	<circle cx="763" cy="448.6" r="1.7"/>
	<circle cx="763" cy="798.4" r="1.7"/>
	<circle cx="763" cy="808.7" r="1.7"/>
	<circle cx="763" cy="819" r="1.7"/>
	<circle cx="752.7" cy="397" r="1.7"/>
	<circle cx="752.7" cy="407.4" r="1.7"/>
	<circle cx="752.7" cy="417.7" r="1.7"/>
	<circle cx="752.7" cy="427.9" r="1.7"/>
	<circle cx="752.7" cy="438.3" r="1.7"/>
	<circle cx="752.7" cy="448.6" r="1.7"/>
	<circle cx="752.7" cy="808.7" r="1.7"/>
	<circle cx="752.7" cy="819" r="1.7"/>
	<circle cx="742.4" cy="397" r="1.7"/>
	<circle cx="742.4" cy="407.4" r="1.7"/>
	<circle cx="742.4" cy="417.7" r="1.7"/>
	<circle cx="742.4" cy="427.9" r="1.7"/>
	<circle cx="742.4" cy="438.3" r="1.7"/>
	<circle cx="742.4" cy="448.6" r="1.7"/>
	<circle cx="742.4" cy="458.8" r="1.7"/>
	<circle cx="742.4" cy="819" r="1.7"/>
	<circle cx="732.1" cy="397" r="1.7"/>
	<circle cx="732.1" cy="407.4" r="1.7"/>
	<circle cx="732.1" cy="417.7" r="1.7"/>
	<circle cx="732.1" cy="427.9" r="1.7"/>
	<circle cx="732.1" cy="438.3" r="1.7"/>
	<circle cx="732.1" cy="448.6" r="1.7"/>
	<circle cx="732.1" cy="458.8" r="1.7"/>
	<circle cx="721.8" cy="397" r="1.7"/>
	<circle cx="721.8" cy="407.4" r="1.7"/>
	<circle cx="721.8" cy="417.7" r="1.7"/>
	<circle cx="721.8" cy="427.9" r="1.7"/>
	<circle cx="721.8" cy="438.3" r="1.7"/>
	<circle cx="721.8" cy="448.6" r="1.7"/>
	<circle cx="721.8" cy="458.8" r="1.7"/>
	<circle cx="721.8" cy="469.1" r="1.7"/>
	<circle cx="711.6" cy="397" r="1.7"/>
	<circle cx="711.6" cy="407.4" r="1.7"/>
	<circle cx="711.6" cy="417.7" r="1.7"/>
	<circle cx="711.6" cy="427.9" r="1.7"/>
	<circle cx="711.6" cy="438.3" r="1.7"/>
	<circle cx="711.6" cy="448.6" r="1.7"/>
	<circle cx="711.6" cy="458.8" r="1.7"/>
	<circle cx="711.6" cy="469.1" r="1.7"/>
	<circle cx="701.2" cy="397" r="1.7"/>
	<circle cx="701.2" cy="407.4" r="1.7"/>
	<circle cx="701.2" cy="417.7" r="1.7"/>
	<circle cx="701.2" cy="427.9" r="1.7"/>
	<circle cx="701.2" cy="438.3" r="1.7"/>
	<circle cx="701.2" cy="448.6" r="1.7"/>
	<circle cx="701.2" cy="458.8" r="1.7"/>
	<circle cx="701.2" cy="469.1" r="1.7"/>
	<circle cx="701.2" cy="479.4" r="1.7"/>
	<circle cx="691" cy="397" r="1.7"/>
	<circle cx="691" cy="407.4" r="1.7"/>
	<circle cx="691" cy="417.7" r="1.7"/>
	<circle cx="691" cy="427.9" r="1.7"/>
	<circle cx="691" cy="438.3" r="1.7"/>
	<circle cx="691" cy="448.6" r="1.7"/>
	<circle cx="691" cy="458.8" r="1.7"/>
	<circle cx="691" cy="469.1" r="1.7"/>
	<circle cx="691" cy="479.4" r="1.7"/>
	<circle cx="680.7" cy="397" r="1.7"/>
	<circle cx="680.7" cy="407.4" r="1.7"/>
	<circle cx="680.7" cy="417.7" r="1.7"/>
	<circle cx="680.7" cy="427.9" r="1.7"/>
	<circle cx="680.7" cy="438.3" r="1.7"/>
	<circle cx="680.7" cy="448.6" r="1.7"/>
	<circle cx="680.7" cy="458.8" r="1.7"/>
	<circle cx="680.7" cy="469.1" r="1.7"/>
	<circle cx="680.7" cy="479.4" r="1.7"/>
	<circle cx="680.7" cy="489.7" r="1.7"/>
	<circle cx="670.3" cy="397" r="1.7"/>
	<circle cx="670.3" cy="407.4" r="1.7"/>
	<circle cx="670.3" cy="417.7" r="1.7"/>
	<circle cx="670.3" cy="427.9" r="1.7"/>
	<circle cx="670.3" cy="438.3" r="1.7"/>
	<circle cx="670.3" cy="448.6" r="1.7"/>
	<circle cx="670.3" cy="458.8" r="1.7"/>
	<circle cx="670.3" cy="469.1" r="1.7"/>
	<circle cx="670.3" cy="479.4" r="1.7"/>
	<circle cx="670.3" cy="489.7" r="1.7"/>
	<circle cx="660.1" cy="397" r="1.7"/>
	<circle cx="660.1" cy="407.4" r="1.7"/>
	<circle cx="660.1" cy="417.7" r="1.7"/>
	<circle cx="660.1" cy="427.9" r="1.7"/>
	<circle cx="660.1" cy="438.3" r="1.7"/>
	<circle cx="660.1" cy="448.6" r="1.7"/>
	<circle cx="660.1" cy="458.8" r="1.7"/>
	<circle cx="660.1" cy="469.1" r="1.7"/>
	<circle cx="660.1" cy="479.4" r="1.7"/>
	<circle cx="660.1" cy="489.7" r="1.7"/>
	<circle cx="660.1" cy="500" r="1.7"/>
	<circle cx="649.8" cy="397" r="1.7"/>
	<circle cx="649.8" cy="407.4" r="1.7"/>
	<circle cx="649.8" cy="417.7" r="1.7"/>
	<circle cx="649.8" cy="427.9" r="1.7"/>
	<circle cx="649.8" cy="438.3" r="1.7"/>
	<circle cx="649.8" cy="448.6" r="1.7"/>
	<circle cx="649.8" cy="458.8" r="1.7"/>
	<circle cx="649.8" cy="469.1" r="1.7"/>
	<circle cx="649.8" cy="479.4" r="1.7"/>
	<circle cx="649.8" cy="489.7" r="1.7"/>
	<circle cx="649.8" cy="500" r="1.7"/>
	<circle cx="639.4" cy="397" r="1.7"/>
	<circle cx="639.4" cy="407.4" r="1.7"/>
	<circle cx="639.4" cy="417.7" r="1.7"/>
	<circle cx="639.4" cy="427.9" r="1.7"/>
	<circle cx="639.4" cy="438.3" r="1.7"/>
	<circle cx="639.4" cy="448.6" r="1.7"/>
	<circle cx="639.4" cy="458.8" r="1.7"/>
	<circle cx="639.4" cy="469.1" r="1.7"/>
	<circle cx="639.4" cy="479.4" r="1.7"/>
	<circle cx="639.4" cy="489.7" r="1.7"/>
	<circle cx="639.4" cy="500" r="1.7"/>
	<circle cx="639.4" cy="510.3" r="1.7"/>
	<circle cx="629.2" cy="397" r="1.7"/>
	<circle cx="629.2" cy="407.4" r="1.7"/>
	<circle cx="629.2" cy="417.7" r="1.7"/>
	<circle cx="629.2" cy="427.9" r="1.7"/>
	<circle cx="629.2" cy="438.3" r="1.7"/>
	<circle cx="629.2" cy="448.6" r="1.7"/>
	<circle cx="629.2" cy="458.8" r="1.7"/>
	<circle cx="629.2" cy="469.1" r="1.7"/>
	<circle cx="629.2" cy="479.4" r="1.7"/>
	<circle cx="629.2" cy="489.7" r="1.7"/>
	<circle cx="629.2" cy="500" r="1.7"/>
	<circle cx="629.2" cy="510.3" r="1.7"/>
	<circle cx="618.9" cy="397" r="1.7"/>
	<circle cx="618.9" cy="407.4" r="1.7"/>
	<circle cx="618.9" cy="417.7" r="1.7"/>
	<circle cx="618.9" cy="427.9" r="1.7"/>
	<circle cx="618.9" cy="438.3" r="1.7"/>
	<circle cx="618.9" cy="448.6" r="1.7"/>
	<circle cx="618.9" cy="458.8" r="1.7"/>
	<circle cx="618.9" cy="469.1" r="1.7"/>
	<circle cx="618.9" cy="479.4" r="1.7"/>
	<circle cx="618.9" cy="489.7" r="1.7"/>
	<circle cx="618.9" cy="500" r="1.7"/>
	<circle cx="618.9" cy="510.3" r="1.7"/>
	<circle cx="608.6" cy="397" r="1.7"/>
	<circle cx="608.6" cy="407.4" r="1.7"/>
	<circle cx="608.6" cy="417.7" r="1.7"/>
	<circle cx="608.6" cy="427.9" r="1.7"/>
	<circle cx="608.6" cy="438.3" r="1.7"/>
	<circle cx="608.6" cy="448.6" r="1.7"/>
	<circle cx="608.6" cy="458.8" r="1.7"/>
	<circle cx="608.6" cy="469.1" r="1.7"/>
	<circle cx="608.6" cy="479.4" r="1.7"/>
	<circle cx="608.6" cy="489.7" r="1.7"/>
	<circle cx="608.6" cy="500" r="1.7"/>
	<circle cx="608.6" cy="510.3" r="1.7"/>
	<circle cx="608.6" cy="520.6" r="1.7"/>
	<circle cx="598.3" cy="397" r="1.7"/>
	<circle cx="598.3" cy="407.4" r="1.7"/>
	<circle cx="598.3" cy="417.7" r="1.7"/>
	<circle cx="598.3" cy="427.9" r="1.7"/>
	<circle cx="598.3" cy="438.3" r="1.7"/>
	<circle cx="598.3" cy="448.6" r="1.7"/>
	<circle cx="598.3" cy="458.8" r="1.7"/>
	<circle cx="598.3" cy="469.1" r="1.7"/>
	<circle cx="598.3" cy="479.4" r="1.7"/>
	<circle cx="598.3" cy="489.7" r="1.7"/>
	<circle cx="598.3" cy="500" r="1.7"/>
	<circle cx="598.3" cy="510.3" r="1.7"/>
	<circle cx="598.3" cy="520.6" r="1.7"/>
	<circle cx="598.3" cy="530.8" r="1.7"/>
	<circle cx="588" cy="397" r="1.7"/>
	<circle cx="588" cy="407.4" r="1.7"/>
	<circle cx="588" cy="417.7" r="1.7"/>
	<circle cx="588" cy="427.9" r="1.7"/>
	<circle cx="588" cy="438.3" r="1.7"/>
	<circle cx="588" cy="448.6" r="1.7"/>
	<circle cx="588" cy="458.8" r="1.7"/>
	<circle cx="588" cy="469.1" r="1.7"/>
	<circle cx="588" cy="479.4" r="1.7"/>
	<circle cx="588" cy="489.7" r="1.7"/>
	<circle cx="588" cy="500" r="1.7"/>
	<circle cx="588" cy="510.3" r="1.7"/>
	<circle cx="588" cy="520.6" r="1.7"/>
	<circle cx="588" cy="530.8" r="1.7"/>
	<circle cx="577.8" cy="397" r="1.7"/>
	<circle cx="577.8" cy="407.4" r="1.7"/>
	<circle cx="577.8" cy="417.7" r="1.7"/>
	<circle cx="577.8" cy="427.9" r="1.7"/>
	<circle cx="577.8" cy="438.3" r="1.7"/>
	<circle cx="577.8" cy="448.6" r="1.7"/>
	<circle cx="577.8" cy="458.8" r="1.7"/>
	<circle cx="577.8" cy="469.1" r="1.7"/>
	<circle cx="577.8" cy="479.4" r="1.7"/>
	<circle cx="577.8" cy="489.7" r="1.7"/>
	<circle cx="577.8" cy="500" r="1.7"/>
	<circle cx="577.8" cy="510.3" r="1.7"/>
	<circle cx="577.8" cy="520.6" r="1.7"/>
	<circle cx="577.8" cy="530.8" r="1.7"/>
	<circle cx="577.8" cy="541.2" r="1.7"/>
	<circle cx="567.4" cy="397" r="1.7"/>
	<circle cx="567.4" cy="407.4" r="1.7"/>
	<circle cx="567.4" cy="417.7" r="1.7"/>
	<circle cx="567.4" cy="427.9" r="1.7"/>
	<circle cx="567.4" cy="438.3" r="1.7"/>
	<circle cx="567.4" cy="448.6" r="1.7"/>
	<circle cx="567.4" cy="458.8" r="1.7"/>
	<circle cx="567.4" cy="469.1" r="1.7"/>
	<circle cx="567.4" cy="479.4" r="1.7"/>
	<circle cx="567.4" cy="489.7" r="1.7"/>
	<circle cx="567.4" cy="500" r="1.7"/>
	<circle cx="567.4" cy="510.3" r="1.7"/>
	<circle cx="567.4" cy="520.6" r="1.7"/>
	<circle cx="567.4" cy="530.8" r="1.7"/>
	<circle cx="567.4" cy="541.2" r="1.7"/>
	<circle cx="567.4" cy="551.5" r="1.7"/>
	<circle cx="557.2" cy="397" r="1.7"/>
	<circle cx="557.2" cy="407.4" r="1.7"/>
	<circle cx="557.2" cy="417.7" r="1.7"/>
	<circle cx="557.2" cy="427.9" r="1.7"/>
	<circle cx="557.2" cy="438.3" r="1.7"/>
	<circle cx="557.2" cy="448.6" r="1.7"/>
	<circle cx="557.2" cy="458.8" r="1.7"/>
	<circle cx="557.2" cy="469.1" r="1.7"/>
	<circle cx="557.2" cy="479.4" r="1.7"/>
	<circle cx="557.2" cy="489.7" r="1.7"/>
	<circle cx="557.2" cy="500" r="1.7"/>
	<circle cx="557.2" cy="510.3" r="1.7"/>
	<circle cx="557.2" cy="520.6" r="1.7"/>
	<circle cx="557.2" cy="530.8" r="1.7"/>
	<circle cx="557.2" cy="541.2" r="1.7"/>
	<circle cx="557.2" cy="551.5" r="1.7"/>
	<circle cx="546.9" cy="397" r="1.7"/>
	<circle cx="546.9" cy="407.4" r="1.7"/>
	<circle cx="546.9" cy="417.7" r="1.7"/>
	<circle cx="546.9" cy="427.9" r="1.7"/>
	<circle cx="546.9" cy="438.3" r="1.7"/>
	<circle cx="546.9" cy="448.6" r="1.7"/>
	<circle cx="546.9" cy="458.8" r="1.7"/>
	<circle cx="546.9" cy="469.1" r="1.7"/>
	<circle cx="546.9" cy="479.4" r="1.7"/>
	<circle cx="546.9" cy="489.7" r="1.7"/>
	<circle cx="546.9" cy="500" r="1.7"/>
	<circle cx="546.9" cy="510.3" r="1.7"/>
	<circle cx="546.9" cy="520.6" r="1.7"/>
	<circle cx="546.9" cy="530.8" r="1.7"/>
	<circle cx="546.9" cy="541.2" r="1.7"/>
	<circle cx="546.9" cy="551.5" r="1.7"/>
	<circle cx="546.9" cy="561.7" r="1.7"/>
	<circle cx="536.6" cy="397" r="1.7"/>
	<circle cx="536.6" cy="407.4" r="1.7"/>
	<circle cx="536.6" cy="417.7" r="1.7"/>
	<circle cx="536.6" cy="427.9" r="1.7"/>
	<circle cx="536.6" cy="438.3" r="1.7"/>
	<circle cx="536.6" cy="448.6" r="1.7"/>
	<circle cx="536.6" cy="458.8" r="1.7"/>
	<circle cx="536.6" cy="469.1" r="1.7"/>
	<circle cx="536.6" cy="479.4" r="1.7"/>
	<circle cx="536.6" cy="489.7" r="1.7"/>
	<circle cx="536.6" cy="500" r="1.7"/>
	<circle cx="536.6" cy="510.3" r="1.7"/>
	<circle cx="536.6" cy="520.6" r="1.7"/>
	<circle cx="536.6" cy="530.8" r="1.7"/>
	<circle cx="536.6" cy="541.2" r="1.7"/>
	<circle cx="536.6" cy="551.5" r="1.7"/>
	<circle cx="536.6" cy="561.7" r="1.7"/>
	<circle cx="536.6" cy="572" r="1.7"/>
	<circle cx="526.3" cy="397" r="1.7"/>
	<circle cx="526.3" cy="407.4" r="1.7"/>
	<circle cx="526.3" cy="417.7" r="1.7"/>
	<circle cx="526.3" cy="427.9" r="1.7"/>
	<circle cx="526.3" cy="438.3" r="1.7"/>
	<circle cx="526.3" cy="448.6" r="1.7"/>
	<circle cx="526.3" cy="458.8" r="1.7"/>
	<circle cx="526.3" cy="469.1" r="1.7"/>
	<circle cx="526.3" cy="479.4" r="1.7"/>
	<circle cx="526.3" cy="489.7" r="1.7"/>
	<circle cx="526.3" cy="500" r="1.7"/>
	<circle cx="526.3" cy="510.3" r="1.7"/>
	<circle cx="526.3" cy="520.6" r="1.7"/>
	<circle cx="526.3" cy="530.8" r="1.7"/>
	<circle cx="526.3" cy="541.2" r="1.7"/>
	<circle cx="526.3" cy="551.5" r="1.7"/>
	<circle cx="526.3" cy="561.7" r="1.7"/>
	<circle cx="526.3" cy="572" r="1.7"/>
	<circle cx="516" cy="397" r="1.7"/>
	<circle cx="516" cy="407.4" r="1.7"/>
	<circle cx="516" cy="417.7" r="1.7"/>
	<circle cx="516" cy="427.9" r="1.7"/>
	<circle cx="516" cy="438.3" r="1.7"/>
	<circle cx="516" cy="448.6" r="1.7"/>
	<circle cx="516" cy="458.8" r="1.7"/>
	<circle cx="516" cy="469.1" r="1.7"/>
	<circle cx="516" cy="479.4" r="1.7"/>
	<circle cx="516" cy="489.7" r="1.7"/>
	<circle cx="516" cy="500" r="1.7"/>
	<circle cx="516" cy="510.3" r="1.7"/>
	<circle cx="516" cy="520.6" r="1.7"/>
	<circle cx="516" cy="530.8" r="1.7"/>
	<circle cx="516" cy="541.2" r="1.7"/>
	<circle cx="516" cy="551.5" r="1.7"/>
	<circle cx="516" cy="561.7" r="1.7"/>
	<circle cx="516" cy="572" r="1.7"/>
	<circle cx="516" cy="582.4" r="1.7"/>
	<circle cx="505.7" cy="397" r="1.7"/>
	<circle cx="505.7" cy="407.4" r="1.7"/>
	<circle cx="505.7" cy="417.7" r="1.7"/>
	<circle cx="505.7" cy="427.9" r="1.7"/>
	<circle cx="505.7" cy="438.3" r="1.7"/>
	<circle cx="505.7" cy="448.6" r="1.7"/>
	<circle cx="505.7" cy="458.8" r="1.7"/>
	<circle cx="505.7" cy="469.1" r="1.7"/>
	<circle cx="505.7" cy="479.4" r="1.7"/>
	<circle cx="505.7" cy="489.7" r="1.7"/>
	<circle cx="505.7" cy="500" r="1.7"/>
	<circle cx="505.7" cy="510.3" r="1.7"/>
	<circle cx="505.7" cy="520.6" r="1.7"/>
	<circle cx="505.7" cy="530.8" r="1.7"/>
	<circle cx="505.7" cy="541.2" r="1.7"/>
	<circle cx="505.7" cy="551.5" r="1.7"/>
	<circle cx="505.7" cy="561.7" r="1.7"/>
	<circle cx="505.7" cy="572" r="1.7"/>
	<circle cx="505.7" cy="582.4" r="1.7"/>
	<circle cx="495.4" cy="397" r="1.7"/>
	<circle cx="495.4" cy="407.4" r="1.7"/>
	<circle cx="495.4" cy="417.7" r="1.7"/>
	<circle cx="495.4" cy="427.9" r="1.7"/>
	<circle cx="495.4" cy="438.3" r="1.7"/>
	<circle cx="495.4" cy="448.6" r="1.7"/>
	<circle cx="495.4" cy="458.8" r="1.7"/>
	<circle cx="495.4" cy="469.1" r="1.7"/>
	<circle cx="495.4" cy="479.4" r="1.7"/>
	<circle cx="495.4" cy="489.7" r="1.7"/>
	<circle cx="495.4" cy="500" r="1.7"/>
	<circle cx="495.4" cy="510.3" r="1.7"/>
	<circle cx="495.4" cy="520.6" r="1.7"/>
	<circle cx="495.4" cy="530.8" r="1.7"/>
	<circle cx="495.4" cy="541.2" r="1.7"/>
	<circle cx="495.4" cy="551.5" r="1.7"/>
	<circle cx="495.4" cy="561.7" r="1.7"/>
	<circle cx="495.4" cy="572" r="1.7"/>
	<circle cx="495.4" cy="582.4" r="1.7"/>
	<circle cx="495.4" cy="592.6" r="1.7"/>
	<circle cx="485.1" cy="397" r="1.7"/>
	<circle cx="485.1" cy="407.4" r="1.7"/>
	<circle cx="485.1" cy="417.7" r="1.7"/>
	<circle cx="485.1" cy="427.9" r="1.7"/>
	<circle cx="485.1" cy="438.3" r="1.7"/>
	<circle cx="485.1" cy="448.6" r="1.7"/>
	<circle cx="485.1" cy="458.8" r="1.7"/>
	<circle cx="485.1" cy="469.1" r="1.7"/>
	<circle cx="485.1" cy="479.4" r="1.7"/>
	<circle cx="485.1" cy="489.7" r="1.7"/>
	<circle cx="485.1" cy="500" r="1.7"/>
	<circle cx="485.1" cy="510.3" r="1.7"/>
	<circle cx="485.1" cy="520.6" r="1.7"/>
	<circle cx="485.1" cy="530.8" r="1.7"/>
	<circle cx="485.1" cy="541.2" r="1.7"/>
	<circle cx="485.1" cy="551.5" r="1.7"/>
	<circle cx="485.1" cy="561.7" r="1.7"/>
	<circle cx="485.1" cy="572" r="1.7"/>
	<circle cx="485.1" cy="582.4" r="1.7"/>
	<circle cx="485.1" cy="592.6" r="1.7"/>
	<circle cx="485.1" cy="602.9" r="1.7"/>
	<circle cx="474.9" cy="397" r="1.7"/>
	<circle cx="474.9" cy="407.4" r="1.7"/>
	<circle cx="474.9" cy="417.7" r="1.7"/>
	<circle cx="474.9" cy="427.9" r="1.7"/>
	<circle cx="474.9" cy="438.3" r="1.7"/>
	<circle cx="474.9" cy="448.6" r="1.7"/>
	<circle cx="474.9" cy="458.8" r="1.7"/>
	<circle cx="474.9" cy="469.1" r="1.7"/>
	<circle cx="474.9" cy="479.4" r="1.7"/>
	<circle cx="474.9" cy="489.7" r="1.7"/>
	<circle cx="474.9" cy="500" r="1.7"/>
	<circle cx="474.9" cy="510.3" r="1.7"/>
	<circle cx="474.9" cy="520.6" r="1.7"/>
	<circle cx="474.9" cy="530.8" r="1.7"/>
	<circle cx="474.9" cy="541.2" r="1.7"/>
	<circle cx="474.9" cy="551.5" r="1.7"/>
	<circle cx="474.9" cy="561.7" r="1.7"/>
	<circle cx="474.9" cy="572" r="1.7"/>
	<circle cx="474.9" cy="582.4" r="1.7"/>
	<circle cx="474.9" cy="592.6" r="1.7"/>
	<circle cx="474.9" cy="602.9" r="1.7"/>
	<circle cx="464.5" cy="397" r="1.7"/>
	<circle cx="464.5" cy="407.4" r="1.7"/>
	<circle cx="464.5" cy="417.7" r="1.7"/>
	<circle cx="464.5" cy="427.9" r="1.7"/>
	<circle cx="464.5" cy="438.3" r="1.7"/>
	<circle cx="464.5" cy="448.6" r="1.7"/>
	<circle cx="464.5" cy="458.8" r="1.7"/>
	<circle cx="464.5" cy="469.1" r="1.7"/>
	<circle cx="464.5" cy="479.4" r="1.7"/>
	<circle cx="464.5" cy="489.7" r="1.7"/>
	<circle cx="464.5" cy="500" r="1.7"/>
	<circle cx="464.5" cy="510.3" r="1.7"/>
	<circle cx="464.5" cy="520.6" r="1.7"/>
	<circle cx="464.5" cy="530.8" r="1.7"/>
	<circle cx="464.5" cy="541.2" r="1.7"/>
	<circle cx="464.5" cy="551.5" r="1.7"/>
	<circle cx="464.5" cy="561.7" r="1.7"/>
	<circle cx="464.5" cy="572" r="1.7"/>
	<circle cx="464.5" cy="582.4" r="1.7"/>
	<circle cx="464.5" cy="592.6" r="1.7"/>
	<circle cx="464.5" cy="602.9" r="1.7"/>
	<circle cx="464.5" cy="613.2" r="1.7"/>
	<circle cx="454.2" cy="397" r="1.7"/>
	<circle cx="454.2" cy="407.4" r="1.7"/>
	<circle cx="454.2" cy="417.7" r="1.7"/>
	<circle cx="454.2" cy="427.9" r="1.7"/>
	<circle cx="454.2" cy="438.3" r="1.7"/>
	<circle cx="454.2" cy="448.6" r="1.7"/>
	<circle cx="454.2" cy="458.8" r="1.7"/>
	<circle cx="454.2" cy="469.1" r="1.7"/>
	<circle cx="454.2" cy="479.4" r="1.7"/>
	<circle cx="454.2" cy="489.7" r="1.7"/>
	<circle cx="454.2" cy="500" r="1.7"/>
	<circle cx="454.2" cy="510.3" r="1.7"/>
	<circle cx="454.2" cy="520.6" r="1.7"/>
	<circle cx="454.2" cy="530.8" r="1.7"/>
	<circle cx="454.2" cy="541.2" r="1.7"/>
	<circle cx="454.2" cy="551.5" r="1.7"/>
	<circle cx="454.2" cy="561.7" r="1.7"/>
	<circle cx="454.2" cy="572" r="1.7"/>
	<circle cx="454.2" cy="582.4" r="1.7"/>
	<circle cx="454.2" cy="592.6" r="1.7"/>
	<circle cx="454.2" cy="602.9" r="1.7"/>
	<circle cx="454.2" cy="613.2" r="1.7"/>
	<circle cx="454.2" cy="623.5" r="1.7"/>
	<circle cx="444" cy="397" r="1.7"/>
	<circle cx="444" cy="407.4" r="1.7"/>
	<circle cx="444" cy="417.7" r="1.7"/>
	<circle cx="444" cy="427.9" r="1.7"/>
	<circle cx="444" cy="438.3" r="1.7"/>
	<circle cx="444" cy="448.6" r="1.7"/>
	<circle cx="444" cy="458.8" r="1.7"/>
	<circle cx="444" cy="469.1" r="1.7"/>
	<circle cx="444" cy="479.4" r="1.7"/>
	<circle cx="444" cy="489.7" r="1.7"/>
	<circle cx="444" cy="500" r="1.7"/>
	<circle cx="444" cy="510.3" r="1.7"/>
	<circle cx="444" cy="520.6" r="1.7"/>
	<circle cx="444" cy="530.8" r="1.7"/>
	<circle cx="444" cy="541.2" r="1.7"/>
	<circle cx="444" cy="551.5" r="1.7"/>
	<circle cx="444" cy="561.7" r="1.7"/>
	<circle cx="444" cy="572" r="1.7"/>
	<circle cx="444" cy="582.4" r="1.7"/>
	<circle cx="444" cy="592.6" r="1.7"/>
	<circle cx="444" cy="602.9" r="1.7"/>
	<circle cx="444" cy="613.2" r="1.7"/>
	<circle cx="444" cy="623.5" r="1.7"/>
	<circle cx="433.7" cy="397" r="1.7"/>
	<circle cx="433.7" cy="407.4" r="1.7"/>
	<circle cx="433.7" cy="417.7" r="1.7"/>
	<circle cx="433.7" cy="427.9" r="1.7"/>
	<circle cx="433.7" cy="438.3" r="1.7"/>
	<circle cx="433.7" cy="448.6" r="1.7"/>
	<circle cx="433.7" cy="458.8" r="1.7"/>
	<circle cx="433.7" cy="469.1" r="1.7"/>
	<circle cx="433.7" cy="479.4" r="1.7"/>
	<circle cx="433.7" cy="489.7" r="1.7"/>
	<circle cx="433.7" cy="500" r="1.7"/>
	<circle cx="433.7" cy="510.3" r="1.7"/>
	<circle cx="433.7" cy="520.6" r="1.7"/>
	<circle cx="433.7" cy="530.8" r="1.7"/>
	<circle cx="433.7" cy="541.2" r="1.7"/>
	<circle cx="433.7" cy="551.5" r="1.7"/>
	<circle cx="433.7" cy="561.7" r="1.7"/>
	<circle cx="433.7" cy="572" r="1.7"/>
	<circle cx="433.7" cy="582.4" r="1.7"/>
	<circle cx="433.7" cy="592.6" r="1.7"/>
	<circle cx="433.7" cy="602.9" r="1.7"/>
	<circle cx="433.7" cy="613.2" r="1.7"/>
	<circle cx="433.7" cy="623.5" r="1.7"/>
	<circle cx="433.7" cy="633.8" r="1.7"/>
	<circle cx="423.3" cy="397" r="1.7"/>
	<circle cx="423.3" cy="407.4" r="1.7"/>
	<circle cx="423.3" cy="417.7" r="1.7"/>
	<circle cx="423.3" cy="427.9" r="1.7"/>
	<circle cx="423.3" cy="438.3" r="1.7"/>
	<circle cx="423.3" cy="448.6" r="1.7"/>
	<circle cx="423.3" cy="458.8" r="1.7"/>
	<circle cx="423.3" cy="469.1" r="1.7"/>
	<circle cx="423.3" cy="479.4" r="1.7"/>
	<circle cx="423.3" cy="489.7" r="1.7"/>
	<circle cx="423.3" cy="500" r="1.7"/>
	<circle cx="423.3" cy="510.3" r="1.7"/>
	<circle cx="423.3" cy="520.6" r="1.7"/>
	<circle cx="423.3" cy="530.8" r="1.7"/>
	<circle cx="423.3" cy="541.2" r="1.7"/>
	<circle cx="423.3" cy="551.5" r="1.7"/>
	<circle cx="423.3" cy="561.7" r="1.7"/>
	<circle cx="423.3" cy="572" r="1.7"/>
	<circle cx="423.3" cy="582.4" r="1.7"/>
	<circle cx="423.3" cy="592.6" r="1.7"/>
	<circle cx="423.3" cy="602.9" r="1.7"/>
	<circle cx="423.3" cy="613.2" r="1.7"/>
	<circle cx="423.3" cy="623.5" r="1.7"/>
	<circle cx="423.3" cy="633.8" r="1.7"/>
	<circle cx="413.1" cy="397" r="1.7"/>
	<circle cx="413.1" cy="407.4" r="1.7"/>
	<circle cx="413.1" cy="417.7" r="1.7"/>
	<circle cx="413.1" cy="427.9" r="1.7"/>
	<circle cx="413.1" cy="438.3" r="1.7"/>
	<circle cx="413.1" cy="448.6" r="1.7"/>
	<circle cx="413.1" cy="458.8" r="1.7"/>
	<circle cx="413.1" cy="469.1" r="1.7"/>
	<circle cx="413.1" cy="479.4" r="1.7"/>
	<circle cx="413.1" cy="489.7" r="1.7"/>
	<circle cx="413.1" cy="500" r="1.7"/>
	<circle cx="413.1" cy="510.3" r="1.7"/>
	<circle cx="413.1" cy="520.6" r="1.7"/>
	<circle cx="413.1" cy="530.8" r="1.7"/>
	<circle cx="413.1" cy="541.2" r="1.7"/>
	<circle cx="413.1" cy="551.5" r="1.7"/>
	<circle cx="413.1" cy="561.7" r="1.7"/>
	<circle cx="413.1" cy="572" r="1.7"/>
	<circle cx="413.1" cy="582.4" r="1.7"/>
	<circle cx="413.1" cy="592.6" r="1.7"/>
	<circle cx="413.1" cy="602.9" r="1.7"/>
	<circle cx="413.1" cy="613.2" r="1.7"/>
	<circle cx="413.1" cy="623.5" r="1.7"/>
	<circle cx="413.1" cy="633.8" r="1.7"/>
	<circle cx="413.1" cy="644" r="1.7"/>
	<circle cx="402.8" cy="397" r="1.7"/>
	<circle cx="402.8" cy="407.4" r="1.7"/>
	<circle cx="402.8" cy="417.7" r="1.7"/>
	<circle cx="402.8" cy="427.9" r="1.7"/>
	<circle cx="402.8" cy="438.3" r="1.7"/>
	<circle cx="402.8" cy="448.6" r="1.7"/>
	<circle cx="402.8" cy="458.8" r="1.7"/>
	<circle cx="402.8" cy="469.1" r="1.7"/>
	<circle cx="402.8" cy="479.4" r="1.7"/>
	<circle cx="402.8" cy="489.7" r="1.7"/>
	<circle cx="402.8" cy="500" r="1.7"/>
	<circle cx="402.8" cy="510.3" r="1.7"/>
	<circle cx="402.8" cy="520.6" r="1.7"/>
	<circle cx="402.8" cy="530.8" r="1.7"/>
	<circle cx="402.8" cy="541.2" r="1.7"/>
	<circle cx="402.8" cy="551.5" r="1.7"/>
	<circle cx="402.8" cy="561.7" r="1.7"/>
	<circle cx="402.8" cy="572" r="1.7"/>
	<circle cx="402.8" cy="582.4" r="1.7"/>
	<circle cx="402.8" cy="592.6" r="1.7"/>
	<circle cx="402.8" cy="602.9" r="1.7"/>
	<circle cx="402.8" cy="613.2" r="1.7"/>
	<circle cx="402.8" cy="623.5" r="1.7"/>
	<circle cx="402.8" cy="633.8" r="1.7"/>
	<circle cx="402.8" cy="644" r="1.7"/>
	<circle cx="402.8" cy="654.4" r="1.7"/>
	<circle cx="392.5" cy="397" r="1.7"/>
	<circle cx="392.5" cy="407.4" r="1.7"/>
	<circle cx="392.5" cy="417.7" r="1.7"/>
	<circle cx="392.5" cy="427.9" r="1.7"/>
	<circle cx="392.5" cy="438.3" r="1.7"/>
	<circle cx="392.5" cy="448.6" r="1.7"/>
	<circle cx="392.5" cy="458.8" r="1.7"/>
	<circle cx="392.5" cy="469.1" r="1.7"/>
	<circle cx="392.5" cy="479.4" r="1.7"/>
	<circle cx="392.5" cy="489.7" r="1.7"/>
	<circle cx="392.5" cy="500" r="1.7"/>
	<circle cx="392.5" cy="510.3" r="1.7"/>
	<circle cx="392.5" cy="520.6" r="1.7"/>
	<circle cx="392.5" cy="530.8" r="1.7"/>
	<circle cx="392.5" cy="541.2" r="1.7"/>
	<circle cx="392.5" cy="551.5" r="1.7"/>
	<circle cx="392.5" cy="561.7" r="1.7"/>
	<circle cx="392.5" cy="572" r="1.7"/>
	<circle cx="392.5" cy="582.4" r="1.7"/>
	<circle cx="392.5" cy="592.6" r="1.7"/>
	<circle cx="392.5" cy="602.9" r="1.7"/>
	<circle cx="392.5" cy="613.2" r="1.7"/>
	<circle cx="392.5" cy="623.5" r="1.7"/>
	<circle cx="392.5" cy="633.8" r="1.7"/>
	<circle cx="392.5" cy="644" r="1.7"/>
	<circle cx="382.2" cy="397" r="1.7"/>
	<circle cx="382.2" cy="407.4" r="1.7"/>
	<circle cx="382.2" cy="417.7" r="1.7"/>
	<circle cx="382.2" cy="427.9" r="1.7"/>
	<circle cx="382.2" cy="438.3" r="1.7"/>
	<circle cx="382.2" cy="448.6" r="1.7"/>
	<circle cx="382.2" cy="458.8" r="1.7"/>
	<circle cx="382.2" cy="469.1" r="1.7"/>
	<circle cx="382.2" cy="479.4" r="1.7"/>
	<circle cx="382.2" cy="489.7" r="1.7"/>
	<circle cx="382.2" cy="500" r="1.7"/>
	<circle cx="382.2" cy="510.3" r="1.7"/>
	<circle cx="382.2" cy="520.6" r="1.7"/>
	<circle cx="382.2" cy="530.8" r="1.7"/>
	<circle cx="382.2" cy="541.2" r="1.7"/>
	<circle cx="382.2" cy="551.5" r="1.7"/>
	<circle cx="382.2" cy="561.7" r="1.7"/>
	<circle cx="382.2" cy="572" r="1.7"/>
	<circle cx="382.2" cy="582.4" r="1.7"/>
	<circle cx="382.2" cy="592.6" r="1.7"/>
	<circle cx="382.2" cy="602.9" r="1.7"/>
	<circle cx="382.2" cy="613.2" r="1.7"/>
	<circle cx="382.2" cy="623.5" r="1.7"/>
	<circle cx="382.2" cy="633.8" r="1.7"/>
	<circle cx="382.2" cy="644" r="1.7"/>
	<path d="M371.9,395.3c0.9,0,1.7,0.8,1.7,1.7s-0.8,1.7-1.7,1.7c-0.9,0-1.7-0.8-1.7-1.7S370.9,395.3,371.9,395.3z"/>
	<path d="M371.9,405.7c0.9,0,1.7,0.8,1.7,1.7c0,0.9-0.8,1.7-1.7,1.7c-0.9,0-1.7-0.8-1.7-1.7C370.3,406.5,370.9,405.7,371.9,405.7z"
		/>
	<path d="M371.9,416c0.9,0,1.7,0.8,1.7,1.7c0,0.9-0.8,1.7-1.7,1.7c-0.9,0-1.7-0.8-1.7-1.7C370.3,416.8,370.9,416,371.9,416z"/>
	<path d="M371.9,426.2c0.9,0,1.7,0.8,1.7,1.7c0,0.9-0.8,1.7-1.7,1.7c-0.9,0-1.7-0.8-1.7-1.7C370.3,427,370.9,426.2,371.9,426.2z"/>
	<path d="M371.9,436.5c0.9,0,1.7,0.8,1.7,1.7c0,0.9-0.8,1.7-1.7,1.7c-0.9,0-1.7-0.8-1.7-1.7C370.3,437.3,370.9,436.5,371.9,436.5z"
		/>
	<path d="M371.9,446.9c0.9,0,1.7,0.8,1.7,1.7s-0.8,1.7-1.7,1.7c-0.9,0-1.7-0.8-1.7-1.7S370.9,446.9,371.9,446.9z"/>
	<path d="M371.9,457.1c0.9,0,1.7,0.8,1.7,1.7c0,0.9-0.8,1.7-1.7,1.7c-0.9,0-1.7-0.8-1.7-1.7C370.3,457.9,370.9,457.1,371.9,457.1z"
		/>
	<path d="M371.9,467.4c0.9,0,1.7,0.8,1.7,1.7s-0.8,1.7-1.7,1.7c-0.9,0-1.7-0.8-1.7-1.7S370.9,467.4,371.9,467.4z"/>
	<path d="M371.9,477.7c0.9,0,1.7,0.8,1.7,1.7c0,0.9-0.8,1.7-1.7,1.7c-0.9,0-1.7-0.8-1.7-1.7C370.3,478.5,370.9,477.7,371.9,477.7z"
		/>
	<path d="M371.9,488c0.9,0,1.7,0.8,1.7,1.7s-0.8,1.7-1.7,1.7c-0.9,0-1.7-0.8-1.7-1.7S370.9,488,371.9,488z"/>
	<path d="M371.9,498.3c0.9,0,1.7,0.8,1.7,1.7c0,0.9-0.8,1.7-1.7,1.7c-0.9,0-1.7-0.8-1.7-1.7C370.3,499.1,370.9,498.3,371.9,498.3z"
		/>
	<path d="M371.9,508.5c0.9,0,1.7,0.8,1.7,1.7s-0.8,1.7-1.7,1.7c-0.9,0-1.7-0.8-1.7-1.7S370.9,508.5,371.9,508.5z"/>
	<path d="M371.9,518.9c0.9,0,1.7,0.8,1.7,1.7s-0.8,1.7-1.7,1.7c-0.9,0-1.7-0.8-1.7-1.7S370.9,518.9,371.9,518.9z"/>
	<path d="M371.9,529.1c0.9,0,1.7,0.8,1.7,1.7s-0.8,1.7-1.7,1.7c-0.9,0-1.7-0.8-1.7-1.7C370.3,529.9,370.9,529.1,371.9,529.1z"/>
	<path d="M371.9,539.4c0.9,0,1.7,0.8,1.7,1.7s-0.8,1.7-1.7,1.7c-0.9,0-1.7-0.8-1.7-1.7S370.9,539.4,371.9,539.4z"/>
	<path d="M371.9,549.8c0.9,0,1.7,0.8,1.7,1.7s-0.8,1.7-1.7,1.7c-0.9,0-1.7-0.8-1.7-1.7C370.3,550.6,370.9,549.8,371.9,549.8z"/>
	<path d="M371.9,560c0.9,0,1.7,0.8,1.7,1.7s-0.8,1.7-1.7,1.7c-0.9,0-1.7-0.8-1.7-1.7S370.9,560,371.9,560z"/>
	<path d="M371.9,570.3c0.9,0,1.7,0.8,1.7,1.7s-0.8,1.7-1.7,1.7c-0.9,0-1.7-0.8-1.7-1.7S370.9,570.3,371.9,570.3z"/>
	<path d="M371.9,580.6c0.9,0,1.7,0.8,1.7,1.7s-0.8,1.7-1.7,1.7c-0.9,0-1.7-0.8-1.7-1.7S370.9,580.6,371.9,580.6z"/>
	<path d="M371.9,590.9c0.9,0,1.7,0.8,1.7,1.7s-0.8,1.7-1.7,1.7c-0.9,0-1.7-0.8-1.7-1.7S370.9,590.9,371.9,590.9z"/>
	<path d="M371.9,601.2c0.9,0,1.7,0.8,1.7,1.7s-0.8,1.7-1.7,1.7c-0.9,0-1.7-0.8-1.7-1.7S370.9,601.2,371.9,601.2z"/>
	<path d="M371.9,611.4c0.9,0,1.7,0.8,1.7,1.7s-0.8,1.7-1.7,1.7c-0.9,0-1.7-0.8-1.7-1.7S370.9,611.4,371.9,611.4z"/>
	<path d="M371.9,621.8c0.9,0,1.7,0.8,1.7,1.7s-0.8,1.7-1.7,1.7c-0.9,0-1.7-0.8-1.7-1.7C370.3,622.6,370.9,621.8,371.9,621.8z"/>
	<path d="M371.9,632.1c0.9,0,1.7,0.8,1.7,1.7s-0.8,1.7-1.7,1.7c-0.9,0-1.7-0.8-1.7-1.7S370.9,632.1,371.9,632.1z"/>
	<circle cx="361.7" cy="397" r="1.7"/>
	<circle cx="361.7" cy="407.4" r="1.7"/>
	<circle cx="361.7" cy="417.7" r="1.7"/>
	<circle cx="361.7" cy="427.9" r="1.7"/>
	<circle cx="361.7" cy="438.3" r="1.7"/>
	<circle cx="361.7" cy="448.6" r="1.7"/>
	<circle cx="361.7" cy="458.8" r="1.7"/>
	<circle cx="361.7" cy="469.1" r="1.7"/>
	<circle cx="361.7" cy="479.4" r="1.7"/>
	<circle cx="361.7" cy="489.7" r="1.7"/>
	<circle cx="361.7" cy="500" r="1.7"/>
	<circle cx="361.7" cy="510.3" r="1.7"/>
	<circle cx="361.7" cy="520.6" r="1.7"/>
	<circle cx="361.7" cy="530.8" r="1.7"/>
	<circle cx="361.7" cy="541.2" r="1.7"/>
	<circle cx="361.7" cy="551.5" r="1.7"/>
	<circle cx="361.7" cy="561.7" r="1.7"/>
	<circle cx="361.7" cy="572" r="1.7"/>
	<circle cx="361.7" cy="582.4" r="1.7"/>
	<circle cx="361.7" cy="592.6" r="1.7"/>
	<circle cx="361.7" cy="602.9" r="1.7"/>
	<circle cx="361.7" cy="613.2" r="1.7"/>
	<circle cx="361.7" cy="623.5" r="1.7"/>
	<circle cx="361.7" cy="633.8" r="1.7"/>
	<circle cx="351.3" cy="397" r="1.7"/>
	<circle cx="351.3" cy="407.4" r="1.7"/>
	<circle cx="351.3" cy="417.7" r="1.7"/>
	<circle cx="351.3" cy="427.9" r="1.7"/>
	<circle cx="351.3" cy="438.3" r="1.7"/>
	<circle cx="351.3" cy="448.6" r="1.7"/>
	<circle cx="351.3" cy="458.8" r="1.7"/>
	<circle cx="351.3" cy="469.1" r="1.7"/>
	<circle cx="351.3" cy="479.4" r="1.7"/>
	<circle cx="351.3" cy="489.7" r="1.7"/>
	<circle cx="351.3" cy="500" r="1.7"/>
	<circle cx="351.3" cy="510.3" r="1.7"/>
	<circle cx="351.3" cy="520.6" r="1.7"/>
	<circle cx="351.3" cy="530.8" r="1.7"/>
	<circle cx="351.3" cy="541.2" r="1.7"/>
	<circle cx="351.3" cy="551.5" r="1.7"/>
	<circle cx="351.3" cy="561.7" r="1.7"/>
	<circle cx="351.3" cy="572" r="1.7"/>
	<circle cx="351.3" cy="582.4" r="1.7"/>
	<circle cx="351.3" cy="592.6" r="1.7"/>
	<circle cx="351.3" cy="602.9" r="1.7"/>
	<circle cx="351.3" cy="613.2" r="1.7"/>
	<circle cx="351.3" cy="623.5" r="1.7"/>
	<circle cx="341.1" cy="397" r="1.7"/>
	<circle cx="341.1" cy="407.4" r="1.7"/>
	<circle cx="341.1" cy="417.7" r="1.7"/>
	<circle cx="341.1" cy="427.9" r="1.7"/>
	<circle cx="341.1" cy="438.3" r="1.7"/>
	<circle cx="341.1" cy="448.6" r="1.7"/>
	<circle cx="341.1" cy="458.8" r="1.7"/>
	<circle cx="341.1" cy="469.1" r="1.7"/>
	<circle cx="341.1" cy="479.4" r="1.7"/>
	<circle cx="341.1" cy="489.7" r="1.7"/>
	<circle cx="341.1" cy="500" r="1.7"/>
	<circle cx="341.1" cy="510.3" r="1.7"/>
	<circle cx="341.1" cy="520.6" r="1.7"/>
	<circle cx="341.1" cy="530.8" r="1.7"/>
	<circle cx="341.1" cy="541.2" r="1.7"/>
	<circle cx="341.1" cy="551.5" r="1.7"/>
	<circle cx="341.1" cy="561.7" r="1.7"/>
	<circle cx="341.1" cy="572" r="1.7"/>
	<circle cx="341.1" cy="582.4" r="1.7"/>
	<circle cx="341.1" cy="592.6" r="1.7"/>
	<circle cx="341.1" cy="602.9" r="1.7"/>
	<circle cx="341.1" cy="613.2" r="1.7"/>
	<circle cx="341.1" cy="623.5" r="1.7"/>
	<circle cx="330.8" cy="397" r="1.7"/>
	<circle cx="330.8" cy="407.4" r="1.7"/>
	<circle cx="330.8" cy="417.7" r="1.7"/>
	<circle cx="330.8" cy="427.9" r="1.7"/>
	<circle cx="330.8" cy="438.3" r="1.7"/>
	<circle cx="330.8" cy="448.6" r="1.7"/>
	<circle cx="330.8" cy="458.8" r="1.7"/>
	<circle cx="330.8" cy="469.1" r="1.7"/>
	<circle cx="330.8" cy="479.4" r="1.7"/>
	<circle cx="330.8" cy="489.7" r="1.7"/>
	<circle cx="330.8" cy="500" r="1.7"/>
	<circle cx="330.8" cy="510.3" r="1.7"/>
	<circle cx="330.8" cy="520.6" r="1.7"/>
	<circle cx="330.8" cy="530.8" r="1.7"/>
	<circle cx="330.8" cy="541.2" r="1.7"/>
	<circle cx="330.8" cy="551.5" r="1.7"/>
	<circle cx="330.8" cy="561.7" r="1.7"/>
	<circle cx="330.8" cy="572" r="1.7"/>
	<circle cx="330.8" cy="582.4" r="1.7"/>
	<circle cx="330.8" cy="592.6" r="1.7"/>
	<circle cx="330.8" cy="602.9" r="1.7"/>
	<circle cx="330.8" cy="613.2" r="1.7"/>
	<circle cx="330.8" cy="623.5" r="1.7"/>
	<circle cx="320.4" cy="397" r="1.7"/>
	<circle cx="320.4" cy="407.4" r="1.7"/>
	<circle cx="320.4" cy="417.7" r="1.7"/>
	<circle cx="320.4" cy="427.9" r="1.7"/>
	<circle cx="320.4" cy="438.3" r="1.7"/>
	<circle cx="320.4" cy="448.6" r="1.7"/>
	<circle cx="320.4" cy="458.8" r="1.7"/>
	<circle cx="320.4" cy="469.1" r="1.7"/>
	<circle cx="320.4" cy="479.4" r="1.7"/>
	<circle cx="320.4" cy="489.7" r="1.7"/>
	<circle cx="320.4" cy="500" r="1.7"/>
	<circle cx="320.4" cy="510.3" r="1.7"/>
	<circle cx="320.4" cy="520.6" r="1.7"/>
	<circle cx="320.4" cy="530.8" r="1.7"/>
	<circle cx="320.4" cy="541.2" r="1.7"/>
	<circle cx="320.4" cy="551.5" r="1.7"/>
	<circle cx="320.4" cy="561.7" r="1.7"/>
	<circle cx="320.4" cy="572" r="1.7"/>
	<circle cx="320.4" cy="582.4" r="1.7"/>
	<circle cx="320.4" cy="592.6" r="1.7"/>
	<circle cx="320.4" cy="602.9" r="1.7"/>
	<circle cx="320.4" cy="613.2" r="1.7"/>
	<circle cx="310.2" cy="397" r="1.7"/>
	<circle cx="310.2" cy="407.4" r="1.7"/>
	<circle cx="310.2" cy="417.7" r="1.7"/>
	<circle cx="310.2" cy="427.9" r="1.7"/>
	<circle cx="310.2" cy="438.3" r="1.7"/>
	<circle cx="310.2" cy="448.6" r="1.7"/>
	<circle cx="310.2" cy="458.8" r="1.7"/>
	<circle cx="310.2" cy="469.1" r="1.7"/>
	<circle cx="310.2" cy="479.4" r="1.7"/>
	<circle cx="310.2" cy="489.7" r="1.7"/>
	<circle cx="310.2" cy="500" r="1.7"/>
	<circle cx="310.2" cy="510.3" r="1.7"/>
	<circle cx="310.2" cy="520.6" r="1.7"/>
	<circle cx="310.2" cy="530.8" r="1.7"/>
	<circle cx="310.2" cy="541.2" r="1.7"/>
	<circle cx="310.2" cy="551.5" r="1.7"/>
	<circle cx="310.2" cy="561.7" r="1.7"/>
	<circle cx="310.2" cy="572" r="1.7"/>
	<circle cx="310.2" cy="582.4" r="1.7"/>
	<circle cx="310.2" cy="592.6" r="1.7"/>
	<circle cx="310.2" cy="602.9" r="1.7"/>
	<circle cx="310.2" cy="613.2" r="1.7"/>
	<circle cx="299.9" cy="397" r="1.7"/>
	<circle cx="299.9" cy="407.4" r="1.7"/>
	<circle cx="299.9" cy="417.7" r="1.7"/>
	<circle cx="299.9" cy="427.9" r="1.7"/>
	<circle cx="299.9" cy="438.3" r="1.7"/>
	<circle cx="299.9" cy="448.6" r="1.7"/>
	<circle cx="299.9" cy="458.8" r="1.7"/>
	<circle cx="299.9" cy="469.1" r="1.7"/>
	<circle cx="299.9" cy="479.4" r="1.7"/>
	<circle cx="299.9" cy="489.7" r="1.7"/>
	<circle cx="299.9" cy="500" r="1.7"/>
	<circle cx="299.9" cy="510.3" r="1.7"/>
	<circle cx="299.9" cy="520.6" r="1.7"/>
	<circle cx="299.9" cy="530.8" r="1.7"/>
	<circle cx="299.9" cy="541.2" r="1.7"/>
	<circle cx="299.9" cy="551.5" r="1.7"/>
	<circle cx="299.9" cy="561.7" r="1.7"/>
	<circle cx="299.9" cy="572" r="1.7"/>
	<circle cx="299.9" cy="582.4" r="1.7"/>
	<circle cx="299.9" cy="592.6" r="1.7"/>
	<circle cx="299.9" cy="602.9" r="1.7"/>
	<circle cx="289.5" cy="397" r="1.7"/>
	<circle cx="289.5" cy="407.4" r="1.7"/>
	<circle cx="289.5" cy="417.7" r="1.7"/>
	<circle cx="289.5" cy="427.9" r="1.7"/>
	<circle cx="289.5" cy="438.3" r="1.7"/>
	<circle cx="289.5" cy="448.6" r="1.7"/>
	<circle cx="289.5" cy="458.8" r="1.7"/>
	<circle cx="289.5" cy="469.1" r="1.7"/>
	<circle cx="289.5" cy="479.4" r="1.7"/>
	<circle cx="289.5" cy="489.7" r="1.7"/>
	<circle cx="289.5" cy="500" r="1.7"/>
	<circle cx="289.5" cy="510.3" r="1.7"/>
	<circle cx="289.5" cy="520.6" r="1.7"/>
	<circle cx="289.5" cy="530.8" r="1.7"/>
	<circle cx="289.5" cy="541.2" r="1.7"/>
	<circle cx="289.5" cy="551.5" r="1.7"/>
	<circle cx="289.5" cy="561.7" r="1.7"/>
	<circle cx="289.5" cy="572" r="1.7"/>
	<circle cx="289.5" cy="582.4" r="1.7"/>
	<circle cx="289.5" cy="592.6" r="1.7"/>
	<circle cx="289.5" cy="602.9" r="1.7"/>
	<circle cx="279.3" cy="397" r="1.7"/>
	<circle cx="279.3" cy="407.4" r="1.7"/>
	<circle cx="279.3" cy="417.7" r="1.7"/>
	<circle cx="279.3" cy="427.9" r="1.7"/>
	<circle cx="279.3" cy="438.3" r="1.7"/>
	<circle cx="279.3" cy="448.6" r="1.7"/>
	<circle cx="279.3" cy="458.8" r="1.7"/>
	<circle cx="279.3" cy="469.1" r="1.7"/>
	<circle cx="279.3" cy="479.4" r="1.7"/>
	<circle cx="279.3" cy="489.7" r="1.7"/>
	<circle cx="279.3" cy="500" r="1.7"/>
	<circle cx="279.3" cy="510.3" r="1.7"/>
	<circle cx="279.3" cy="520.6" r="1.7"/>
	<circle cx="279.3" cy="530.8" r="1.7"/>
	<circle cx="279.3" cy="541.2" r="1.7"/>
	<circle cx="279.3" cy="551.5" r="1.7"/>
	<circle cx="279.3" cy="561.7" r="1.7"/>
	<circle cx="279.3" cy="572" r="1.7"/>
	<circle cx="279.3" cy="582.4" r="1.7"/>
	<circle cx="279.3" cy="592.6" r="1.7"/>
	<circle cx="269" cy="397" r="1.7"/>
	<circle cx="269" cy="407.4" r="1.7"/>
	<circle cx="269" cy="417.7" r="1.7"/>
	<circle cx="269" cy="427.9" r="1.7"/>
	<circle cx="269" cy="438.3" r="1.7"/>
	<circle cx="269" cy="448.6" r="1.7"/>
	<circle cx="269" cy="458.8" r="1.7"/>
	<circle cx="269" cy="469.1" r="1.7"/>
	<circle cx="269" cy="479.4" r="1.7"/>
	<circle cx="269" cy="489.7" r="1.7"/>
	<circle cx="269" cy="500" r="1.7"/>
	<circle cx="269" cy="510.3" r="1.7"/>
	<circle cx="269" cy="520.6" r="1.7"/>
	<circle cx="269" cy="530.8" r="1.7"/>
	<circle cx="269" cy="541.2" r="1.7"/>
	<circle cx="269" cy="551.5" r="1.7"/>
	<circle cx="269" cy="561.7" r="1.7"/>
	<circle cx="269" cy="572" r="1.7"/>
	<circle cx="269" cy="582.4" r="1.7"/>
	<circle cx="269" cy="592.6" r="1.7"/>
	<circle cx="258.8" cy="397" r="1.7"/>
	<circle cx="258.8" cy="407.4" r="1.7"/>
	<circle cx="258.8" cy="417.7" r="1.7"/>
	<circle cx="258.8" cy="427.9" r="1.7"/>
	<circle cx="258.8" cy="438.3" r="1.7"/>
	<circle cx="258.8" cy="448.6" r="1.7"/>
	<circle cx="258.8" cy="458.8" r="1.7"/>
	<circle cx="258.8" cy="469.1" r="1.7"/>
	<circle cx="258.8" cy="479.4" r="1.7"/>
	<circle cx="258.8" cy="489.7" r="1.7"/>
	<circle cx="258.8" cy="500" r="1.7"/>
	<circle cx="258.8" cy="510.3" r="1.7"/>
	<circle cx="258.8" cy="520.6" r="1.7"/>
	<circle cx="258.8" cy="530.8" r="1.7"/>
	<circle cx="258.8" cy="541.2" r="1.7"/>
	<circle cx="258.8" cy="551.5" r="1.7"/>
	<circle cx="258.8" cy="561.7" r="1.7"/>
	<circle cx="258.8" cy="572" r="1.7"/>
	<circle cx="258.8" cy="582.4" r="1.7"/>
	<circle cx="248.4" cy="397" r="1.7"/>
	<circle cx="248.4" cy="407.4" r="1.7"/>
	<circle cx="248.4" cy="417.7" r="1.7"/>
	<circle cx="248.4" cy="427.9" r="1.7"/>
	<circle cx="248.4" cy="438.3" r="1.7"/>
	<circle cx="248.4" cy="448.6" r="1.7"/>
	<circle cx="248.4" cy="458.8" r="1.7"/>
	<circle cx="248.4" cy="469.1" r="1.7"/>
	<circle cx="248.4" cy="479.4" r="1.7"/>
	<circle cx="248.4" cy="489.7" r="1.7"/>
	<circle cx="248.4" cy="500" r="1.7"/>
	<circle cx="248.4" cy="510.3" r="1.7"/>
	<circle cx="248.4" cy="520.6" r="1.7"/>
	<circle cx="248.4" cy="530.8" r="1.7"/>
	<circle cx="248.4" cy="541.2" r="1.7"/>
	<circle cx="248.4" cy="551.5" r="1.7"/>
	<circle cx="248.4" cy="561.7" r="1.7"/>
	<circle cx="248.4" cy="572" r="1.7"/>
	<circle cx="248.4" cy="582.4" r="1.7"/>
	<circle cx="238.1" cy="397" r="1.7"/>
	<circle cx="238.1" cy="407.4" r="1.7"/>
	<circle cx="238.1" cy="417.7" r="1.7"/>
	<circle cx="238.1" cy="427.9" r="1.7"/>
	<circle cx="238.1" cy="438.3" r="1.7"/>
	<circle cx="238.1" cy="448.6" r="1.7"/>
	<circle cx="238.1" cy="458.8" r="1.7"/>
	<circle cx="238.1" cy="469.1" r="1.7"/>
	<circle cx="238.1" cy="479.4" r="1.7"/>
	<circle cx="238.1" cy="489.7" r="1.7"/>
	<circle cx="238.1" cy="500" r="1.7"/>
	<circle cx="238.1" cy="510.3" r="1.7"/>
	<circle cx="238.1" cy="520.6" r="1.7"/>
	<circle cx="238.1" cy="530.8" r="1.7"/>
	<circle cx="238.1" cy="541.2" r="1.7"/>
	<circle cx="238.1" cy="551.5" r="1.7"/>
	<circle cx="238.1" cy="561.7" r="1.7"/>
	<circle cx="238.1" cy="572" r="1.7"/>
	<circle cx="227.9" cy="397" r="1.7"/>
	<circle cx="227.9" cy="407.4" r="1.7"/>
	<circle cx="227.9" cy="417.7" r="1.7"/>
	<circle cx="227.9" cy="427.9" r="1.7"/>
	<circle cx="227.9" cy="438.3" r="1.7"/>
	<circle cx="227.9" cy="448.6" r="1.7"/>
	<circle cx="227.9" cy="458.8" r="1.7"/>
	<circle cx="227.9" cy="469.1" r="1.7"/>
	<circle cx="227.9" cy="479.4" r="1.7"/>
	<circle cx="227.9" cy="489.7" r="1.7"/>
	<circle cx="227.9" cy="500" r="1.7"/>
	<circle cx="227.9" cy="510.3" r="1.7"/>
	<circle cx="227.9" cy="520.6" r="1.7"/>
	<circle cx="227.9" cy="530.8" r="1.7"/>
	<circle cx="227.9" cy="541.2" r="1.7"/>
	<circle cx="227.9" cy="551.5" r="1.7"/>
	<circle cx="227.9" cy="561.7" r="1.7"/>
	<circle cx="227.9" cy="572" r="1.7"/>
	<circle cx="217.5" cy="397" r="1.7"/>
	<circle cx="217.5" cy="407.4" r="1.7"/>
	<circle cx="217.5" cy="417.7" r="1.7"/>
	<circle cx="217.5" cy="427.9" r="1.7"/>
	<circle cx="217.5" cy="438.3" r="1.7"/>
	<circle cx="217.5" cy="448.6" r="1.7"/>
	<circle cx="217.5" cy="458.8" r="1.7"/>
	<circle cx="217.5" cy="469.1" r="1.7"/>
	<circle cx="217.5" cy="479.4" r="1.7"/>
	<circle cx="217.5" cy="489.7" r="1.7"/>
	<circle cx="217.5" cy="500" r="1.7"/>
	<circle cx="217.5" cy="510.3" r="1.7"/>
	<circle cx="217.5" cy="520.6" r="1.7"/>
	<circle cx="217.5" cy="530.8" r="1.7"/>
	<circle cx="217.5" cy="541.2" r="1.7"/>
	<circle cx="217.5" cy="551.5" r="1.7"/>
	<circle cx="217.5" cy="561.7" r="1.7"/>
	<circle cx="217.5" cy="572" r="1.7"/>
	<circle cx="207.3" cy="397" r="1.7"/>
	<circle cx="207.3" cy="407.4" r="1.7"/>
	<circle cx="207.3" cy="417.7" r="1.7"/>
	<circle cx="207.3" cy="427.9" r="1.7"/>
	<circle cx="207.3" cy="438.3" r="1.7"/>
	<circle cx="207.3" cy="448.6" r="1.7"/>
	<circle cx="207.3" cy="458.8" r="1.7"/>
	<circle cx="207.3" cy="469.1" r="1.7"/>
	<circle cx="207.3" cy="479.4" r="1.7"/>
	<circle cx="207.3" cy="489.7" r="1.7"/>
	<circle cx="207.3" cy="500" r="1.7"/>
	<circle cx="207.3" cy="510.3" r="1.7"/>
	<circle cx="207.3" cy="520.6" r="1.7"/>
	<circle cx="207.3" cy="530.8" r="1.7"/>
	<circle cx="207.3" cy="541.2" r="1.7"/>
	<circle cx="207.3" cy="551.5" r="1.7"/>
	<circle cx="207.3" cy="561.7" r="1.7"/>
	<circle cx="197" cy="397" r="1.7"/>
	<circle cx="197" cy="407.4" r="1.7"/>
	<circle cx="197" cy="417.7" r="1.7"/>
	<circle cx="197" cy="427.9" r="1.7"/>
	<circle cx="197" cy="438.3" r="1.7"/>
	<circle cx="197" cy="448.6" r="1.7"/>
	<circle cx="197" cy="458.8" r="1.7"/>
	<circle cx="197" cy="469.1" r="1.7"/>
	<circle cx="197" cy="479.4" r="1.7"/>
	<circle cx="197" cy="489.7" r="1.7"/>
	<circle cx="197" cy="500" r="1.7"/>
	<circle cx="197" cy="510.3" r="1.7"/>
	<circle cx="197" cy="520.6" r="1.7"/>
	<circle cx="197" cy="530.8" r="1.7"/>
	<circle cx="197" cy="541.2" r="1.7"/>
	<circle cx="197" cy="551.5" r="1.7"/>
	<circle cx="197" cy="561.7" r="1.7"/>
	<circle cx="186.6" cy="397" r="1.7"/>
	<circle cx="186.6" cy="407.4" r="1.7"/>
	<circle cx="186.6" cy="417.7" r="1.7"/>
	<circle cx="186.6" cy="427.9" r="1.7"/>
	<circle cx="186.6" cy="438.3" r="1.7"/>
	<circle cx="186.6" cy="448.6" r="1.7"/>
	<circle cx="186.6" cy="458.8" r="1.7"/>
	<circle cx="186.6" cy="469.1" r="1.7"/>
	<circle cx="186.6" cy="479.4" r="1.7"/>
	<circle cx="186.6" cy="489.7" r="1.7"/>
	<circle cx="186.6" cy="500" r="1.7"/>
	<circle cx="186.6" cy="510.3" r="1.7"/>
	<circle cx="186.6" cy="520.6" r="1.7"/>
	<circle cx="186.6" cy="530.8" r="1.7"/>
	<circle cx="186.6" cy="541.2" r="1.7"/>
	<circle cx="186.6" cy="551.5" r="1.7"/>
	<circle cx="176.4" cy="397" r="1.7"/>
	<circle cx="176.4" cy="407.4" r="1.7"/>
	<circle cx="176.4" cy="417.7" r="1.7"/>
	<circle cx="176.4" cy="427.9" r="1.7"/>
	<circle cx="176.4" cy="438.3" r="1.7"/>
	<circle cx="176.4" cy="448.6" r="1.7"/>
	<circle cx="176.4" cy="458.8" r="1.7"/>
	<circle cx="176.4" cy="469.1" r="1.7"/>
	<circle cx="176.4" cy="479.4" r="1.7"/>
	<circle cx="176.4" cy="489.7" r="1.7"/>
	<circle cx="176.4" cy="500" r="1.7"/>
	<circle cx="176.4" cy="510.3" r="1.7"/>
	<circle cx="176.4" cy="520.6" r="1.7"/>
	<circle cx="176.4" cy="530.8" r="1.7"/>
	<circle cx="176.4" cy="541.2" r="1.7"/>
	<circle cx="176.4" cy="551.5" r="1.7"/>
</g>
<g>
	<circle cx="989.3" cy="633.7" r="1.7"/>
	<circle cx="989.3" cy="644" r="1.7"/>
	<circle cx="989.3" cy="654.4" r="1.7"/>
	<circle cx="989.3" cy="664.6" r="1.7"/>
	<circle cx="989.3" cy="674.9" r="1.7"/>
	<circle cx="989.3" cy="685.3" r="1.7"/>
	<circle cx="989.3" cy="695.5" r="1.7"/>
	<circle cx="989.3" cy="705.8" r="1.7"/>
	<circle cx="989.3" cy="716" r="1.7"/>
	<circle cx="989.3" cy="726.4" r="1.7"/>
	<circle cx="989.3" cy="736.7" r="1.7"/>
	<circle cx="989.3" cy="746.9" r="1.7"/>
	<circle cx="989.3" cy="757.3" r="1.7"/>
	<circle cx="989.3" cy="767.5" r="1.7"/>
	<circle cx="989.3" cy="777.8" r="1.7"/>
	<circle cx="989.3" cy="788.2" r="1.7"/>
	<circle cx="989.3" cy="798.4" r="1.7"/>
	<circle cx="989.3" cy="808.7" r="1.7"/>
	<circle cx="989.3" cy="818.9" r="1.7"/>
	<circle cx="979" cy="644" r="1.7"/>
	<circle cx="979" cy="654.4" r="1.7"/>
	<circle cx="979" cy="664.6" r="1.7"/>
	<circle cx="979" cy="674.9" r="1.7"/>
	<circle cx="979" cy="685.3" r="1.7"/>
	<circle cx="979" cy="695.5" r="1.7"/>
	<circle cx="979" cy="705.8" r="1.7"/>
	<circle cx="979" cy="716" r="1.7"/>
	<circle cx="979" cy="726.4" r="1.7"/>
	<circle cx="979" cy="736.7" r="1.7"/>
	<circle cx="979" cy="746.9" r="1.7"/>
	<circle cx="979" cy="757.3" r="1.7"/>
	<circle cx="979" cy="767.5" r="1.7"/>
	<circle cx="979" cy="777.8" r="1.7"/>
	<circle cx="979" cy="788.2" r="1.7"/>
	<circle cx="979" cy="798.4" r="1.7"/>
	<circle cx="979" cy="808.7" r="1.7"/>
	<circle cx="979" cy="818.9" r="1.7"/>
	<circle cx="968.8" cy="644" r="1.7"/>
	<circle cx="968.8" cy="654.4" r="1.7"/>
	<circle cx="968.8" cy="664.6" r="1.7"/>
	<circle cx="968.8" cy="674.9" r="1.7"/>
	<circle cx="968.8" cy="685.3" r="1.7"/>
	<circle cx="968.8" cy="695.5" r="1.7"/>
	<circle cx="968.8" cy="705.8" r="1.7"/>
	<circle cx="968.8" cy="716" r="1.7"/>
	<circle cx="968.8" cy="726.4" r="1.7"/>
	<circle cx="968.8" cy="736.7" r="1.7"/>
	<circle cx="968.8" cy="746.9" r="1.7"/>
	<circle cx="968.8" cy="757.3" r="1.7"/>
	<circle cx="968.8" cy="767.5" r="1.7"/>
	<circle cx="968.8" cy="777.8" r="1.7"/>
	<circle cx="968.8" cy="788.2" r="1.7"/>
	<circle cx="968.8" cy="798.4" r="1.7"/>
	<circle cx="968.8" cy="808.7" r="1.7"/>
	<circle cx="968.8" cy="818.9" r="1.7"/>
	<circle cx="958.4" cy="654.4" r="1.7"/>
	<circle cx="958.4" cy="664.6" r="1.7"/>
	<circle cx="958.4" cy="674.9" r="1.7"/>
	<circle cx="958.4" cy="685.3" r="1.7"/>
	<circle cx="958.4" cy="695.5" r="1.7"/>
	<circle cx="958.4" cy="705.8" r="1.7"/>
	<circle cx="958.4" cy="716" r="1.7"/>
	<circle cx="958.4" cy="726.4" r="1.7"/>
	<circle cx="958.4" cy="736.7" r="1.7"/>
	<circle cx="958.4" cy="746.9" r="1.7"/>
	<circle cx="958.4" cy="757.3" r="1.7"/>
	<circle cx="958.4" cy="767.5" r="1.7"/>
	<circle cx="958.4" cy="777.8" r="1.7"/>
	<circle cx="958.4" cy="788.2" r="1.7"/>
	<circle cx="958.4" cy="798.4" r="1.7"/>
	<circle cx="958.4" cy="808.7" r="1.7"/>
	<circle cx="958.4" cy="818.9" r="1.7"/>
	<circle cx="948.2" cy="664.6" r="1.7"/>
	<circle cx="948.2" cy="674.9" r="1.7"/>
	<circle cx="948.2" cy="685.3" r="1.7"/>
	<circle cx="948.2" cy="695.5" r="1.7"/>
	<circle cx="948.2" cy="705.8" r="1.7"/>
	<circle cx="948.2" cy="716" r="1.7"/>
	<circle cx="948.2" cy="726.4" r="1.7"/>
	<circle cx="948.2" cy="736.7" r="1.7"/>
	<circle cx="948.2" cy="746.9" r="1.7"/>
	<circle cx="948.2" cy="757.3" r="1.7"/>
	<circle cx="948.2" cy="767.5" r="1.7"/>
	<circle cx="948.2" cy="777.8" r="1.7"/>
	<circle cx="948.2" cy="788.2" r="1.7"/>
	<circle cx="948.2" cy="798.4" r="1.7"/>
	<circle cx="948.2" cy="808.7" r="1.7"/>
	<circle cx="948.2" cy="818.9" r="1.7"/>
	<circle cx="937.9" cy="674.9" r="1.7"/>
	<circle cx="937.9" cy="685.3" r="1.7"/>
	<circle cx="937.9" cy="695.5" r="1.7"/>
	<circle cx="937.9" cy="705.8" r="1.7"/>
	<circle cx="937.9" cy="716" r="1.7"/>
	<circle cx="937.9" cy="726.4" r="1.7"/>
	<circle cx="937.9" cy="736.7" r="1.7"/>
	<circle cx="937.9" cy="746.9" r="1.7"/>
	<circle cx="937.9" cy="757.3" r="1.7"/>
	<circle cx="937.9" cy="767.5" r="1.7"/>
	<circle cx="937.9" cy="777.8" r="1.7"/>
	<circle cx="937.9" cy="788.2" r="1.7"/>
	<circle cx="937.9" cy="798.4" r="1.7"/>
	<circle cx="937.9" cy="808.7" r="1.7"/>
	<circle cx="937.9" cy="818.9" r="1.7"/>
	<circle cx="927.5" cy="674.9" r="1.7"/>
	<circle cx="927.5" cy="685.3" r="1.7"/>
	<circle cx="927.5" cy="695.5" r="1.7"/>
	<circle cx="927.5" cy="705.8" r="1.7"/>
	<circle cx="927.5" cy="716" r="1.7"/>
	<circle cx="927.5" cy="726.4" r="1.7"/>
	<circle cx="927.5" cy="736.7" r="1.7"/>
	<circle cx="927.5" cy="746.9" r="1.7"/>
	<circle cx="927.5" cy="757.3" r="1.7"/>
	<circle cx="927.5" cy="767.5" r="1.7"/>
	<circle cx="927.5" cy="777.8" r="1.7"/>
	<circle cx="927.5" cy="788.2" r="1.7"/>
	<circle cx="927.5" cy="798.4" r="1.7"/>
	<circle cx="927.5" cy="808.7" r="1.7"/>
	<circle cx="927.5" cy="818.9" r="1.7"/>
	<circle cx="917.3" cy="685.3" r="1.7"/>
	<circle cx="917.3" cy="695.5" r="1.7"/>
	<circle cx="917.3" cy="705.8" r="1.7"/>
	<circle cx="917.3" cy="716" r="1.7"/>
	<circle cx="917.3" cy="726.4" r="1.7"/>
	<circle cx="917.3" cy="736.7" r="1.7"/>
	<circle cx="917.3" cy="746.9" r="1.7"/>
	<circle cx="917.3" cy="757.3" r="1.7"/>
	<circle cx="917.3" cy="767.5" r="1.7"/>
	<circle cx="917.3" cy="777.8" r="1.7"/>
	<circle cx="917.3" cy="788.2" r="1.7"/>
	<circle cx="917.3" cy="798.4" r="1.7"/>
	<circle cx="917.3" cy="808.7" r="1.7"/>
	<circle cx="917.3" cy="818.9" r="1.7"/>
</g>
<path class="st1" d="M428.9,487.3h-91.4c-12,0-21.7-9.7-21.7-21.7l0,0c0-12,9.7-21.7,21.7-21.7h91.4c12,0,21.7,9.7,21.7,21.7l0,0
	C450.6,477.6,440.9,487.3,428.9,487.3z"/>
</svg>
