<?xml version="1.0" encoding="utf-8"?>
<!-- Generator: $$$/GeneralStr/196=Adobe Illustrator 27.6.0, SVG Export Plug-In . SVG Version: 6.00 Build 0)  -->
<svg version="1.1" id="b" xmlns="http://www.w3.org/2000/svg" xmlns:xlink="http://www.w3.org/1999/xlink" x="0px" y="0px"
	 viewBox="0 0 1000 800.7" style="enable-background:new 0 0 1000 800.7;" xml:space="preserve">
<style type="text/css">
	.st0{fill:#009770;}
	.st1{fill:#009770;stroke:#000000;stroke-width:3;stroke-linecap:round;stroke-linejoin:round;}
	.st2{fill:none;stroke:#000000;stroke-width:3;stroke-linecap:round;stroke-linejoin:round;}
</style>
<rect class="st0" width="1000" height="800.7"/>
<path class="st1" d="M967.5,568.3C855.3,525.9,489,529,489,529v-46.5c0,0,510.8-4.2,510.8,67s-784.6-29.9-713.4,71.2
	s718.1,3.3,596.2,132v46.5c8.2-8.7,12.9-16.3,14.6-23.1"/>
<path class="st1" d="M302.2,635.6C419.4,591,999.7,657.2,999.7,596"/>
<path class="st1" d="M883.2,750.2c-87.1-51.7-538.2,0.4-596.9-83c-2.8-4-4.3-7.6-4.5-11"/>
<path class="st1" d="M196.8,1.5h301.6c108.5,0,196.5,119,196.5,265.9s-88,265.9-196.5,265.9H215.7"/>
<ellipse class="st1" cx="196.8" cy="267.3" rx="196.5" ry="265.9"/>
<ellipse class="st1" cx="196.8" cy="267.3" rx="67.3" ry="91"/>
<circle cx="262.7" cy="254.7" r="1.3"/>
<circle cx="262.7" cy="262.7" r="1.3"/>
<circle cx="262.7" cy="270.7" r="1.3"/>
<circle cx="262.7" cy="278.7" r="1.3"/>
<path d="M262.7,286.7c0,0.7,0.7,1.3,0,1.3s-1.3-0.6-1.3-1.3s0.6-1.3,1.3-1.3S262.7,286,262.7,286.7z"/>
<circle cx="254.7" cy="222.7" r="1.3"/>
<circle cx="254.7" cy="230.7" r="1.3"/>
<circle cx="254.7" cy="238.7" r="1.3"/>
<circle cx="254.7" cy="246.7" r="1.3"/>
<circle cx="254.7" cy="254.7" r="1.3"/>
<circle cx="254.7" cy="262.7" r="1.3"/>
<circle cx="254.7" cy="270.7" r="1.3"/>
<circle cx="254.7" cy="278.7" r="1.3"/>
<circle cx="254.7" cy="286.7" r="1.3"/>
<circle cx="254.7" cy="294.7" r="1.3"/>
<circle cx="254.7" cy="302.7" r="1.3"/>
<circle cx="254.7" cy="310.7" r="1.3"/>
<path d="M247.4,207.3c0,0.7,0,0.7-0.7,0.7s-1.3-0.6-1.3-1.3s-0.4-1.8,0.3-1.8S247.4,206.5,247.4,207.3z"/>
<circle cx="246.7" cy="214.7" r="1.3"/>
<circle cx="246.7" cy="222.7" r="1.3"/>
<circle cx="246.7" cy="230.7" r="1.3"/>
<circle cx="246.7" cy="238.7" r="1.3"/>
<circle cx="246.7" cy="246.7" r="1.3"/>
<circle cx="246.7" cy="254.7" r="1.3"/>
<circle cx="246.7" cy="262.7" r="1.3"/>
<circle cx="246.7" cy="270.7" r="1.3"/>
<circle cx="246.7" cy="278.7" r="1.3"/>
<circle cx="246.7" cy="286.7" r="1.3"/>
<circle cx="246.7" cy="294.7" r="1.3"/>
<circle cx="246.7" cy="302.7" r="1.3"/>
<circle cx="246.7" cy="310.7" r="1.3"/>
<circle cx="246.7" cy="318.7" r="1.3"/>
<circle cx="246.7" cy="326.7" r="1.3"/>
<circle cx="238.7" cy="198.6" r="1.3"/>
<circle cx="238.7" cy="206.6" r="1.3"/>
<circle cx="238.7" cy="214.7" r="1.3"/>
<circle cx="238.7" cy="222.7" r="1.3"/>
<circle cx="238.7" cy="230.7" r="1.3"/>
<circle cx="238.7" cy="238.7" r="1.3"/>
<circle cx="238.7" cy="246.7" r="1.3"/>
<circle cx="238.7" cy="254.7" r="1.3"/>
<circle cx="238.7" cy="262.7" r="1.3"/>
<circle cx="238.7" cy="270.7" r="1.3"/>
<circle cx="238.7" cy="278.7" r="1.3"/>
<circle cx="238.7" cy="286.7" r="1.3"/>
<circle cx="238.7" cy="294.7" r="1.3"/>
<circle cx="238.7" cy="302.7" r="1.3"/>
<circle cx="238.7" cy="310.7" r="1.3"/>
<circle cx="238.7" cy="318.7" r="1.3"/>
<circle cx="238.7" cy="326.7" r="1.3"/>
<circle cx="238.7" cy="334.7" r="1.3"/>
<circle cx="230.7" cy="190.6" r="1.3"/>
<circle cx="230.7" cy="198.6" r="1.3"/>
<circle cx="230.7" cy="206.6" r="1.3"/>
<circle cx="230.7" cy="214.7" r="1.3"/>
<circle cx="230.7" cy="222.7" r="1.3"/>
<circle cx="230.7" cy="230.7" r="1.3"/>
<circle cx="230.7" cy="238.7" r="1.3"/>
<circle cx="230.7" cy="246.7" r="1.3"/>
<circle cx="230.7" cy="254.7" r="1.3"/>
<circle cx="230.7" cy="262.7" r="1.3"/>
<circle cx="230.7" cy="270.7" r="1.3"/>
<circle cx="230.7" cy="278.7" r="1.3"/>
<circle cx="230.7" cy="286.7" r="1.3"/>
<circle cx="230.7" cy="294.7" r="1.3"/>
<circle cx="230.7" cy="302.7" r="1.3"/>
<circle cx="230.7" cy="310.7" r="1.3"/>
<circle cx="230.7" cy="318.7" r="1.3"/>
<circle cx="230.7" cy="326.7" r="1.3"/>
<circle cx="230.7" cy="334.7" r="1.3"/>
<circle cx="230.7" cy="342.7" r="1.3"/>
<circle cx="222.7" cy="190.6" r="1.3"/>
<circle cx="222.7" cy="198.6" r="1.3"/>
<circle cx="222.7" cy="206.6" r="1.3"/>
<circle cx="222.7" cy="214.7" r="1.3"/>
<circle cx="222.7" cy="222.7" r="1.3"/>
<circle cx="222.7" cy="230.7" r="1.3"/>
<circle cx="222.7" cy="238.7" r="1.3"/>
<circle cx="222.7" cy="246.7" r="1.3"/>
<circle cx="222.7" cy="254.7" r="1.3"/>
<circle cx="222.7" cy="262.7" r="1.3"/>
<circle cx="222.7" cy="270.7" r="1.3"/>
<circle cx="222.7" cy="278.7" r="1.3"/>
<circle cx="222.7" cy="286.7" r="1.3"/>
<circle cx="222.7" cy="294.7" r="1.3"/>
<circle cx="222.7" cy="302.7" r="1.3"/>
<circle cx="222.7" cy="310.7" r="1.3"/>
<circle cx="222.7" cy="318.7" r="1.3"/>
<circle cx="222.7" cy="326.7" r="1.3"/>
<circle cx="222.7" cy="334.7" r="1.3"/>
<circle cx="222.7" cy="342.7" r="1.3"/>
<circle cx="222.7" cy="350.7" r="1.3"/>
<circle cx="214.7" cy="182.6" r="1.3"/>
<circle cx="214.7" cy="190.6" r="1.3"/>
<circle cx="214.7" cy="198.6" r="1.3"/>
<circle cx="214.7" cy="206.6" r="1.3"/>
<circle cx="214.7" cy="214.7" r="1.3"/>
<circle cx="214.7" cy="222.7" r="1.3"/>
<circle cx="214.7" cy="230.7" r="1.3"/>
<circle cx="214.7" cy="238.7" r="1.3"/>
<circle cx="214.7" cy="246.7" r="1.3"/>
<circle cx="214.7" cy="254.7" r="1.3"/>
<circle cx="214.7" cy="262.7" r="1.3"/>
<circle cx="214.7" cy="270.7" r="1.3"/>
<circle cx="214.7" cy="278.7" r="1.3"/>
<circle cx="214.7" cy="286.7" r="1.3"/>
<circle cx="214.7" cy="294.7" r="1.3"/>
<circle cx="214.7" cy="302.7" r="1.3"/>
<circle cx="214.7" cy="310.7" r="1.3"/>
<circle cx="214.7" cy="318.7" r="1.3"/>
<circle cx="214.7" cy="326.7" r="1.3"/>
<circle cx="214.7" cy="334.7" r="1.3"/>
<circle cx="214.7" cy="342.7" r="1.3"/>
<circle cx="214.7" cy="350.7" r="1.3"/>
<circle cx="206.7" cy="182.6" r="1.3"/>
<circle cx="206.7" cy="190.6" r="1.3"/>
<circle cx="206.7" cy="198.6" r="1.3"/>
<circle cx="206.7" cy="206.6" r="1.3"/>
<circle cx="206.7" cy="214.7" r="1.3"/>
<circle cx="206.7" cy="222.7" r="1.3"/>
<circle cx="206.7" cy="230.7" r="1.3"/>
<circle cx="206.7" cy="238.7" r="1.3"/>
<circle cx="206.7" cy="246.7" r="1.3"/>
<circle cx="206.7" cy="254.7" r="1.3"/>
<circle cx="206.7" cy="262.7" r="1.3"/>
<circle cx="206.7" cy="270.7" r="1.3"/>
<circle cx="206.7" cy="278.7" r="1.3"/>
<circle cx="206.7" cy="286.7" r="1.3"/>
<circle cx="206.7" cy="294.7" r="1.3"/>
<circle cx="206.7" cy="302.7" r="1.3"/>
<circle cx="206.7" cy="310.7" r="1.3"/>
<circle cx="206.7" cy="318.7" r="1.3"/>
<circle cx="206.7" cy="326.7" r="1.3"/>
<circle cx="206.7" cy="334.7" r="1.3"/>
<circle cx="206.7" cy="342.7" r="1.3"/>
<circle cx="206.7" cy="350.7" r="1.3"/>
<circle cx="198.7" cy="182.6" r="1.3"/>
<circle cx="198.7" cy="190.6" r="1.3"/>
<circle cx="198.7" cy="198.6" r="1.3"/>
<circle cx="198.7" cy="206.6" r="1.3"/>
<circle cx="198.7" cy="214.7" r="1.3"/>
<circle cx="198.7" cy="222.7" r="1.3"/>
<circle cx="198.7" cy="230.7" r="1.3"/>
<circle cx="198.7" cy="238.7" r="1.3"/>
<circle cx="198.7" cy="246.7" r="1.3"/>
<circle cx="198.7" cy="254.7" r="1.3"/>
<circle cx="198.7" cy="262.7" r="1.3"/>
<circle cx="198.7" cy="270.7" r="1.3"/>
<circle cx="198.7" cy="278.7" r="1.3"/>
<circle cx="198.7" cy="286.7" r="1.3"/>
<circle cx="198.7" cy="294.7" r="1.3"/>
<circle cx="198.7" cy="302.7" r="1.3"/>
<circle cx="198.7" cy="310.7" r="1.3"/>
<circle cx="198.7" cy="318.7" r="1.3"/>
<circle cx="198.7" cy="326.7" r="1.3"/>
<circle cx="198.7" cy="334.7" r="1.3"/>
<circle cx="198.7" cy="342.7" r="1.3"/>
<circle cx="198.7" cy="350.7" r="1.3"/>
<circle cx="190.7" cy="182.6" r="1.3"/>
<circle cx="190.7" cy="190.6" r="1.3"/>
<circle cx="190.7" cy="198.6" r="1.3"/>
<circle cx="190.7" cy="206.6" r="1.3"/>
<circle cx="190.7" cy="214.7" r="1.3"/>
<circle cx="190.7" cy="222.7" r="1.3"/>
<circle cx="190.7" cy="230.7" r="1.3"/>
<circle cx="190.7" cy="238.7" r="1.3"/>
<circle cx="190.7" cy="246.7" r="1.3"/>
<circle cx="190.7" cy="254.7" r="1.3"/>
<circle cx="190.7" cy="262.7" r="1.3"/>
<circle cx="190.7" cy="270.7" r="1.3"/>
<circle cx="190.7" cy="278.7" r="1.3"/>
<circle cx="190.7" cy="286.7" r="1.3"/>
<circle cx="190.7" cy="294.7" r="1.3"/>
<circle cx="190.7" cy="302.7" r="1.3"/>
<circle cx="190.7" cy="310.7" r="1.3"/>
<circle cx="190.7" cy="318.7" r="1.3"/>
<circle cx="190.7" cy="326.7" r="1.3"/>
<circle cx="190.7" cy="334.7" r="1.3"/>
<circle cx="190.7" cy="342.7" r="1.3"/>
<circle cx="190.7" cy="350.7" r="1.3"/>
<circle cx="182.7" cy="182.6" r="1.3"/>
<circle cx="182.7" cy="190.6" r="1.3"/>
<circle cx="182.7" cy="198.6" r="1.3"/>
<circle cx="182.7" cy="206.6" r="1.3"/>
<circle cx="182.7" cy="214.7" r="1.3"/>
<circle cx="182.7" cy="222.7" r="1.3"/>
<circle cx="182.7" cy="230.7" r="1.3"/>
<circle cx="182.7" cy="238.7" r="1.3"/>
<circle cx="182.7" cy="246.7" r="1.3"/>
<circle cx="182.7" cy="254.7" r="1.3"/>
<circle cx="182.7" cy="262.7" r="1.3"/>
<circle cx="182.7" cy="270.7" r="1.3"/>
<circle cx="182.7" cy="278.7" r="1.3"/>
<circle cx="182.7" cy="286.7" r="1.3"/>
<circle cx="182.7" cy="294.7" r="1.3"/>
<circle cx="182.7" cy="302.7" r="1.3"/>
<circle cx="182.7" cy="310.7" r="1.3"/>
<circle cx="182.7" cy="318.7" r="1.3"/>
<circle cx="182.7" cy="326.7" r="1.3"/>
<circle cx="182.7" cy="334.7" r="1.3"/>
<circle cx="182.7" cy="342.7" r="1.3"/>
<circle cx="182.7" cy="350.7" r="1.3"/>
<circle cx="174.7" cy="182.6" r="1.3"/>
<circle cx="174.7" cy="190.6" r="1.3"/>
<circle cx="174.7" cy="198.6" r="1.3"/>
<circle cx="174.7" cy="206.6" r="1.3"/>
<circle cx="174.7" cy="214.7" r="1.3"/>
<circle cx="174.7" cy="222.7" r="1.3"/>
<circle cx="174.7" cy="230.7" r="1.3"/>
<circle cx="174.7" cy="238.7" r="1.3"/>
<circle cx="174.7" cy="246.7" r="1.3"/>
<circle cx="174.7" cy="254.7" r="1.3"/>
<circle cx="174.7" cy="262.7" r="1.3"/>
<circle cx="174.7" cy="270.7" r="1.3"/>
<circle cx="174.7" cy="278.7" r="1.3"/>
<circle cx="174.7" cy="286.7" r="1.3"/>
<circle cx="174.7" cy="294.7" r="1.3"/>
<circle cx="174.7" cy="302.7" r="1.3"/>
<circle cx="174.7" cy="310.7" r="1.3"/>
<circle cx="174.7" cy="318.7" r="1.3"/>
<circle cx="174.7" cy="326.7" r="1.3"/>
<circle cx="174.7" cy="334.7" r="1.3"/>
<circle cx="174.7" cy="342.7" r="1.3"/>
<circle cx="174.7" cy="350.7" r="1.3"/>
<circle cx="166.7" cy="190.6" r="1.3"/>
<circle cx="166.7" cy="198.6" r="1.3"/>
<circle cx="166.7" cy="206.6" r="1.3"/>
<circle cx="166.7" cy="214.7" r="1.3"/>
<circle cx="166.7" cy="222.7" r="1.3"/>
<circle cx="166.7" cy="230.7" r="1.3"/>
<circle cx="166.7" cy="238.7" r="1.3"/>
<circle cx="166.7" cy="246.7" r="1.3"/>
<circle cx="166.7" cy="254.7" r="1.3"/>
<circle cx="166.7" cy="262.7" r="1.3"/>
<circle cx="166.7" cy="270.7" r="1.3"/>
<circle cx="166.7" cy="278.7" r="1.3"/>
<circle cx="166.7" cy="286.7" r="1.3"/>
<circle cx="166.7" cy="294.7" r="1.3"/>
<circle cx="166.7" cy="302.7" r="1.3"/>
<circle cx="166.7" cy="310.7" r="1.3"/>
<circle cx="166.7" cy="318.7" r="1.3"/>
<circle cx="166.7" cy="326.7" r="1.3"/>
<circle cx="166.7" cy="334.7" r="1.3"/>
<circle cx="166.7" cy="342.7" r="1.3"/>
<circle cx="158.7" cy="198.6" r="1.3"/>
<circle cx="158.7" cy="206.6" r="1.3"/>
<circle cx="158.7" cy="214.7" r="1.3"/>
<circle cx="158.7" cy="222.7" r="1.3"/>
<circle cx="158.7" cy="230.7" r="1.3"/>
<circle cx="158.7" cy="238.7" r="1.3"/>
<circle cx="158.7" cy="246.7" r="1.3"/>
<circle cx="158.7" cy="254.7" r="1.3"/>
<circle cx="158.7" cy="262.7" r="1.3"/>
<circle cx="158.7" cy="270.7" r="1.3"/>
<circle cx="158.7" cy="278.7" r="1.3"/>
<circle cx="158.7" cy="286.7" r="1.3"/>
<circle cx="158.7" cy="294.7" r="1.3"/>
<circle cx="158.7" cy="302.7" r="1.3"/>
<circle cx="158.7" cy="310.7" r="1.3"/>
<circle cx="158.7" cy="318.7" r="1.3"/>
<circle cx="158.7" cy="326.7" r="1.3"/>
<circle cx="158.7" cy="334.7" r="1.3"/>
<circle cx="150.7" cy="206.6" r="1.3"/>
<circle cx="150.7" cy="214.7" r="1.3"/>
<circle cx="150.7" cy="222.7" r="1.3"/>
<circle cx="150.7" cy="230.7" r="1.3"/>
<circle cx="150.7" cy="238.7" r="1.3"/>
<circle cx="150.7" cy="246.7" r="1.3"/>
<circle cx="150.7" cy="254.7" r="1.3"/>
<circle cx="150.7" cy="262.7" r="1.3"/>
<circle cx="150.7" cy="270.7" r="1.3"/>
<circle cx="150.7" cy="278.7" r="1.3"/>
<circle cx="150.7" cy="286.7" r="1.3"/>
<circle cx="150.7" cy="294.7" r="1.3"/>
<circle cx="150.7" cy="302.7" r="1.3"/>
<circle cx="150.7" cy="310.7" r="1.3"/>
<circle cx="150.7" cy="318.7" r="1.3"/>
<circle cx="150.7" cy="326.7" r="1.3"/>
<circle cx="142.7" cy="214.7" r="1.3"/>
<circle cx="142.7" cy="222.7" r="1.3"/>
<circle cx="142.7" cy="230.7" r="1.3"/>
<circle cx="142.7" cy="238.7" r="1.3"/>
<circle cx="142.7" cy="246.7" r="1.3"/>
<circle cx="142.7" cy="254.7" r="1.3"/>
<circle cx="142.7" cy="262.7" r="1.3"/>
<circle cx="142.7" cy="270.7" r="1.3"/>
<circle cx="142.7" cy="278.7" r="1.3"/>
<circle cx="142.7" cy="286.7" r="1.3"/>
<circle cx="142.7" cy="294.7" r="1.3"/>
<circle cx="142.7" cy="302.7" r="1.3"/>
<circle cx="142.7" cy="310.7" r="1.3"/>
<circle cx="142.7" cy="318.7" r="1.3"/>
<circle cx="134.7" cy="238.7" r="1.3"/>
<circle cx="134.7" cy="246.7" r="1.3"/>
<circle cx="134.7" cy="254.7" r="1.3"/>
<circle cx="134.7" cy="262.7" r="1.3"/>
<circle cx="134.7" cy="270.7" r="1.3"/>
<circle cx="134.7" cy="278.7" r="1.3"/>
<circle cx="134.7" cy="286.7" r="1.3"/>
<circle cx="134.7" cy="294.7" r="1.3"/>
<path d="M136,302.7c0,0.7-0.6,1.3-1.3,1.3s-0.4-0.8-0.4-1.6s-0.4-1.1,0.4-1.1S136,302,136,302.7L136,302.7z"/>
<line class="st2" x1="897.1" y1="776.1" x2="897.7" y2="724.3"/>
<line class="st2" x1="281.9" y1="606.6" x2="281.9" y2="657.3"/>
<line class="st2" x1="999.7" y1="549.5" x2="999.7" y2="596"/>
</svg>
