<?xml version="1.0" encoding="utf-8"?>
<!-- Generator: $$$/GeneralStr/196=Adobe Illustrator 27.6.0, SVG Export Plug-In . SVG Version: 6.00 Build 0)  -->
<svg version="1.1" id="b" xmlns="http://www.w3.org/2000/svg" xmlns:xlink="http://www.w3.org/1999/xlink" x="0px" y="0px"
	 viewBox="0 0 1000 830.5" style="enable-background:new 0 0 1000 830.5;" xml:space="preserve">
<style type="text/css">
	.st0{fill:#009770;}
	.st1{fill:#009770;stroke:#000000;stroke-width:3;stroke-linecap:round;stroke-linejoin:round;}
	.st2{fill:#009770;stroke:#000000;stroke-width:3;stroke-linecap:round;stroke-linejoin:round;stroke-miterlimit:4;}
	.st3{fill:none;stroke:#000000;stroke-width:3;stroke-linecap:round;stroke-linejoin:round;}
</style>
<rect class="st0" width="1000" height="830.5"/>
<path class="st1" d="M840.7,53.4c0,0,41.9,21.9,67.6,3.8c41.7-29.4,79.3-12.3,86.4,4.1l0.3,532.9"/>
<path class="st1" d="M848.9,581c0,0,41.9,21.9,67.6,3.8c41.7-29.4,71.5-6.9,78.6,9.5"/>
<polyline class="st1" points="471.6,578.8 471.6,72.2 848.9,72.2 848.9,578.8 "/>
<ellipse class="st1" cx="660.2" cy="72.2" rx="188.6" ry="66.6"/>
<ellipse class="st1" cx="660.2" cy="72.2" rx="94.3" ry="33.3"/>
<circle cx="751.8" cy="67.9" r="1.4"/>
<circle cx="751.8" cy="76.6" r="1.4"/>
<circle cx="743.2" cy="59.3" r="1.4"/>
<circle cx="743.2" cy="67.9" r="1.4"/>
<circle cx="743.2" cy="76.6" r="1.4"/>
<circle cx="743.2" cy="85.2" r="1.4"/>
<circle cx="734.5" cy="59.3" r="1.4"/>
<circle cx="734.5" cy="67.9" r="1.4"/>
<circle cx="734.5" cy="76.6" r="1.4"/>
<circle cx="734.5" cy="85.2" r="1.4"/>
<circle cx="725.9" cy="50.7" r="1.4"/>
<circle cx="725.9" cy="59.3" r="1.4"/>
<circle cx="725.9" cy="67.9" r="1.4"/>
<circle cx="725.9" cy="76.6" r="1.4"/>
<circle cx="725.9" cy="85.2" r="1.4"/>
<circle cx="725.9" cy="93.8" r="1.4"/>
<circle cx="717.3" cy="50.7" r="1.4"/>
<circle cx="717.3" cy="59.3" r="1.4"/>
<circle cx="717.3" cy="67.9" r="1.4"/>
<circle cx="717.3" cy="76.6" r="1.4"/>
<circle cx="717.3" cy="85.2" r="1.4"/>
<circle cx="717.3" cy="93.8" r="1.4"/>
<circle cx="708.7" cy="50.7" r="1.4"/>
<circle cx="708.7" cy="59.3" r="1.4"/>
<circle cx="708.7" cy="67.9" r="1.4"/>
<circle cx="708.7" cy="76.6" r="1.4"/>
<circle cx="708.7" cy="85.2" r="1.4"/>
<circle cx="708.7" cy="93.8" r="1.4"/>
<circle cx="700" cy="42.1" r="1.4"/>
<circle cx="700" cy="50.7" r="1.4"/>
<circle cx="700" cy="59.3" r="1.4"/>
<circle cx="700" cy="67.9" r="1.4"/>
<circle cx="700" cy="76.6" r="1.4"/>
<circle cx="700" cy="85.2" r="1.4"/>
<circle cx="700" cy="93.8" r="1.4"/>
<circle cx="691.4" cy="42.1" r="1.4"/>
<circle cx="691.4" cy="50.7" r="1.4"/>
<circle cx="691.4" cy="59.3" r="1.4"/>
<circle cx="691.4" cy="67.9" r="1.4"/>
<circle cx="691.4" cy="76.6" r="1.4"/>
<circle cx="691.4" cy="85.2" r="1.4"/>
<circle cx="691.4" cy="93.8" r="1.4"/>
<circle cx="691.4" cy="102.5" r="1.4"/>
<circle cx="682.8" cy="42.1" r="1.4"/>
<circle cx="682.8" cy="50.7" r="1.4"/>
<circle cx="682.8" cy="59.3" r="1.4"/>
<circle cx="682.8" cy="67.9" r="1.4"/>
<circle cx="682.8" cy="76.6" r="1.4"/>
<circle cx="682.8" cy="85.2" r="1.4"/>
<circle cx="682.8" cy="93.8" r="1.4"/>
<circle cx="682.8" cy="102.5" r="1.4"/>
<circle cx="674.2" cy="42.1" r="1.4"/>
<circle cx="674.2" cy="50.7" r="1.4"/>
<circle cx="674.2" cy="59.3" r="1.4"/>
<circle cx="674.2" cy="67.9" r="1.4"/>
<circle cx="674.2" cy="76.6" r="1.4"/>
<circle cx="674.2" cy="85.2" r="1.4"/>
<circle cx="674.2" cy="93.8" r="1.4"/>
<circle cx="674.2" cy="102.5" r="1.4"/>
<circle cx="665.5" cy="42.1" r="1.4"/>
<circle cx="665.5" cy="50.7" r="1.4"/>
<circle cx="665.5" cy="59.3" r="1.4"/>
<circle cx="665.5" cy="67.9" r="1.4"/>
<circle cx="665.5" cy="76.6" r="1.4"/>
<circle cx="665.5" cy="85.2" r="1.4"/>
<circle cx="665.5" cy="93.8" r="1.4"/>
<circle cx="665.5" cy="102.5" r="1.4"/>
<circle cx="656.9" cy="42.1" r="1.4"/>
<circle cx="656.9" cy="50.7" r="1.4"/>
<circle cx="656.9" cy="59.3" r="1.4"/>
<circle cx="656.9" cy="67.9" r="1.4"/>
<circle cx="656.9" cy="76.6" r="1.4"/>
<circle cx="656.9" cy="85.2" r="1.4"/>
<circle cx="656.9" cy="93.8" r="1.4"/>
<circle cx="656.9" cy="102.5" r="1.4"/>
<circle cx="648.3" cy="42.1" r="1.4"/>
<circle cx="648.3" cy="50.7" r="1.4"/>
<circle cx="648.3" cy="59.3" r="1.4"/>
<circle cx="648.3" cy="67.9" r="1.4"/>
<circle cx="648.3" cy="76.6" r="1.4"/>
<circle cx="648.3" cy="85.2" r="1.4"/>
<circle cx="648.3" cy="93.8" r="1.4"/>
<circle cx="648.3" cy="102.5" r="1.4"/>
<circle cx="639.7" cy="42.1" r="1.4"/>
<circle cx="639.7" cy="50.7" r="1.4"/>
<circle cx="639.7" cy="59.3" r="1.4"/>
<circle cx="639.7" cy="67.9" r="1.4"/>
<circle cx="639.7" cy="76.6" r="1.4"/>
<circle cx="639.7" cy="85.2" r="1.4"/>
<circle cx="639.7" cy="93.8" r="1.4"/>
<circle cx="639.7" cy="102.5" r="1.4"/>
<circle cx="631" cy="42.1" r="1.4"/>
<circle cx="631" cy="50.7" r="1.4"/>
<circle cx="631" cy="59.3" r="1.4"/>
<circle cx="631" cy="67.9" r="1.4"/>
<circle cx="631" cy="76.6" r="1.4"/>
<circle cx="631" cy="85.2" r="1.4"/>
<circle cx="631" cy="93.8" r="1.4"/>
<circle cx="631" cy="102.5" r="1.4"/>
<circle cx="622.4" cy="42.1" r="1.4"/>
<circle cx="622.4" cy="50.7" r="1.4"/>
<circle cx="622.4" cy="59.3" r="1.4"/>
<circle cx="622.4" cy="67.9" r="1.4"/>
<circle cx="622.4" cy="76.6" r="1.4"/>
<circle cx="622.4" cy="85.2" r="1.4"/>
<circle cx="622.4" cy="93.8" r="1.4"/>
<path d="M623.8,102.5c0,0.8-0.6,1-1.4,1s-1.4-0.2-1.4-1s0.6-1.4,1.4-1.4S623.8,101.7,623.8,102.5z"/>
<circle cx="613.8" cy="50.7" r="1.4"/>
<circle cx="613.8" cy="59.3" r="1.4"/>
<circle cx="613.8" cy="67.9" r="1.4"/>
<circle cx="613.8" cy="76.6" r="1.4"/>
<circle cx="613.8" cy="85.2" r="1.4"/>
<circle cx="613.8" cy="93.8" r="1.4"/>
<circle cx="605.1" cy="50.7" r="1.4"/>
<circle cx="605.1" cy="59.3" r="1.4"/>
<circle cx="605.1" cy="67.9" r="1.4"/>
<circle cx="605.1" cy="76.6" r="1.4"/>
<circle cx="605.1" cy="85.2" r="1.4"/>
<circle cx="605.1" cy="93.8" r="1.4"/>
<circle cx="596.5" cy="50.7" r="1.4"/>
<circle cx="596.5" cy="59.3" r="1.4"/>
<circle cx="596.5" cy="67.9" r="1.4"/>
<circle cx="596.5" cy="76.6" r="1.4"/>
<circle cx="596.5" cy="85.2" r="1.4"/>
<circle cx="596.5" cy="93.8" r="1.4"/>
<path d="M589.3,50.7c0,0.8-0.6,1.4-1.4,1.4s-2.1-1-1.4-1.4c0.4-0.3,1-0.5,1.8-0.5S589.3,49.9,589.3,50.7z"/>
<circle cx="587.9" cy="59.3" r="1.4"/>
<circle cx="587.9" cy="67.9" r="1.4"/>
<circle cx="587.9" cy="76.6" r="1.4"/>
<circle cx="587.9" cy="85.2" r="1.4"/>
<path d="M589.3,93.8c0,0.8-0.6,0.3-1.4,0.3s-1.3,0-1.3-0.8s0.5-0.9,1.3-0.9S589.3,93,589.3,93.8L589.3,93.8z"/>
<circle cx="579.3" cy="59.3" r="1.4"/>
<circle cx="579.3" cy="67.9" r="1.4"/>
<circle cx="579.3" cy="76.6" r="1.4"/>
<circle cx="579.3" cy="85.2" r="1.4"/>
<circle cx="570.6" cy="67.9" r="1.4"/>
<path class="st1" d="M848.9,578.8c0,36.8-84.5,66.7-188.6,66.7s-188.6-29.8-188.6-66.7"/>
<g>
	<g>
		<polyline class="st1" points="4.5,587.5 449.2,17.9 579.1,119.2 134.4,688.9 		"/>
		
			<ellipse transform="matrix(0.6154 -0.7882 0.7882 0.6154 147.2641 432.4453)" class="st2" cx="516.8" cy="65.3" rx="32" ry="82.4"/>
		
			<ellipse transform="matrix(0.6154 -0.7882 0.7882 0.6154 147.2641 432.4453)" class="st2" cx="516.8" cy="65.3" rx="19.6" ry="50.4"/>
		<path d="M554,76.9c0,0.8,0.2,1.2-0.6,1.2s-1.4-0.6-1.4-1.4s0.6-1.4,1.4-1.4S554,76.1,554,76.9z"/>
		<circle cx="553.4" cy="85.2" r="1.4"/>
		<circle cx="553.4" cy="93.8" r="1.4"/>
		<circle cx="544.8" cy="67.9" r="1.4"/>
		<circle cx="544.8" cy="76.6" r="1.4"/>
		<circle cx="544.8" cy="85.2" r="1.4"/>
		<circle cx="544.8" cy="93.8" r="1.4"/>
		<circle cx="536.1" cy="59.3" r="1.4"/>
		<circle cx="536.1" cy="67.9" r="1.4"/>
		<circle cx="536.1" cy="76.6" r="1.4"/>
		<circle cx="536.1" cy="85.2" r="1.4"/>
		<circle cx="536.1" cy="93.8" r="1.4"/>
		<circle cx="527.5" cy="50.7" r="1.4"/>
		<circle cx="527.5" cy="59.3" r="1.4"/>
		<circle cx="527.5" cy="67.9" r="1.4"/>
		<circle cx="527.5" cy="76.6" r="1.4"/>
		<circle cx="527.5" cy="85.2" r="1.4"/>
		<circle cx="527.5" cy="93.8" r="1.4"/>
		<circle cx="518.9" cy="50.7" r="1.4"/>
		<circle cx="518.9" cy="59.3" r="1.4"/>
		<circle cx="518.9" cy="67.9" r="1.4"/>
		<circle cx="518.9" cy="76.6" r="1.4"/>
		<circle cx="518.9" cy="85.2" r="1.4"/>
		<circle cx="510.2" cy="42.1" r="1.4"/>
		<circle cx="510.2" cy="50.7" r="1.4"/>
		<circle cx="510.2" cy="59.3" r="1.4"/>
		<circle cx="510.2" cy="67.9" r="1.4"/>
		<circle cx="510.2" cy="76.6" r="1.4"/>
		<path d="M503,34.1c0,0.8-0.6,0.7-1.4,0.7s-1.4-0.6-1.4-1.4s0.6-0.2,1.4-0.2S503,33.3,503,34.1L503,34.1z"/>
		<circle cx="501.6" cy="42.1" r="1.4"/>
		<circle cx="501.6" cy="50.7" r="1.4"/>
		<circle cx="501.6" cy="59.3" r="1.4"/>
		<circle cx="501.6" cy="67.9" r="1.4"/>
		<circle cx="501.6" cy="76.6" r="1.4"/>
		<circle cx="493" cy="33.4" r="1.4"/>
		<circle cx="493" cy="42.1" r="1.4"/>
		<circle cx="493" cy="50.7" r="1.4"/>
		<circle cx="493" cy="59.3" r="1.4"/>
		<circle cx="493" cy="67.9" r="1.4"/>
		<circle cx="484.4" cy="33.4" r="1.4"/>
		<circle cx="484.4" cy="42.1" r="1.4"/>
		<circle cx="484.4" cy="50.7" r="1.4"/>
		<circle cx="484.4" cy="59.3" r="1.4"/>
		<path d="M477.2,42.1c0,0.8-0.6,1.4-1.4,1.4s-0.8-0.6-0.8-1.4s0-1.4,0.8-1.4S477.2,41.3,477.2,42.1z"/>
	</g>
	<path class="st1" d="M134.4,688.7c-10.9,13.9-48.8,2.5-84.6-25.5s-56.1-62-45.2-75.9"/>
</g>
<path class="st1" d="M758.3,700.1l-3.5,5.3c-11.3,17-27.5,30.1-46.5,37.5L514.5,819c-13.7,5.4-29,4.8-42.2-1.6L228.2,700.1
	c-14.7-7.1-27-18.3-35.4-32.3l-8-13.3"/>
<polygon class="st1" points="758.3,700.1 494.8,803.6 184.9,654.5 433.7,583.5 "/>
<circle class="st1" cx="485.1" cy="601.1" r="68.4"/>
<ellipse class="st2" cx="563.1" cy="641.1" rx="68.4" ry="68.4"/>
<circle class="st1" cx="654.7" cy="681.2" r="68.4"/>
<line class="st3" x1="493.5" y1="822.3" x2="494.8" y2="803.6"/>
<circle class="st1" cx="393.5" cy="627.1" r="68.4"/>
<circle class="st1" cx="304.4" cy="654.8" r="68.4"/>
<ellipse class="st2" cx="471.5" cy="667.1" rx="68.4" ry="68.4"/>
<circle class="st1" cx="382.4" cy="694.8" r="68.4"/>
<ellipse class="st2" cx="571.3" cy="711.8" rx="68.4" ry="68.4"/>
<ellipse class="st2" cx="482.2" cy="739.5" rx="68.4" ry="68.4"/>
<path class="st1" d="M222.1,697.2l251.2,120.9c12.5,6,27,6.6,40,1.5l198.8-78.1c16.5-6.5,30.5-17.8,40.3-32.5l5.8-8.8L494.8,803.6
	l-310-149.1l11.5,19.1C202.4,683.8,211.4,692,222.1,697.2L222.1,697.2z"/>
<circle cx="751.8" cy="706.4" r="1.4"/>
<circle cx="743.2" cy="706.4" r="1.4"/>
<circle cx="743.2" cy="715" r="1.4"/>
<circle cx="734.5" cy="715" r="1.4"/>
<circle cx="734.5" cy="723.6" r="1.4"/>
<circle cx="725.9" cy="715" r="1.4"/>
<circle cx="725.9" cy="723.6" r="1.4"/>
<circle cx="725.9" cy="732.3" r="1.4"/>
<circle cx="717.3" cy="723.6" r="1.4"/>
<circle cx="717.3" cy="732.3" r="1.4"/>
<circle cx="708.7" cy="723.6" r="1.4"/>
<circle cx="708.7" cy="732.3" r="1.4"/>
<circle cx="708.7" cy="740.9" r="1.4"/>
<circle cx="700" cy="723.6" r="1.4"/>
<circle cx="700" cy="732.3" r="1.4"/>
<circle cx="700" cy="740.9" r="1.4"/>
<circle cx="691.4" cy="732.3" r="1.4"/>
<circle cx="691.4" cy="740.9" r="1.4"/>
<circle cx="682.8" cy="732.3" r="1.4"/>
<circle cx="682.8" cy="740.9" r="1.4"/>
<circle cx="682.8" cy="749.5" r="1.4"/>
<circle cx="674.2" cy="740.9" r="1.4"/>
<circle cx="674.2" cy="749.5" r="1.4"/>
<circle cx="665.5" cy="740.9" r="1.4"/>
<circle cx="665.5" cy="749.5" r="1.4"/>
<circle cx="665.5" cy="758.1" r="1.4"/>
<circle cx="656.9" cy="740.9" r="1.4"/>
<circle cx="656.9" cy="749.5" r="1.4"/>
<circle cx="656.9" cy="758.1" r="1.4"/>
<circle cx="648.3" cy="749.5" r="1.4"/>
<circle cx="648.3" cy="758.1" r="1.4"/>
<circle cx="639.7" cy="749.5" r="1.4"/>
<circle cx="639.7" cy="758.1" r="1.4"/>
<circle cx="639.7" cy="766.8" r="1.4"/>
<circle cx="631" cy="758.1" r="1.4"/>
<circle cx="631" cy="766.8" r="1.4"/>
<circle cx="622.4" cy="758.1" r="1.4"/>
<circle cx="622.4" cy="766.8" r="1.4"/>
<circle cx="622.4" cy="775.4" r="1.4"/>
<circle cx="613.8" cy="758.1" r="1.4"/>
<circle cx="613.8" cy="766.8" r="1.4"/>
<circle cx="613.8" cy="775.4" r="1.4"/>
<circle cx="605.1" cy="766.8" r="1.4"/>
<circle cx="605.1" cy="775.4" r="1.4"/>
<circle cx="596.5" cy="766.8" r="1.4"/>
<circle cx="596.5" cy="775.4" r="1.4"/>
<circle cx="596.5" cy="784" r="1.4"/>
<circle cx="587.9" cy="775.4" r="1.4"/>
<circle cx="587.9" cy="784" r="1.4"/>
<circle cx="579.3" cy="775.4" r="1.4"/>
<circle cx="579.3" cy="784" r="1.4"/>
<circle cx="579.3" cy="792.6" r="1.4"/>
<circle cx="570.6" cy="775.4" r="1.4"/>
<circle cx="570.6" cy="784" r="1.4"/>
<circle cx="570.6" cy="792.6" r="1.4"/>
<circle cx="562" cy="784" r="1.4"/>
<circle cx="562" cy="792.6" r="1.4"/>
<circle cx="553.4" cy="784" r="1.4"/>
<circle cx="553.4" cy="792.6" r="1.4"/>
<circle cx="553.4" cy="801.3" r="1.4"/>
<circle cx="544.8" cy="784" r="1.4"/>
<circle cx="544.8" cy="792.6" r="1.4"/>
<circle cx="544.8" cy="801.3" r="1.4"/>
<circle cx="536.1" cy="792.6" r="1.4"/>
<circle cx="536.1" cy="801.3" r="1.4"/>
<circle cx="536.1" cy="809.9" r="1.4"/>
<circle cx="527.5" cy="792.6" r="1.4"/>
<circle cx="527.5" cy="801.3" r="1.4"/>
<circle cx="527.5" cy="809.9" r="1.4"/>
<circle cx="518.9" cy="801.3" r="1.4"/>
<circle cx="518.9" cy="809.9" r="1.4"/>
<circle cx="510.2" cy="801.3" r="1.4"/>
<circle cx="510.2" cy="809.9" r="1.4"/>
<circle cx="510.2" cy="818.5" r="1.4"/>
<path d="M503,801.3c0,0.8-0.6,1.4-1.4,1.4s-1.4-0.6-1.4-1.4s0.8-1.1,1.6-1.1S503,800.5,503,801.3z"/>
<circle cx="501.6" cy="809.9" r="1.4"/>
<circle cx="501.6" cy="818.5" r="1.4"/>
<circle cx="493" cy="809.9" r="1.4"/>
<circle cx="493" cy="818.5" r="1.4"/>
<circle cx="484.4" cy="801.3" r="1.4"/>
<circle cx="484.4" cy="809.9" r="1.4"/>
<circle cx="484.4" cy="818.5" r="1.4"/>
<circle cx="475.7" cy="801.3" r="1.4"/>
<circle cx="475.7" cy="809.9" r="1.4"/>
<circle cx="475.7" cy="818.5" r="1.4"/>
<circle cx="467.1" cy="792.6" r="1.4"/>
<circle cx="467.1" cy="801.3" r="1.4"/>
<circle cx="467.1" cy="809.9" r="1.4"/>
<circle cx="458.5" cy="792.6" r="1.4"/>
<circle cx="458.5" cy="801.3" r="1.4"/>
<circle cx="458.5" cy="809.9" r="1.4"/>
<circle cx="449.9" cy="784" r="1.4"/>
<circle cx="449.9" cy="792.6" r="1.4"/>
<circle cx="449.9" cy="801.3" r="1.4"/>
<circle cx="441.2" cy="784" r="1.4"/>
<circle cx="441.2" cy="792.6" r="1.4"/>
<circle cx="441.2" cy="801.3" r="1.4"/>
<circle cx="432.6" cy="775.4" r="1.4"/>
<circle cx="432.6" cy="784" r="1.4"/>
<circle cx="432.6" cy="792.6" r="1.4"/>
<circle cx="424" cy="775.4" r="1.4"/>
<circle cx="424" cy="784" r="1.4"/>
<circle cx="424" cy="792.6" r="1.4"/>
<circle cx="415.3" cy="766.8" r="1.4"/>
<circle cx="415.3" cy="775.4" r="1.4"/>
<circle cx="415.3" cy="784" r="1.4"/>
<circle cx="406.7" cy="766.8" r="1.4"/>
<circle cx="406.7" cy="775.4" r="1.4"/>
<circle cx="406.7" cy="784" r="1.4"/>
<circle cx="398.1" cy="758.1" r="1.4"/>
<circle cx="398.1" cy="766.8" r="1.4"/>
<circle cx="398.1" cy="775.4" r="1.4"/>
<circle cx="389.5" cy="758.1" r="1.4"/>
<circle cx="389.5" cy="766.8" r="1.4"/>
<circle cx="389.5" cy="775.4" r="1.4"/>
<circle cx="380.8" cy="749.5" r="1.4"/>
<circle cx="380.8" cy="758.1" r="1.4"/>
<circle cx="380.8" cy="766.8" r="1.4"/>
<circle cx="372.2" cy="749.5" r="1.4"/>
<circle cx="372.2" cy="758.1" r="1.4"/>
<circle cx="372.2" cy="766.8" r="1.4"/>
<circle cx="363.6" cy="740.9" r="1.4"/>
<circle cx="363.6" cy="749.5" r="1.4"/>
<circle cx="363.6" cy="758.1" r="1.4"/>
<circle cx="355" cy="740.9" r="1.4"/>
<circle cx="355" cy="749.5" r="1.4"/>
<circle cx="355" cy="758.1" r="1.4"/>
<circle cx="346.3" cy="732.3" r="1.4"/>
<circle cx="346.3" cy="740.9" r="1.4"/>
<circle cx="346.3" cy="749.5" r="1.4"/>
<circle cx="337.7" cy="732.3" r="1.4"/>
<circle cx="337.7" cy="740.9" r="1.4"/>
<circle cx="337.7" cy="749.5" r="1.4"/>
<circle cx="329.1" cy="732.3" r="1.4"/>
<circle cx="329.1" cy="740.9" r="1.4"/>
<circle cx="320.4" cy="723.6" r="1.4"/>
<circle cx="320.4" cy="732.3" r="1.4"/>
<circle cx="320.4" cy="740.9" r="1.4"/>
<circle cx="311.8" cy="723.6" r="1.4"/>
<circle cx="311.8" cy="732.3" r="1.4"/>
<circle cx="303.2" cy="715" r="1.4"/>
<circle cx="303.2" cy="723.6" r="1.4"/>
<circle cx="303.2" cy="732.3" r="1.4"/>
<circle cx="294.6" cy="715" r="1.4"/>
<circle cx="294.6" cy="723.6" r="1.4"/>
<circle cx="285.9" cy="706.4" r="1.4"/>
<circle cx="285.9" cy="715" r="1.4"/>
<circle cx="285.9" cy="723.6" r="1.4"/>
<circle cx="277.3" cy="706.4" r="1.4"/>
<circle cx="277.3" cy="715" r="1.4"/>
<circle cx="268.7" cy="697.7" r="1.4"/>
<circle cx="268.7" cy="706.4" r="1.4"/>
<circle cx="268.7" cy="715" r="1.4"/>
<circle cx="260" cy="697.7" r="1.4"/>
<circle cx="260" cy="706.4" r="1.4"/>
<circle cx="260" cy="715" r="1.4"/>
<circle cx="251.4" cy="689.1" r="1.4"/>
<circle cx="251.4" cy="697.7" r="1.4"/>
<circle cx="251.4" cy="706.4" r="1.4"/>
<circle cx="242.8" cy="689.1" r="1.4"/>
<circle cx="242.8" cy="697.7" r="1.4"/>
<circle cx="242.8" cy="706.4" r="1.4"/>
<circle cx="234.2" cy="680.5" r="1.4"/>
<circle cx="234.2" cy="689.1" r="1.4"/>
<circle cx="234.2" cy="697.7" r="1.4"/>
<circle cx="225.5" cy="680.5" r="1.4"/>
<circle cx="225.5" cy="689.1" r="1.4"/>
<circle cx="225.5" cy="697.7" r="1.4"/>
<circle cx="216.9" cy="671.8" r="1.4"/>
<circle cx="216.9" cy="680.5" r="1.4"/>
<circle cx="216.9" cy="689.1" r="1.4"/>
<circle cx="208.3" cy="671.8" r="1.4"/>
<circle cx="208.3" cy="680.5" r="1.4"/>
<circle cx="199.7" cy="663.2" r="1.4"/>
<circle cx="199.7" cy="671.8" r="1.4"/>
<circle cx="191" cy="663.2" r="1.4"/>
<line class="st3" x1="493.5" y1="822.3" x2="494.8" y2="803.6"/>
<line class="st3" x1="493.1" y1="703.2" x2="510.7" y2="797.4"/>
<line class="st3" x1="482.2" y1="700.2" x2="458.1" y2="786"/>
<line class="st3" x1="466" y1="694.8" x2="425.7" y2="770.4"/>
<line class="st3" x1="568.1" y1="682.5" x2="583.2" y2="768.9"/>
<line class="st3" x1="579.1" y1="678.4" x2="609.7" y2="758.5"/>
<line class="st3" x1="589.9" y1="675.3" x2="626.8" y2="751.8"/>
<line class="st3" x1="651.4" y1="650.8" x2="681.7" y2="730.3"/>
<line class="st3" x1="663.9" y1="643.4" x2="704" y2="721.5"/>
<line class="st3" x1="678.1" y1="628.6" x2="758.3" y2="700.1"/>
<line class="st3" x1="184.9" y1="654.5" x2="272.6" y2="594.2"/>
<line class="st3" x1="286.5" y1="598.8" x2="225.3" y2="674"/>
<line class="st3" x1="291.8" y1="598.8" x2="267.4" y2="692.4"/>
<line class="st3" x1="326.1" y1="722.5" x2="368.4" y2="645.6"/>
<line class="st3" x1="351.6" y1="734.8" x2="376.8" y2="651"/>
<line class="st3" x1="386.5" y1="652.3" x2="384.7" y2="749.6"/>
<line class="st3" x1="483.4" y1="682.6" x2="471.3" y2="627"/>
<line class="st3" x1="476" y1="609.4" x2="490.8" y2="663.4"/>
<line class="st3" x1="326.1" y1="603" x2="381.3" y2="586.4"/>
<line class="st3" x1="345.5" y1="606.9" x2="404.1" y2="590.6"/>
<path class="st3" d="M485.1,559.9c3.8,1.1,66.1,25.7,66.1,25.7"/>
<line class="st3" x1="497" y1="575" x2="553.5" y2="594.2"/>
<line class="st3" x1="561.9" y1="662.4" x2="586.5" y2="602.8"/>
<line class="st3" x1="541.2" y1="680.4" x2="565.8" y2="620.8"/>
</svg>
